<?xml version="1.0" standalone="no"?>
<!DOCTYPE svg PUBLIC "-//W3C//DTD SVG 1.1//EN" "http://www.w3.org/Graphics/SVG/1.1/DTD/svg11.dtd" >
<svg xmlns="http://www.w3.org/2000/svg">
<metadata>
Created by FontPrep 20130207 at Fri Jun  3 10:55:08 2016
 By Tina Muller
Copyright (c) 2016 by Elena Genova. All rights reserved.
</metadata>
<defs>
<font id="0d1af4d64555217e7f984cef596abff6" horiz-adv-x='1024' >
  <font-face 
    font-family="LPSerif-Regular"
    font-weight="400"
    font-stretch="normal"
    units-per-em="2048"
    panose-1="0 0 5 0 0 0 0 0 0 0"
    ascent="1638"
    descent="-410"
    x-height="988"
    cap-height="1438"
    bbox="-1112 -862.615 2806 2089.02"
    underline-thickness="102"
    underline-position="-102"
    unicode-range="U+0020-27B9"
  />
<missing-glyph horiz-adv-x="829" 
d="M406 416q44 0 45 -44q0 -44 -44 -44t-45 45q0 43 44 43zM532 944q0 66 -32 103q-32 35 -94 33t-93 -44q-31 -41 -31 -91t31 -77q10 -6 -3 -10q-12 -4 -30 -4t-40 26t-21 78q0 52 50 102q51 48 141 48t145 -43t55 -109t-32 -118q-32 -51 -71 -80q-104 -79 -104 -152
q0 -33 33 -65q4 -5 -12 -15q-45 -30 -66 -8q-34 47 -32 89t54 95q52 52 102 114t50 128zM111 49h589v1335h-589v-1335zM61 0v1434h689v-1434h-689z" />
    <glyph glyph-name="f_f" unicode="ff" horiz-adv-x="1191" 
d="M1051 1434q86 0 139 -39t53 -109t-63 -84q-37 -4 -58 12q20 20 20 70t-25 79q-26 30 -66 30q-82 1 -117 -95t-41 -307q174 0 225 10q2 -2 2 -14q0 -11 -7 -27t-25 -20t-197 -4q-2 -72 -2 -425t27 -431q11 -33 34 -33h56q6 1 6 -23t-6 -24l-181 8l-178 -8q-6 0 -6 25t6 24
q18 -2 46 -2q28 -1 36 17q27 59 37 690q2 36 0 100t-2 84l-449 2q-2 -76 -2 -293q1 -217 9 -376t19 -191t34 -33h55q6 1 6 -23t-6 -24l-180 8l-178 -8q-6 0 -6 25t6 24q18 -2 57 -2q23 0 34 37q27 91 27 670v184q-86 0 -127 -8q-7 7 2 30t17 27q12 4 108 8v92q12 170 52 234
q66 113 233 113q86 0 139 -39q54 -39 54 -109t-64 -84q-37 -4 -57 12q20 20 20 70t-25 79q-26 30 -67 30q-82 -1 -117 -95t-41 -303l445 -4q0 231 60 337t229 106z" />
    <glyph glyph-name="f_f_i" unicode="ffi" horiz-adv-x="1593" 
d="M66 25q0 25 6 24q18 -2 57 -2q23 0 34 37q27 91 27 670v186q-94 -4 -127 -10q-7 7 2 30t17 27q10 4 108 8v92q0 162 43 238q63 109 242 109q86 0 139 -39q54 -39 54 -109t-64 -84q-37 -4 -57 12q25 25 25 71t-27 77t-70 31q-82 -1 -117 -95t-41 -301q274 0 426 -2
q6 225 58 310q84 143 311 143q127 0 209 -50t82 -153q0 -67 -40 -109t-87 -42q-81 0 -101 23q-7 7 -1 9q34 8 58 44t24 98t-43 100q-42 38 -103 39q-119 0 -173 -98t-69 -314q426 -4 462 -1q65 5 67 -44q1 -12 -9 -181t-10 -411q0 -243 28 -290q11 -20 34 -21h55q8 1 6 -23
t-6 -24l-180 8l-178 -8q-6 0 -7 25q0 25 7 24q18 -2 49 -2t42 25q27 61 27 395q0 457 -63 469q-37 6 -326 10q-4 -131 -4 -465t28 -406q11 -32 34 -32h55q6 0 6 -24t-6 -23l-180 8l-178 -8q-7 0 -7 24t7 25l57 -2q23 0 34 36q27 88 27 652q0 147 2 215q-299 0 -426 -2
q-2 -78 -2 -296q1 -218 9 -377t19 -191t34 -33h55q6 1 6 -23t-6 -24l-180 8l-178 -8q-6 0 -6 25z" />
    <glyph glyph-name="f_f_l" unicode="ffl" horiz-adv-x="1587" 
d="M735 1087q0 162 43 238q63 111 291 105q16 0 123 -6t178 12q20 4 36 -5t15 -23q0 -14 -9 -172t-9 -620t28 -536q11 -33 33 -33h56q6 1 6 -23t-6 -24l-181 8l-178 -8q-6 0 -6 25t6 24l58 -2q23 0 33 37q28 94 28 519t-17 557t-59 182t-129 51q-121 -1 -164 -93t-49 -309
q197 0 236 10q2 -2 2 -14q0 -11 -7 -27t-27 -20t-206 -4q-2 -72 -2 -427t28 -429q11 -33 34 -33h55q6 1 6 -23t-6 -24l-180 8l-179 -8q-6 0 -6 25t6 24q18 -2 46 -2q28 -1 36 17q27 59 37 690q2 0 2 92l-2 92l-420 2q-2 -76 -2 -293q1 -217 9 -376t19 -191t34 -33h55
q6 1 6 -23t-6 -24l-180 8l-178 -8q-6 0 -6 25t6 24q18 -2 46 -2q28 -1 36 17q26 54 36 690v184q-86 0 -127 -8q-7 7 2 30t17 27q12 4 108 8v92q0 162 43 238q63 109 242 109q86 0 139 -39q54 -39 54 -109t-64 -84q-37 -4 -57 12q16 16 16 68t-23 81q-24 30 -65 30
q-82 -1 -117 -95t-41 -303l418 -4v96z" />
    <glyph glyph-name=".notdef" horiz-adv-x="829" 
d="M406 416q44 0 45 -44q0 -44 -44 -44t-45 45q0 43 44 43zM532 944q0 66 -32 103q-32 35 -94 33t-93 -44q-31 -41 -31 -91t31 -77q10 -6 -3 -10q-12 -4 -30 -4t-40 26t-21 78q0 52 50 102q51 48 141 48t145 -43t55 -109t-32 -118q-32 -51 -71 -80q-104 -79 -104 -152
q0 -33 33 -65q4 -5 -12 -15q-45 -30 -66 -8q-34 47 -32 89t54 95q52 52 102 114t50 128zM111 49h589v1335h-589v-1335zM61 0v1434h689v-1434h-689z" />
    <glyph glyph-name=".null" horiz-adv-x="0" 
 />
    <glyph glyph-name="nonmarkingreturn" horiz-adv-x="681" 
 />
    <glyph glyph-name="space" unicode=" " horiz-adv-x="471" 
 />
    <glyph glyph-name="exclam" unicode="!" horiz-adv-x="403" 
d="M186 -16q-84 0 -84 84t84 84t84 -84t-84 -84zM154 360q0 283 -16 636q-15 353 -29 417q0 17 48 27t96 9t48 -13q-43 -381 -74 -1010q-4 -57 -49 -70q-22 -4 -24 4z" />
    <glyph glyph-name="quotedbl" unicode="&#x22;" horiz-adv-x="565" 
d="M416 1028q-51 0 -51 29l-21 377q0 4 36 7t72 1t35 -8l-20 -377q0 -29 -51 -29zM150 1028q-51 0 -52 29l-20 377q0 4 36 7t72 1t35 -8l-20 -377q0 -29 -51 -29z" />
    <glyph glyph-name="numbersign" unicode="#" horiz-adv-x="909" 
d="M328 803l-28 -126t-32 -151q143 -4 230 -4q12 56 24 117l31 162zM664 1160q30 -5 30 -11q-27 -106 -69 -295q108 0 159 10q2 -2 2 -14t-7 -28t-27 -19q-20 -4 -140 -4q-25 -123 -36 -164t-23 -113q131 0 170 10q2 -2 2 -14t-7 -28t-28 -19q-21 -4 -147 -4
q-18 -102 -62 -346q-8 -8 -42 -1q-33 7 -33 11q39 152 79 338l-229 2q-43 -251 -61 -350q0 -8 -38 -2t-38 12l78 340q-109 0 -160 -10q-6 5 2 29t16 28q23 8 154 8l27 113q4 23 15 78t17 86q-119 0 -170 -10q-6 6 2 29q8 24 20 30t159 6q4 27 51 305q2 2 9 2t19 -2l30 -5
t22 -9q-18 -68 -70 -293l223 -2q3 28 23 136t30 173q2 2 10 2t38 -5z" />
    <glyph glyph-name="dollar" unicode="$" horiz-adv-x="890" 
d="M467 25q113 -1 191 67t77 150q0 82 -33 130q-14 22 -22 35t-30 35t-30 31q-9 10 -37 33t-42 36t-78 60l-51 -573q32 -4 55 -4zM229 1153q0 -166 195 -342q18 217 47 590h-2q-106 1 -173 -63t-67 -185zM728 1466q7 0 14 -8t3 -20q-35 -135 -34 -328q1 -4 -11 -5
q-32 -3 -32 30q0 53 -9 106q-16 123 -116 152q-46 -387 -66 -627q69 -57 129 -106t92 -87q31 -38 59 -75q68 -90 68 -219t-99 -217t-257 -89q-43 0 -61 2l-11 -110q0 -4 -19 -4q-54 0 -59 10l15 117q-117 30 -177 104q-61 74 -61 157t34 124t77 51t59 -18l6 -9
q-59 -37 -59 -153q0 -54 31 -110t98 -85q53 438 68 596q-121 100 -191 208q-69 107 -69 259t90 242t233 90h2q8 100 8 108q2 6 41 2t39 -10q-12 -88 -14 -104l115 -13q37 0 55 39h9z" />
    <glyph glyph-name="percent" unicode="%" horiz-adv-x="1308" 
d="M1049 39q143 0 143 267t-143 267t-143 -267t143 -267zM1049 -14q-121 0 -202 89t-81 232t82 231t201 89q119 0 201 -88q82 -87 81 -231t-81 -233t-201 -89zM358 866q144 0 144 268t-144 267q-144 1 -143 -267q0 -268 143 -268zM1075 1442q-198 -395 -312 -648t-349 -788
q-6 -10 -44 -8t-36 6q196 393 396 839t265 599q6 10 64 6zM358 813q-122 0 -202 89q-80 88 -80 232t82 232t200 88t201 -88q82 -88 82 -231t-81 -233t-202 -89z" />
    <glyph glyph-name="ampersand" unicode="&#x26;" horiz-adv-x="1122" 
d="M995 451q3 0 11 1q8 0 17 -14t9 -39q0 -53 -41 -83t-96 -30t-158 46q16 -45 17 -115q0 -119 -79 -189t-211 -69q-132 0 -248 61q-62 33 -102 102t-40 163q0 157 80 241t180 103l-27 18q-29 17 -39 25t-39 30t-61 67q-76 105 -76 267q0 201 124 310q124 108 260 108
t226 -69t90 -199t-64 -190q-65 -62 -130 -62t-90 33q-6 10 0 10q70 8 120 64q50 57 50 153t-53 156t-136 61q-109 0 -179 -114q-70 -113 -70 -293t72 -269q73 -88 198 -88q4 -2 3 -16q-1 -15 -11 -31t-23 -16q-134 0 -211 -114q-47 -70 -47 -192t66 -200t165 -78t150 56
t51 146t-17 124q-17 35 -61 57q-2 2 -2 6h-8q-29 1 -53 -23t-23 -63q-2 0 -10 -1t-17 13t-9 54t37 71q38 31 96 31t169 -51q110 -51 152 -51q42 -1 65 21t23 61z" />
    <glyph glyph-name="quotesingle" unicode="'" horiz-adv-x="294" 
d="M148 1028q-52 0 -52 29l-20 377q0 4 36 7t72 1t35 -8l-20 -377q1 -29 -51 -29z" />
    <glyph glyph-name="parenleft" unicode="(" horiz-adv-x="540" 
d="M211 682q1 -299 65 -530t191 -351l-18 -4q-53 2 -103 37q-131 92 -206 313q-74 221 -74 533t74 532q75 221 206 314q70 43 121 33q-256 -170 -256 -877z" />
    <glyph glyph-name="parenright" unicode=")" horiz-adv-x="540" 
d="M330 682q0 707 -256 877l18 4q51 -2 103 -37q131 -92 205 -314t75 -532q0 -310 -75 -532t-205 -314q-70 -43 -121 -33q128 119 192 351t64 530z" />
    <glyph glyph-name="asterisk" unicode="*" horiz-adv-x="700" 
d="M330 1106q10 -6 6 -12l-74 -142q-40 -49 -99 5q-24 22 -18 26l148 139q10 8 16 2zM379 1108l20 18q6 6 17 -2l147 -139q7 -4 -17 -26q-58 -55 -100 -5l-73 142q-4 6 6 12zM295 1165q-4 -10 -10 -8l-158 27q-35 8 -38 38t11 56t21 25l178 -97q10 -6 6 -14zM410 1169
l-11 27q-4 8 7 14l178 97q6 2 20 -25q14 -26 11 -56t-37 -38l-158 -27q-6 -2 -10 8zM338 1217q-10 0 -10 8l-25 157q-4 36 25 48q30 12 60 7t28 -12l-37 -198q-2 -10 -12 -10h-29z" />
    <glyph glyph-name="plus" unicode="+" horiz-adv-x="677" 
d="M547 574q0 -14 -7 -33q-7 -17 -27 -23t-183 -2q-4 -166 10 -223q-2 -2 -16 -2t-32 7t-22 17q-8 31 -4 203q-156 4 -223 -10q-6 6 2 35q8 28 16 32q25 10 207 7q4 150 -10 213q6 6 35 -2q28 -8 33 -17q10 -25 6 -196q150 -4 213 10q2 -2 2 -16z" />
    <glyph glyph-name="comma" unicode="," horiz-adv-x="339" 
d="M175 154q42 0 69 -31q26 -31 24 -93t-43 -128q-41 -64 -90 -97q-2 -1 -8 3t-2 20q44 104 -20 170q-29 30 -29 68t28 63q29 25 71 25z" />
    <glyph glyph-name="hyphen" unicode="-" horiz-adv-x="630" 
d="M569 566q0 -14 -7 -34q-6 -18 -26 -22t-214 -1t-256 -9q-6 6 2 35q8 28 16 32q26 10 220 5t263 10q2 -2 2 -16z" />
    <glyph glyph-name="period" unicode="." horiz-adv-x="315" 
d="M154 -16q-84 0 -84 84t84 84t84 -84t-84 -84z" />
    <glyph glyph-name="slash" unicode="/" horiz-adv-x="423" 
d="M4 -76q131 657 157 803t70 417q45 271 56 333q1 2 25 2q24 1 38 -7t15 -10q-89 -390 -148 -738t-135 -812q0 -2 -39 -2t-39 14z" />
    <glyph glyph-name="zero" unicode="0" horiz-adv-x="950" 
d="M479 2q70 0 127 70q125 145 125 606q0 577 -159 706q-42 35 -93 35q-258 0 -258 -741q0 -456 130 -607q37 -45 67 -57t61 -12zM480 -39q-48 0 -94 12q-46 13 -105 57t-101 118t-74 211q-30 139 -30 325t28 332q48 252 168 360q94 84 207 84q49 0 96 -16t103 -68t99 -133
q42 -82 70 -227q27 -144 27 -332t-28 -326t-71 -211q-42 -73 -99 -117q-56 -44 -102 -56t-94 -13z" />
    <glyph glyph-name="one" unicode="1" horiz-adv-x="567" 
d="M129 20q0 24 6 25q17 -2 49 -2t42 18q28 47 28 361v901q0 27 -5 31t-23 -3t-138 -61q-2 0 -9 10t-10 22t-1 13q86 29 219 99q29 14 53 14h22q10 0 11 -10l4 -449v-567q0 -314 27 -361q11 -18 34 -18h56q8 1 6 -23t-6 -24l-181 8q-72 0 -178 -8q-6 0 -6 24z" />
    <glyph glyph-name="two" unicode="2" horiz-adv-x="892" 
d="M63 1130q1 156 101 241t238 85t232 -83q93 -83 93 -261q-1 -231 -151 -516t-375 -516q514 6 540 72l23 65q8 29 43 19l10 -7q-8 -23 -18 -61q-36 -138 -68 -167q-16 -15 -37 -15l-618 -2v47q223 223 374 546t136 584q-6 115 -54 184t-130 69t-136 -72q-54 -71 -55 -178
q0 -106 35 -162t73 -64q6 -2 -1 -9q-24 -24 -88 -24q-64 1 -116 63q-51 62 -51 162z" />
    <glyph glyph-name="three" unicode="3" horiz-adv-x="856" 
d="M254 154q0 -58 40 -106t134 -48t152 80q57 80 57 205t-72 214t-188 97q-39 0 -52 -2t-9 34t14 34q39 0 65 10q95 38 145 146t50 260t-54 244q-54 91 -138 91q-84 -1 -135 -67q-52 -66 -52 -178t35 -166q35 -56 73 -64q6 -2 -1 -9q-24 -24 -88 -24q-64 1 -116 63
q-50 62 -51 162q-1 158 99 242t230 84t230 -81q52 -42 85 -126q33 -83 33 -207t-72 -242q-70 -118 -181 -161q121 -20 209 -100t88 -244t-112 -250t-250 -86q-139 0 -222 56t-83 155q0 66 40 109t102 43t77 -27v-6q-34 -8 -58 -43t-24 -92z" />
    <glyph glyph-name="four" unicode="4" horiz-adv-x="831" 
d="M145 477q211 0 351 12v793q-119 -262 -229 -521t-122 -284zM371 20q0 24 6 25q18 -2 49 -2t42 17q26 40 28 321v10h-408q-16 0 -25 8q-7 8 13 39t227 499t225 497q29 14 76 14q10 0 10 -10l4 -449v-489l132 18q4 2 6 -6q12 -35 -13 -79t-65 -42h-60v-10q0 -275 28 -321
q11 -17 34 -17h55q8 1 6 -23t-6 -24l-180 8q-72 0 -178 -8q-6 0 -6 24z" />
    <glyph glyph-name="five" unicode="5" horiz-adv-x="813" 
d="M389 0q98 0 152 86q53 86 53 223q0 274 -238 285q-53 2 -108 -9t-66 -4q-10 7 -8 35l62 799q264 0 485 39q6 2 6 -8q5 -37 -21 -79t-51 -42h-374l-58 -698q88 27 168 26q170 0 260 -95t90 -228q0 -184 -107 -278q-108 -93 -250 -93t-228 55q-86 56 -86 144t40 133t102 45
t77 -27v-6q-35 -8 -59 -46t-24 -99q0 -62 43 -110q42 -48 140 -48z" />
    <glyph glyph-name="six" unicode="6" horiz-adv-x="837" 
d="M436 2q80 0 126 91t46 237q0 289 -153 288q-91 0 -149 -95t-62 -214q51 -307 192 -307zM471 659q125 0 205 -84t80 -227q0 -193 -98 -290t-222 -97q-45 0 -88 13q-43 14 -95 60t-90 120t-64 210q-25 136 -25 321t28 329q48 254 165 359q93 83 207 83t201 -78t87 -205
t-51 -195t-115 -67q-64 0 -89 24q-7 7 -1 9q41 10 80 70t39 168t-40 170t-110 61q-256 0 -256 -735q0 -102 6 -189q72 170 246 170z" />
    <glyph glyph-name="seven" unicode="7" horiz-adv-x="870" 
d="M139 1432l654 2q10 0 15 -26t-5 -36q-199 -200 -315 -582t-99 -739q0 -33 -37 -55q-38 -22 -68 -22q-30 1 -36 12q0 360 122 736t324 613l-542 -45l-23 -90q-8 -29 -43 -18l-10 6q39 123 63 244z" />
    <glyph glyph-name="eight" unicode="8" horiz-adv-x="804" 
d="M406 0q182 0 182 223q0 67 -32 135t-69 112t-102 114q-156 -174 -156 -361q1 -99 51 -161t126 -62zM406 1413q-88 0 -134 -68q-45 -69 -45 -183q-1 -114 55 -216t158 -215q135 207 135 424q1 258 -169 258zM729 252q0 -80 -32 -140t-83 -92q-95 -60 -212 -61
q-117 0 -219 72q-101 72 -101 223q0 207 252 381q-78 80 -123 137q-45 56 -85 150t-40 194q0 174 98 257t222 83t221 -83q98 -83 98 -257q0 -213 -240 -434q84 -92 123 -138t80 -129t41 -163z" />
    <glyph glyph-name="nine" unicode="9" horiz-adv-x="845" 
d="M418 586q53 0 92 41q63 66 90 263q10 79 10 171q-20 195 -68 273t-131 79q-83 0 -135 -113t-53 -288q0 -426 195 -426zM418 1456q49 0 93 -16t94 -66q170 -171 167 -694q0 -424 -113 -582q-55 -76 -119 -106t-174 -31q-108 0 -193 55t-85 156q0 72 44 119t102 47t73 -27
v-6q-35 -8 -59 -46t-23 -98q0 -59 40 -109t124 -50q129 0 183 143t55 533v57q-63 -193 -209 -192q-119 -1 -200 73q-146 133 -144 396q0 212 100 328t244 116z" />
    <glyph glyph-name="colon" unicode=":" horiz-adv-x="331" 
d="M154 -14q-84 0 -84 84t84 84t84 -84t-84 -84zM170 655q-84 0 -84 84t84 84t84 -84t-84 -84z" />
    <glyph glyph-name="semicolon" unicode=";" horiz-adv-x="337" 
d="M171 154q42 0 69 -31q26 -31 24 -93t-43 -128q-41 -64 -90 -97q-2 -1 -8 3t-2 20q44 104 -20 170q-29 30 -29 68t28 63q29 25 71 25zM162 655q-84 0 -84 84t84 84t84 -84t-84 -84z" />
    <glyph glyph-name="less" unicode="&#x3c;" horiz-adv-x="663" 
d="M98 548q0 18 8 27l463 375q2 2 4 -4q18 -33 0 -51l-335 -346l329 -348q29 -31 8 -58q-4 -4 -6 -2l-463 383q-8 6 -8 24z" />
    <glyph glyph-name="equal" unicode="=" horiz-adv-x="724" 
d="M584 467q0 -15 -8 -33t-26 -22q-20 -4 -214 -1t-256 -10q-7 7 2 35q8 28 16 33q26 10 220 5t264 9q2 -2 2 -16zM584 616q0 -14 -8 -32t-26 -23q-20 -4 -214 -1t-256 -9q-6 6 2 35q8 28 16 32q26 10 220 6t264 9q2 -3 2 -17z" />
    <glyph glyph-name="greater" unicode="&#x3e;" horiz-adv-x="622" 
d="M565 549q0 -18 -8 -25l-463 -383q-4 -6 -10 11q-8 27 12 49l330 348l-336 346q-18 18 0 51q2 6 4 4l463 -375q8 -8 8 -26z" />
    <glyph glyph-name="question" unicode="?" horiz-adv-x="874" 
d="M422 -16q-84 0 -84 84t84 84t84 -84t-84 -84zM200 977q-48 0 -89 48t-41 149q0 100 94 190t265 90t274 -80t103 -226t-89 -244q-90 -98 -197 -192q-106 -94 -104 -204q0 -60 61 -121q5 -6 -25 -29q-30 -22 -64 -30t-56 14q-60 92 -60 156q1 108 140 241q57 55 113 115
q136 144 134 301q0 119 -61 185t-177 63q-116 -4 -174 -82q-59 -78 -59 -170t60 -147q4 -2 4 -7q-4 -20 -52 -20z" />
    <glyph glyph-name="at" unicode="@" horiz-adv-x="1853" 
d="M844 258q74 0 140 93t105 221q37 128 37 251t-46 205t-127 82t-145 -100q-120 -185 -120 -469q0 -133 41 -208t115 -75zM905 -164q-377 0 -583 215t-205 625q0 410 202 630q203 220 586 220q440 0 645 -208t205 -654q0 -162 -35 -274t-93 -163q-102 -90 -238 -91
q-135 -1 -212 50t-96 187l-10 6q-39 -86 -114 -133t-154 -47q-127 0 -198 93q-71 94 -71 248q1 337 183 527q96 100 225 100q70 0 134 -49t75 -127l6 2l12 152q0 14 39 21t77 2t36 -17q-92 -548 -75 -751q9 -110 44 -154t99 -43q101 -1 167 111t66 350q0 420 -171 612
t-546 192q-317 0 -485 -204t-168 -586q0 -381 170 -576t483 -194q113 0 193 31q4 0 8 -22t4 -41t-2 -23q-82 -17 -203 -17z" />
    <glyph glyph-name="A" unicode="A" horiz-adv-x="997" 
d="M299 459q51 -2 142 -2h206l-172 704h-12q-106 -430 -164 -702zM936 43q31 0 51 2q8 0 8 -24.5t-8 -24.5l-168 8h-2l-178 -8q-8 0 -8 25.5t8 25.5l39 -2q23 -3 31 15q19 42 -50 337q-204 23 -372 2q-76 -348 -35 -356l53 2q8 0 8 -23.5t-8 -23.5l-153 6q-90 0 -129 -6
q-8 0 -11.5 11t-0.5 23.5t12 12.5l49 -2q41 0 126 312.5t263 1047.5q7 25 55 31h14l215 -879q103 -429 145 -489q16 -22 46 -23z" />
    <glyph glyph-name="B" unicode="B" horiz-adv-x="1091" 
d="M580 27q102 0 162.5 77.5t60.5 212.5q0 225 -162 261q-45 8 -84 5t-45 -3q-14 14 -10 34q7 35 41 31q100 -4 166.5 83t66.5 241q0 221 -64.5 334.5t-150.5 113.5t-125 -39t-39 -389v-567q0 -311 27 -361q19 -34 156 -34zM147 1414q0 24 9 24q139 -8 180 -8t108.5 14
t103.5 14t71.5 -6t93 -34.5t101.5 -77t77 -141.5t33 -216q0 -289 -219 -350v-6q84 -18 164.5 -101.5t80.5 -214.5q0 -176 -102.5 -250.5t-255.5 -74.5l-258 18l-178 -8q-8 0 -11.5 12t-0.5 24q4 12 12 13h28q20 0 36 -1q16 0 27 18q27 45 27 360v569q0 333 -27 381
q-11 20 -34 19l-57 -2q-8 1 -9 25z" />
    <glyph glyph-name="C" unicode="C" horiz-adv-x="864" 
d="M528 -39q-418 0 -417 719q0 188 29.5 333.5t72.5 226.5t103.5 132t111.5 67.5t107.5 16.5t106.5 -15.5t60 -15.5q21 0 46 58q9 9 22.5 0.5t11.5 -15.5q-39 -117 -39 -284q0 -8 -11 -11.5t-21.5 1t-10.5 8.5q0 106 -8 133q-29 96 -143 96t-202 -156q-89 -156 -89 -577
q0 -676 274 -676q123 0 170 145q8 -2 21.5 -5t30 -20.5t6.5 -39.5q-23 -49 -84.5 -85t-147.5 -36z" />
    <glyph glyph-name="D" unicode="D" horiz-adv-x="1101" 
d="M844 676q0 427 -93.5 584t-197.5 157q-53 0 -83 -24.5t-52.5 -121.5t-22.5 -282v-567q0 -231 4 -285.5t22.5 -76.5t92.5 -34t125 -6q205 25 205 656zM344 1430q8 0 84 14t127 14t103.5 -16.5t115 -67.5t108.5 -133t77.5 -227.5t31.5 -330.5t-26.5 -319.5t-63.5 -205
t-89 -113.5t-91 -54t-80 -11l-309 24l-178 -8q-6 0 -6.5 24.5t6.5 24.5l57 -2q23 1 34 19q27 45 27 360v569q0 335 -28 381q-12 20 -33 19l-57 -2q-15 0 -11 24.5t11 24.5q53 -8 190 -8z" />
    <glyph glyph-name="E" unicode="E" horiz-adv-x="1052" 
d="M391 422q0 -245 14.5 -278t27.5 -54.5t53.5 -32t139.5 -10.5t142 39t72.5 169t29.5 132q8 35 39 31l9 -4q-12 -70 -23 -199v-201q0 -20 -21 -20l-397 8q-76 2 -148.5 2t-178.5 -8q-6 0 -6.5 24.5t6.5 24.5l57 -2q23 1 34 19q27 45 27 360v592q0 316 -28 360
q-12 18 -32.5 17.5t-57.5 -0.5q-9 0 -7 24.5t7 24.5q106 -8 239.5 -8t478.5 10q10 2 15.5 -4t5.5 -17q-8 -66 -8 -145.5t6 -181.5l-6 -4q-31 -2 -37 26q-21 159 -55.5 217t-192.5 58q-53 0 -84 -3.5t-55.5 -20.5t-35.5 -37q-30 -53 -30 -316v-359l260 7q10 0 10.5 -35
t-10.5 -35l-260 8v-178z" />
    <glyph glyph-name="F" unicode="F" 
d="M150 1391q-9 0 -7 24.5t7 24.5q106 -8 282.5 -8t456.5 10q20 4 20 -21q-8 -65 -8 -145t6 -182l-6 -4q-29 -4 -37 30q-2 6 -6 38.5t-18 88t-30 81.5q-38 63 -214 63q-84 0 -110.5 -9.5t-40 -18.5t-24.5 -31q-20 -41 -25 -114.5t-5 -203.5v-359l260 7q8 0 8 -35t-8 -35
l-260 8v-178q0 -312 28 -360q11 -18 34 -19h55q8 0 6 -23.5t-6 -23.5l-180 8q-72 0 -178 -8q-9 0 -7 24.5t7 24.5q36 0 58 -1q22 0 33 18q27 45 27 360v592q0 316 -28 360q-12 18 -32.5 17.5t-57.5 -0.5z" />
    <glyph glyph-name="G" unicode="G" horiz-adv-x="991" 
d="M508 -39q-45 0 -89 12.5t-102.5 56.5t-101.5 117.5t-73.5 212t-30.5 323.5t33.5 329.5t81.5 225.5t112 132q105 84 215 84q59 0 110.5 -15.5t60.5 -15.5q21 0 42 52q9 13 23 2t14 -15q-39 -156 -39 -280q0 -2 -21.5 -7.5t-21.5 5.5q0 106 -8 133q-29 96 -148 96
q-80 0 -154 -90q-153 -186 -153 -639t131 -609q58 -69 117 -69t98 42t65.5 143t26.5 226t-14 153t-57 28l-133 -4q-6 0 -6.5 32.5t6.5 32.5l180 -10l219 8q8 0 11 -15t0 -29.5t-7 -14.5l-51 2q-29 0 -35 -40t-6 -206l4 -336q-34 -8 -43 4l-14 21q-90 -78 -242 -78z" />
    <glyph glyph-name="H" unicode="H" horiz-adv-x="1245" 
d="M752 20.5q0 24.5 6 24.5l57 -2q23 1 34 19q28 47 28 360v170q-106 12 -242.5 12t-243.5 -12v-170q0 -310 28 -358q15 -26 89 -21q6 0 6 -23.5t-6 -23.5l-180 8l-178 -8q-6 0 -6.5 24.5t6.5 24.5l57 -2q23 1 34 19q27 45 27 360v569q0 337 -28 383q-12 20 -26.5 18.5
t-36 -1.5t-29 -1t-5.5 23.5t7 24.5l178 -8l180 6q6 0 6 -26t-6 -26l-53 5q-23 3 -35 -17q-29 -47 -29 -383v-319q88 -10 247 -10.5t239 6.5v325q0 333 -28 383q-11 20 -26.5 18.5t-37 -1.5t-27.5 -2q-8 0 -6 24.5t6 24.5l178 -8l180 6q6 0 6 -26t-6 -26l-53 5q-23 3 -35 -17
q-29 -47 -29 -383v-567q0 -310 28 -358q16 -26 89 -21q8 0 6 -23.5t-6 -23.5l-180 8l-178 -8q-6 0 -6 24.5z" />
    <glyph glyph-name="I" unicode="I" horiz-adv-x="657" 
d="M514 1410q0 -26 -6 -26l-53 5q-23 3 -35 -17q-29 -47 -29 -383v-567q0 -312 28 -360q11 -18 34 -19h55q8 0 6 -23.5t-6 -23.5l-180 8q-72 0 -178 -8q-6 0 -6.5 24.5t6.5 24.5q18 -2 49 -2q31 1 42 19q27 45 27 360v569q0 335 -28 381q-12 20 -32.5 18.5t-57.5 -1.5
q-9 0 -7 24.5t7 24.5q106 -8 178 -8l180 6q6 0 6 -26z" />
    <glyph glyph-name="J" unicode="J" horiz-adv-x="720" 
d="M94 -305q-71 0 -100 29q-27 34 -3 72q9 14 11 9q31 -68 96 -67q117 0 175.5 155.5t58.5 507.5v590q0 331 -28 381q-11 20 -32.5 18.5t-58.5 -1.5q-8 0 -6 24.5t6 24.5q106 -8 178 -8l180 6q6 0 6.5 -26t-6.5 -26l-53 5q-23 1 -34 -19q-25 -47 -29 -381l-6 -700
q-4 -594 -355 -594z" />
    <glyph glyph-name="K" unicode="K" horiz-adv-x="1120" 
d="M1001 -20q-109 0 -194.5 94t-144 203.5t-142.5 308.5l-31 -64q0 -14 -25.5 -1t-21.5 28q258 563 307.5 702t14.5 140l-49 -2q-6 0 -6 23.5t6 23.5l139 -6l160 6q6 0 6 -23.5t-6 -23.5l-70 2q-53 0 -364 -674q121 -268 271 -471t267 -209q10 0 -2 -17.5t-28.5 -28.5
t-86.5 -11zM514 1410q0 -26 -6 -26l-53 5q-23 3 -35 -17q-29 -47 -29 -383v-567q0 -312 28 -360q11 -18 34 -19h55q8 0 6 -23.5t-6 -23.5l-180 8q-72 0 -178 -8q-6 0 -6.5 24.5t6.5 24.5q18 -2 49 -2q31 1 42 19q27 45 27 360v569q0 335 -28 381q-12 20 -32.5 18.5
t-57.5 -1.5q-9 0 -7 24.5t7 24.5q106 -8 178 -8l180 6q6 0 6 -26z" />
    <glyph glyph-name="L" unicode="L" horiz-adv-x="976" 
d="M150 45q36 0 58 -1q22 0 33 18q27 45 27 360v569q0 335 -28 381q-12 20 -42 19.5t-48 -2.5q-6 0 -6.5 24.5t6.5 24.5q106 -8 178 -8l180 6q6 0 6 -26t-6 -26l-53 5q-23 3 -35 -17q-29 -47 -29 -383v-567q0 -256 29 -312q10 -20 36.5 -35.5t56.5 -18.5t83 -3q141 0 185 37
t69 146l35 151q9 35 47 27q-12 -66 -23 -199v-201q0 -20 -20 -20l-412 8q-76 2 -148.5 2t-178.5 -8q-9 0 -7 24.5t7 24.5z" />
    <glyph glyph-name="M" unicode="M" horiz-adv-x="1517" 
d="M1497 20.5q0 -24.5 -6 -24.5l-182 4h-2l-195 -4q-4 0 -4 25.5t8 25.5q12 -2 47 -2q35 -1 45 19q26 48 -18 358l-103 711h-8l-319 -1141q-2 -4 -34 -4t-34 8l-319 1128h-6q-127 -864 -113 -1028q6 -53 22 -53q43 0 60 2q8 0 8 -23.5t-4 -23.5q-70 6 -157 6t-154 -6
q-12 0 -9 23.5t7 23.5l69 -2q50 0 142 607q20 128 58 392.5t54 374.5q2 10 32 11.5t32 -5.5l336 -1206h12l340 1210q2 4 33.5 4.5t33.5 -8.5l144 -1001q49 -322 75 -360q12 -18 33 -19l70 2q6 0 6 -24.5z" />
    <glyph glyph-name="N" unicode="N" horiz-adv-x="1105" 
d="M911 10q0 -8 -30.5 -8t-32.5 4l-582 1151h-12q0 -1114 57 -1114l58 2q8 0 8 -23.5t-4 -23.5l-146 6q-125 0 -151 -6q-12 0 -10 23.5t6 23.5l69 -2q57 0 51 1073q-2 252 -2 305q0 10 31 11.5t35 -7.5l580 -1151h12q0 1114 -57 1115l-58 -3q-8 0 -8 24t4 24l145 -7
q125 1 152 7q12 0 10 -24t-6 -24l-69 3q-55 0 -51 -1074q1 -252 1 -305z" />
    <glyph glyph-name="O" unicode="O" horiz-adv-x="1060" 
d="M807 678q0 737 -272 737q-279 0 -279 -737q0 -457 135 -606q63 -70 144 -70q272 0 272 676zM535 -39q-55 0 -103.5 12.5t-111 56.5t-105.5 117.5t-73.5 211t-30.5 324.5t28.5 330.5t70.5 225.5t101.5 133t112.5 67.5t109.5 16.5t107.5 -16.5t109 -67.5q200 -174 200 -692
q1 -719 -415 -719z" />
    <glyph glyph-name="P" unicode="P" horiz-adv-x="1071" 
d="M586 563q111 0 163 115t52 313.5t-65.5 307t-162.5 108.5q-45 -1 -73 -13q-26 -12 -54 -50q-54 -76 -55 -355v-334q31 -45 87.5 -68.5t107.5 -23.5zM302 1430q46 0 122 14t120 14t85 -6t102.5 -34.5t106.5 -77t77.5 -140.5t32.5 -217q0 -471 -362 -471q-92 0 -195 49
v-139q0 -310 28 -358q16 -26 89 -21q14 0 10 -23.5t-10 -23.5q-104 8 -178 8t-180 -8q-6 0 -6.5 24.5t6.5 24.5q18 -2 49 -2q31 1 42 19q27 45 27 360v569q0 335 -28 381q-12 20 -33 19l-57 -2q-6 0 -6.5 24.5t6.5 24.5q106 -8 152 -8z" />
    <glyph glyph-name="Q" unicode="Q" horiz-adv-x="1060" 
d="M256 678q0 -457 135 -606q63 -70 144 -70q272 0 272 676q0 741 -272 741q-279 0 -279 -741zM776.5 -274q-59.5 0 -158 43t-151.5 43t-105 -31q-6 -4 -6 4q2 37 56 84q4 2 37.5 28.5t87.5 63.5h-2q-55 0 -103.5 12.5t-111 56.5t-105.5 117.5t-73.5 211t-30.5 324.5
t28.5 332.5t70.5 227.5t101.5 133t112.5 67.5t109.5 16.5t107.5 -16.5t109 -67.5q200 -174 200 -703.5t-235 -666.5q-68 -45 -162 -98q39 -6 117 -42t144.5 -36t107.5 33q4 4 4 -2q-2 -35 -46 -85t-103.5 -50z" />
    <glyph glyph-name="R" unicode="R" horiz-adv-x="1122" 
d="M555 627q258 0 258 389q0 182 -65.5 291.5t-155.5 109.5q-63 -1 -98 -25q-80 -56 -80 -403v-567q0 -316 28 -360q12 -18 33 -19h55q9 0 7 -23.5t-7 -23.5l-180 8q-72 0 -178 -8q-6 0 -6 24.5t6 24.5q18 -2 49 -2q31 1 42 19q28 47 28 360v569q0 331 -28 381
q-11 20 -34 19l-57 -2q-6 0 -6 24.5t6 24.5q106 -8 190 -8q20 2 87.5 15t119.5 13t88.5 -7t93 -34.5t100.5 -74t77 -134.5t33 -202q0 -166 -74 -270.5t-209 -139.5q80 -195 221.5 -379t241.5 -180q9 -1 -5 -17q-34 -38 -106 -38q-117 0 -192 84q-154 170 -271 514h-26
q-18 0 -26.5 17t-4.5 34q12 -4 45 -4z" />
    <glyph glyph-name="S" unicode="S" horiz-adv-x="892" 
d="M444 25q122 0 199.5 67.5t77.5 149.5t-43 147.5t-108.5 115.5t-141.5 113.5t-141.5 127t-108.5 158.5t-43 208q0 152 90 242t234 90q61 0 124.5 -8.5t65.5 -8.5q37 0 56 39h9q7 0 14 -8t3 -20q-35 -135 -35 -328q0 -4 -10 -5t-21.5 6t-11.5 42t-8 88q-23 160 -190 160
q-106 0 -173 -63.5t-67 -175t61.5 -203t148.5 -163t175 -144t149.5 -165t61.5 -196.5q0 -141 -99.5 -229.5t-269 -88.5t-265 83t-95.5 196q0 80 34 121t76.5 51t59.5 -18l6 -9q-59 -37 -59 -153q0 -78 61.5 -148.5t183.5 -70.5z" />
    <glyph glyph-name="T" unicode="T" horiz-adv-x="974" 
d="M301 20.5q0 24.5 6 24.5q17 -2 49 -2q32 1 43 19q27 45 27 360v569q0 319 -34.5 359t-153.5 32q-59 -6 -85 -34.5t-44 -106.5t-22.5 -117t-33.5 -37q-10 0 -10 5l6 174l-8 153q0 20 20 21l424 -10q285 0 361.5 6t83 0t1.5 -38t-5 -136.5t6 -169.5q0 -10 -21 -5
q-18 8 -22 27q-25 188 -67 236q-40 47 -188 30q-34 -4 -50 -24q-36 -47 -35 -367v-567q-1 -316 27 -360q12 -18 34 -19h56q8 0 6 -23.5t-6 -23.5l-181 8q-72 0 -178 -8q-6 0 -6 24.5z" />
    <glyph glyph-name="U" unicode="U" horiz-adv-x="1142" 
d="M942 592v-64q0 -334 -106 -448q-92 -98 -228 -98q-66 0 -115 10t-107 44t-100 90t-71 159.5t-29 242.5v463q0 335 -28 381q-12 20 -32.5 18.5t-57.5 -1.5q-9 0 -7 24.5t7 24.5q106 -8 178 -8l180 6q6 0 6 -26t-6 -26l-53 5q-23 3 -35 -17q-29 -47 -29 -383l-2 -401
q0 -559 316 -559q95 0 177.5 102.5t82.5 396.5q0 860 -58 861l-57 -3q-8 0 -8 24t4 24l145 -7q125 0 152 7q12 0 10 -24t-6 -24l-70 3q-53 0 -53 -797z" />
    <glyph glyph-name="V" unicode="V" horiz-adv-x="1069" 
d="M544.5 -10q-28.5 0 -30.5 10l-180 735q-140 563 -178 628q-16 28 -39 28q-49 0 -70 -2q-6 0 -6 24.5t6 24.5l178 -8h2q43 0 179 8q6 0 6 -26t-6 -26q-12 2 -39 3q-27 2 -31 -31q-10 -86 121 -623l114 -465h9q195 791 217 955.5t-4 165.5l-50 -2q-6 0 -6 23.5t6 23.5
l150 -6q81 0 149 6q6 0 6.5 -23.5t-6.5 -23.5l-69 2q-23 0 -53.5 -83t-50 -144.5t-45 -160t-47 -178.5t-51.5 -203.5t-50.5 -205.5t-52 -214t-48.5 -202q-2 -10 -30.5 -10z" />
    <glyph glyph-name="W" unicode="W" horiz-adv-x="1675" 
d="M1642 1412.5q0 -23.5 -6 -23.5l-69 2q-33 -1 -85 -177q-87 -292 -183.5 -710t-114.5 -496q-2 -6 -33 -5t-33 5q-14 55 -127 486t-149 577q-102 -348 -182 -654t-109 -415q-2 -4 -33 -5t-33 5l-168 743q-123 546 -163 618q-16 28 -37 28l-70 -2q-6 0 -6 24.5t6 24.5
l178 -8h2l179 8q8 0 6 -26t-6 -26q-12 2 -39 3q-29 0 -33 -33q-12 -84 106 -611l109 -475h8q141 528 242 963q-50 168 -94 168l-70 -2q-6 0 -6 24.5t6 24.5l178 -8h2l178 8q8 0 6 -25.5t-6 -25.5q-11 2 -33 2q-22 1 -29 -7q-21 -23 -1.5 -147t108.5 -459l136 -510h8
q153 610 180 768t39.5 252.5t-15.5 94.5l-49 -2q-6 0 -6 23.5t6 23.5l150 -6q81 0 149 6q6 0 6 -23.5z" />
    <glyph glyph-name="X" unicode="X" horiz-adv-x="980" 
d="M940 19.5q0 -23.5 -6 -23.5l-170 8l-191 -8q-6 0 -6 24.5t6 24.5l56 -2q27 0 26 31q0 63 -110 348l-72 188h-12q-72 -184 -130.5 -375.5t-19.5 -191.5l45 2q4 -2 4 -12t-4 -22.5t-8 -12.5l-158 6l-133 -6q-10 0 -6 23.5t8 23.5l64 -2q37 0 109 163t130 310.5t74 185.5
l-110 289q-132 337 -172 379q-20 20 -43 21l-64 -2q-10 0 -6 24.5t8 24.5l174 -8l178 6q11 0 9 -23.5t-7 -23.5h-43q-29 0 -28 -29q0 -68 117 -371l61 -158h12q12 33 25.5 66t32 83t34 93t30.5 92q70 228 32 228l-49 -2q-10 0 -6 24.5t8 24.5l166 -8l133 6q4 -2 4 -24.5
t-14 -22.5l-58 2q-28 0 -66 -76t-60 -124q-41 -87 -107 -252t-80 -206l121 -313q122 -314 166 -358q26 -26 100 -21q6 0 6 -23.5z" />
    <glyph glyph-name="Y" unicode="Y" horiz-adv-x="1052" 
d="M588 422q0 -314 28 -358q12 -18 33 -21h56q6 0 6 -23.5t-6 -23.5l-181 8l-178 -8q-6 0 -6 24.5t6 24.5t26 -2q50 -5 66 21q28 44 27 358v158q-242 592 -291 701.5t-80 109.5l-69 -2q-12 0 -7 24.5t9 24.5l174 -8l178 6q10 0 8 -23.5t-6 -23.5h-37q-14 1 -18 -11
q-23 -66 217 -684h24q201 549 215 647q8 51 -8 52l-49 -2q-8 0 -7 24.5t7 24.5l157 -8l144 6q4 0 8 -23.5t-10 -23.5l-66 2q-46 0 -165.5 -289t-204.5 -522v-160z" />
    <glyph glyph-name="Z" unicode="Z" horiz-adv-x="843" 
d="M765 -14l-559 10q-140 0 -157.5 -3t-23 6t-5.5 17l617 1362l-334 4q-59 2 -83.5 -28.5t-34 -73.5t-17.5 -94t-12 -68.5t-15.5 -24t-19.5 -6.5t-10 5l6 174q0 57 -8 153q-2 20 23.5 20.5t206.5 -4.5t273.5 -5t161.5 4q2 0 4 -10.5t0 -14.5l-616 -1352q141 -10 424 -10
q59 0 89.5 36.5t57.5 233.5q0 10 11.5 15.5t20.5 5.5t11 -4l-6 -174q0 -57 8 -154q2 -20 -13 -20z" />
    <glyph glyph-name="bracketleft" unicode="[" horiz-adv-x="413" 
d="M90 -254q-14 0 -14 14q33 303 33 848t-33 914q0 14 14 14q148 0 252 25q4 -1 8 -15t4 -26t-3 -14t-83 -7q-37 -309 -37 -877t13 -837q49 -2 106 -8q6 0 2 -26q-3 -26 -10 -30q-110 25 -252 25z" />
    <glyph glyph-name="backslash" unicode="\" horiz-adv-x="479" 
d="M342 -88q-76 464 -135 812t-148 738q0 8 37 13q37 6 41 2q62 -381 107 -638t176 -915q0 -4 -33 -13q-34 -8 -45 1z" />
    <glyph glyph-name="bracketright" unicode="]" horiz-adv-x="413" 
d="M324 -254q-150 0 -252 -25q-4 1 -8 15t-5 26q0 12 4 15q57 6 107 8q12 270 12 837t-37 877q-80 6 -84 6t0 26q3 26 11 30q110 -25 252 -25q14 0 14 -14q-33 -369 -33 -914t33 -848q0 -14 -14 -14z" />
    <glyph glyph-name="asciicircum" unicode="^" horiz-adv-x="684" 
d="M348 1362q20 0 21 -2l245 -395l-18 -7q-33 -2 -49 21l-199 268l-213 -270q-29 -35 -63 -21q-6 2 -4 5l258 399q2 2 22 2z" />
    <glyph glyph-name="underscore" unicode="_" horiz-adv-x="817" 
d="M408 -88h2q211 0 321 4q6 0 6 -31t-6 -30q-111 4 -321 4h-2q-197 0 -322 -4q-6 1 -6 31t6 30q125 -4 322 -4z" />
    <glyph glyph-name="grave" unicode="`" horiz-adv-x="405" 
d="M332 1139q-41 -68 -203 59q-84 66 -41 131q23 35 45 29q4 -2 6 -6q72 -123 197 -201q2 -2 -4 -12z" />
    <glyph glyph-name="a" unicode="a" horiz-adv-x="829" 
d="M347.5 41q60.5 0 126 94t77.5 205l6 168q-25 4 -74 4q-137 0 -196.5 -70.5t-59.5 -171t30 -165t90.5 -64.5zM535 162q-86 -180 -240 -180q-80 0 -149.5 61t-69.5 188q0 160 110.5 241t292.5 81h78q0 227 -34 320.5t-138 93.5q-70 0 -105.5 -48.5t-35.5 -96.5t8 -63.5
t-1.5 -26.5t-49.5 -7q-76 12 -76 90t66.5 135.5t208 57.5t216 -82t76.5 -201l-8 -317q0 -20 -1 -66.5t0 -73t2 -67.5t5 -64.5t12.5 -49.5t20.5 -37t30.5 -11t25.5 7t9 1q6 -29 -16.5 -46t-56.5 -17q-76 0 -122 49t-50 129h-8z" />
    <glyph glyph-name="b" unicode="b" horiz-adv-x="886" 
d="M459 31q92 0 142 133t50 379q0 434 -145 434q-92 0 -151.5 -176t-69.5 -367v-229q0 -92 57.5 -133t116.5 -41zM31 1384.5q0 24.5 4 24.5q63 0 215 25q51 8 51 -37q0 -6 -9 -116.5t-9 -465.5h8q14 39 36.5 80t73 84t105.5 43q299 0 299 -473q0 -289 -85 -428t-231 -139
q-92 0 -204 28q-10 2 -41 3q-100 3 -103 28q12 182 16.5 687t-9 573.5t-46.5 68.5h-4l-57 -10q-10 0 -10 24.5z" />
    <glyph glyph-name="c" unicode="c" horiz-adv-x="714" 
d="M438.5 -14q-150.5 0 -253.5 132t-103 393t104.5 385t247.5 124q109 0 164 -49t55 -125q0 -45 -20.5 -70.5t-41.5 -24.5q-59 3 -59 15q23 27 23 85q0 124 -121 124q-90 0 -144 -123t-54 -344t60 -350t163 -129t153 110q2 4 16 -4q37 -21 15 -63q-54 -86 -204.5 -86z" />
    <glyph glyph-name="d" unicode="d" horiz-adv-x="907" 
d="M604 713v22q0 100 -55 174t-121 74q-92 0 -142 -136t-50 -402q0 -267 72 -369q33 -48 73 -47q90 0 151.5 174t69.5 360q2 47 2 150zM471 1382.5q0 24.5 4 24.5q39 0 205 27q51 8 51 -37q0 -4 -5 -122.5t-5 -429.5t3 -443t7 -203.5t14.5 -106.5t17.5 -42t21 -7h56
q6 0 6 -23.5t-6 -23.5q-31 0 -94.5 4t-83.5 2t-36 -1q-30 2 -33 41.5t-3 133.5q-80 -193 -209 -192q-35 0 -66.5 6t-76.5 34.5t-77 75.5t-55.5 139.5t-23.5 217.5q0 291 89 429t249 138q45 0 97 -25.5t87 -68.5q-4 342 -30 406q-12 30 -35 30l-58 -8q-10 0 -10 24.5z" />
    <glyph glyph-name="e" unicode="e" horiz-adv-x="751" 
d="M410 975q-162 0 -174 -449q319 -31 319 201q0 104 -41 176t-104 72zM455 -20q-373 0 -373 487q0 167 32 285q30 118 84 172q94 96 206 96t201 -79t89 -230q0 -279 -458 -230v-20q0 -217 63 -327.5t161.5 -111t172.5 110.5q3 4 17 -4q37 -21 14 -63q-53 -86 -209 -86z" />
    <glyph glyph-name="f" unicode="f" horiz-adv-x="616" 
d="M66 24.5q0 24.5 6 24.5q18 -2 57 -2q23 0 34 37q27 91 27 670v186q-86 0 -127 -10q-7 7 2 30t21 29t104 6v92q0 162 43 238q64 109 242 109q86 0 139.5 -39t53.5 -109t-64 -84q-37 -4 -57 12q16 16 16 67.5t-23.5 81.5t-64.5 30q-82 0 -116.5 -95.5t-41.5 -306.5
q150 -4 207 10q2 -2 2 -14t-7 -27.5t-27.5 -20.5t-176.5 -1q-2 -74 -2 -291t8.5 -375.5t19.5 -191.5t34 -33h55q6 0 6 -23.5t-6 -23.5l-180 8l-178 -8q-6 0 -6 24.5z" />
    <glyph glyph-name="g" unicode="g" horiz-adv-x="796" 
d="M391 975q-168 0 -168 -342t168 -342t168 346q0 229 -82 305q-6 -4 -13 -7t-16.5 -8t-19.5 -9t-15 3t7 19l22 25q-26 10 -51 10zM256 193q0 -41 47 -75t114.5 -57.5t135.5 -50t115 -73t47 -107.5q0 -106 -95.5 -171t-252 -65t-241.5 58.5t-85 161.5q0 74 52 114.5
t116 18.5q33 -10 37 -35l-2 -4q-37 8 -62.5 -23.5t-25.5 -77.5q0 -84 54 -128t151 -44t153.5 42t56.5 120q0 55 -68.5 95t-149.5 61.5t-149.5 67t-68.5 106.5q0 100 107 152q-172 86 -172 364q0 109 33.5 188.5t88 117.5t103.5 54.5t96 16.5t84 -10q66 109 66 178
q0 14 28 -10q55 -43 37 -98.5t-61 -94.5q168 -84 168 -342q0 -307 -210 -377q-52 -18 -108.5 -18t-105.5 12q-33 -26 -33 -67z" />
    <glyph glyph-name="h" unicode="h" horiz-adv-x="987" 
d="M940 47q6 0 6 -23.5t-6 -23.5l-190 8l-179 -8q-6 0 -6 24.5t6 24.5l58 -2q23 1 35 21q30 51 30 392t-20.5 429t-95.5 88t-133 -86q-105 -155 -126 -422q4 -349 31 -403q10 -20 29 -19h55q6 0 6 -23.5t-6 -23.5l-180 8l-178 -8q-6 0 -6 24.5t6 24.5q18 -2 57 -2
q23 0 34 37q28 94 28 575t-9.5 575.5t-20.5 114t-32 19.5l-57 -8q-10 0 -10 24.5t4 24.5q49 0 215 27q51 8 51 -37q0 -6 -9.5 -157t-9.5 -427h11q90 207 268 207q229 0 229 -262l-8 -268q-4 -374 30 -424q13 -20 38 -21h55z" />
    <glyph glyph-name="i" unicode="i" horiz-adv-x="528" 
d="M68 981q174 0 219 7t45 -38q0 -12 -9.5 -179.5t-9.5 -330.5t8.5 -257.5t19.5 -115t34 -20.5h55q8 0 6 -23.5t-6 -23.5l-180 8l-178 -8q-6 0 -6 24.5t6 24.5q18 -2 49 -2q31 1 42 25q27 60 27 358.5t-13 402t-50 103.5l-57 -4q-11 0 -9 24.5t7 24.5zM227 1108
q-92 0 -92 92t92 92t92 -92t-92 -92z" />
    <glyph glyph-name="j" unicode="j" horiz-adv-x="466" 
d="M74 981q174 0 219 7t45 -38q0 -12 -8 -131t-11 -352l5 -418q0 -403 -336 -420q-6 1 -7 21t5 22q110 16 158 138t51 426l2 231q1 261 -13 365t-51 104l-57 -4q-10 0 -8 24t6 25zM252 1108q-92 0 -92 92t92 92t92 -92t-92 -92z" />
    <glyph glyph-name="k" unicode="k" 
d="M66 1384.5q0 24.5 4 24.5q49 0 215 27q51 8 51 -37q0 -6 -9.5 -167.5t-9.5 -463.5h13q30 65 82 127q100 119 203.5 119t162 -50.5t58.5 -155t-79 -183t-198 -123.5q68 -168 184.5 -316.5t227.5 -148.5q9 0 -5 -15.5t-37.5 -27.5t-68.5 -12t-88 17t-73.5 37.5t-65.5 68
t-55 77.5q-43 65 -129 287l-15 41q106 41 181 121t75 182q0 145 -94 145q-59 0 -121.5 -81.5t-103.5 -197.5t-52 -220q4 -339 31 -393q10 -20 29 -19h55q6 0 6 -23.5t-6 -23.5l-180 8l-178 -8q-6 0 -6 24.5t6 24.5q18 -2 57 -2q23 0 34 37q28 94 28 575t-9.5 575.5
t-20.5 114t-32 19.5l-57 -8q-10 0 -10 24.5z" />
    <glyph glyph-name="l" unicode="l" horiz-adv-x="501" 
d="M66 1384.5q0 24.5 4 24.5q39 0 204 27q51 8 52 -37q0 -6 -4.5 -163.5t-4.5 -481.5t8.5 -482.5t19.5 -190.5t36 -34t53 0q6 0 6 -23.5t-6 -23.5l-180 8l-178 -8q-6 0 -6 24.5t6 24.5q37 -4 58.5 -2t32.5 39q28 94 28 574t-9.5 574.5t-20.5 114t-32 19.5l-57 -8
q-10 0 -10 24.5z" />
    <glyph glyph-name="m" unicode="m" horiz-adv-x="1443" 
d="M1397 47q6 0 6 -23.5t-6 -23.5l-191 8l-178 -8q-6 0 -6 24.5t6 24.5l57 -2q23 1 35 21q30 50 30.5 391.5t-20 429.5t-100.5 88q-92 0 -159.5 -171t-72.5 -315.5t-2 -222.5t8 -118.5t16 -62t19.5 -27t16.5 -7.5t33.5 -1t30 1t4.5 -23.5t-6 -23.5l-191 8l-178 -8
q-6 0 -6 24.5t6 24.5l57 -2q23 1 35 21q31 53 31 393t-20.5 428t-100.5 88q-94 0 -163 -181t-75 -360q4 -326 29 -376q10 -20 33 -19h55q8 0 6 -23.5t-6 -23.5l-180 8l-178 -8q-6 0 -6 24.5t6 24.5q18 -2 49 -2q31 1 42 27q27 65 27 378.5t-13 398.5t-50 85l-57 -4
q-11 0 -9 24.5t7 24.5q143 0 185 6t50 -37q8 -33 10 -135h9q96 213 251 213q207 0 228 -213h2q96 207 250 207q229 0 229 -262l-8 -268q-6 -128 7 -338q3 -48 15.5 -71.5t21.5 -28.5t23 -7h56z" />
    <glyph glyph-name="n" unicode="n" horiz-adv-x="995" 
d="M950 47q4 0 4 -23.5t-6 -23.5l-190 8l-178 -8q-6 0 -6.5 24.5t6.5 24.5l57 -2q23 1 35 21q30 51 30 392t-20 429t-97 88t-137 -93q-112 -172 -122 -446q4 -328 28 -372q10 -18 33 -19h55q10 0 7 -23.5t-7 -23.5l-180 8l-178 -8q-6 0 -6 24.5t6 24.5q18 -2 49 -2
q31 1 42 27q28 67 28 379.5t-13.5 397.5t-50.5 85l-57 -4q-10 0 -8 24.5t6 24.5q143 0 185 6t50 -37q8 -33 11 -135h10q90 207 268 207q229 0 230 -262l-9 -268q-7 -143 2 -264.5t21 -145t21.5 -28.5t17.5 -7t33.5 -1t29.5 1z" />
    <glyph glyph-name="o" unicode="o" horiz-adv-x="839" 
d="M420 29q184 0 184 465t-184 464.5t-184 -465t184 -464.5zM418 -14q-150 0 -243 129t-93 390t94 380t252 119q330 0 330 -492q0 -526 -340 -526z" />
    <glyph glyph-name="p" unicode="p" horiz-adv-x="925" 
d="M500 31q90 0 140 133t50 379q0 434 -145 434q-82 0 -145.5 -171t-75.5 -351v-82q0 -195 2 -271q84 -71 174 -71zM78 993q147 0 182 4t47 0.5t17.5 -30.5t3.5 -222h4q68 277 213 277q299 0 299 -473q0 -567 -344 -567q-82 0 -172 38q4 -268 30 -308q10 -14 27 -15h55
q8 0 6 -23.5t-6 -23.5l-180 8l-178 -8q-6 0 -6 24.5t6 24.5l57 -2q23 -1 34 33q28 85 28 535t-12.5 566.5t-51.5 116.5l-57 -4q-10 0 -8 24.5t6 24.5z" />
    <glyph glyph-name="q" unicode="q" horiz-adv-x="890" 
d="M236 481q0 -458 156 -458q77 0 136.5 96t71.5 205l2 213l2 286q0 59 -43 106.5t-94 47.5q-231 0 -231 -496zM850 -329.5q0 -24.5 -6 -24.5l-182 8l-181 -8q-10 0 -7 23.5t7 23.5h56q23 -1 33 19q24 48 28 368v33h-8q-76 -131 -203 -131t-216 114.5t-89 390.5
q0 160 37 272.5t99 166.5q113 97 245 96q53 0 127 -26.5t78 -26.5l57 -8q16 -3 18 -9q4 -13 -7 -126.5t-11 -297.5v-448q-1 -322 27 -368q12 -20 34 -19l58 2q6 0 6 -24.5z" />
    <glyph glyph-name="r" unicode="r" horiz-adv-x="788" 
d="M332 949q0 -26 -8 -134h12q35 98 96 152.5t139 54.5t127.5 -40t49.5 -108q0 -92 -74 -106q-25 -8 -39 1t-14 11q16 33 16 74q0 100 -88 100q-98 0 -160.5 -132t-75.5 -294v-61q0 -347 28 -399q11 -20 34 -21h55q8 0 6 -23.5t-6 -23.5l-180 8l-178 -8q-6 0 -6 24.5t6 24.5
q18 -2 49 -2q31 1 42 25q27 60 27 358.5t-13 402t-50 103.5l-57 -4q-11 0 -9 24.5t7 24.5q166 0 206 5t49 -3t9 -34z" />
    <glyph glyph-name="s" unicode="s" horiz-adv-x="747" 
d="M356 20q94 0 148.5 45.5t54.5 109.5t-47 117.5t-113.5 98.5t-133 95.5t-114 125t-47.5 162.5q0 125 87.5 186.5t202 61.5t182 -50t67.5 -118q0 -39 -19.5 -63.5t-52.5 -23.5t-43 11q16 27 16.5 74t-40.5 88t-114 41t-123 -46t-50 -119t47 -133t113.5 -107.5t133.5 -97.5
q161 -120 161 -263q0 -109 -89 -172t-229.5 -63t-209 60t-68.5 130.5t24.5 102.5t56 32t45 -10t11.5 -12q-39 -39 -39 -99.5t44 -112t138 -51.5z" />
    <glyph glyph-name="t" unicode="t" horiz-adv-x="561" 
d="M526 987q0 -12 -7 -27.5t-28.5 -20.5t-195.5 -1q-13 -388 10 -758q8 -156 118 -158q52 0 89 76q15 -5 27 -25t-9 -42q-35 -51 -131 -51t-163.5 65.5t-67.5 206.5l-2 688q-72 0 -123 -10q-6 6 2 29.5t16 27.5q23 8 103 8l-2 99q0 25 42 48q16 8 38 22q57 37 63 5l-6 -178
q166 -4 225 10q2 -2 2 -14z" />
    <glyph glyph-name="u" unicode="u" 
d="M557 981q164 0 209 7t45 -38q0 -37 -11 -300t-4 -411.5t23 -168t84 -19.5q6 0 6 -24.5t-6 -24.5l-149 -8q-63 -2 -74.5 5t-13.5 52v123h-2q-33 -74 -97.5 -135.5t-167.5 -61.5q-229 0 -229 263l8 321q0 213 -13 294t-46 81l-58 -4q-10 0 -8 24.5t6 24.5q166 0 211 7
t45 -38q0 -23 -14 -391q0 -344 20.5 -440t100.5 -96q70 1 127 83q108 157 127 414v62q0 199 -13.5 276.5t-46.5 77.5l-57 -4q-10 0 -8 24.5t6 24.5z" />
    <glyph glyph-name="v" unicode="v" horiz-adv-x="927" 
d="M457 0q-43 0 -45 4q-210 830 -280 920q-15 20 -36 20l-69 -2q-6 0 -6.5 24.5t6.5 24.5q135 -8 179 -8t179 8q8 0 6 -25.5t-6 -25.5q-12 2 -34.5 2t-30 -9t-5 -58.5t69.5 -301.5l96 -374h13l104 346q106 356 82 391q-4 8 -18 8l-50 -2q-6 0 -6 23.5t6 23.5l140 -6
q110 0 149 6q8 0 6 -23.5t-6 -23.5l-70 2q-19 0 -39 -22q-82 -94 -290 -918q-2 -4 -45 -4z" />
    <glyph glyph-name="w" unicode="w" horiz-adv-x="1376" 
d="M1356 965.5q0 -23.5 -6 -23.5l-60 2q-20 0 -38 -22q-40 -51 -127 -354.5t-148 -557.5q-2 -4 -41 -4t-41 4q-83 350 -211 744q-31 -86 -105 -332t-114 -412q-2 -4 -41 -4t-41 4q-51 244 -120.5 487.5t-98.5 324.5t-43.5 101.5t-34.5 20.5l-59 -2q-6 0 -6.5 24.5t6.5 24.5
l168 -8h2l178 8q8 0 6 -25.5t-6 -25.5q-12 2 -41 2t-33 -33q-2 -61 64 -336l88 -368h10l102 340q66 221 82 313q-20 53 -35.5 69.5t-33.5 16.5l-56 -2q-6 0 -6 24.5t6 24.5l164 -8h2l178 8q8 0 6 -25.5t-6 -25.5q-12 2 -34.5 2t-29.5 -9t-4.5 -61t68.5 -299l97 -366h10
l94 338q100 358 72 393q-6 6 -19 6l-49 -2q-6 0 -6 23.5t6 23.5l139 -6l140 6q6 0 6 -23.5z" />
    <glyph glyph-name="x" unicode="x" horiz-adv-x="954" 
d="M870 19.5q0 -23.5 -4 -23.5q-131 8 -194.5 8t-165.5 -8q-10 0 -6 24.5t8 24.5l49 -2q41 0 18 75t-131 308h-8l-10 -23q-147 -319 -135 -348q4 -8 22 -8l49 2q11 0 7 -24.5t-9 -24.5l-144 8l-134 -6q-6 0 -7 23.5t7 23.5l68 -2q25 -1 44 15q51 42 191 344l35 73
q-16 27 -29 62q-123 266 -164 332.5t-75 66.5l-68 -2q-4 0 -8 24.5t10 24.5l168 -8l186 6q9 0 9 -23.5t-5 -23.5h-43q-27 0 -26 -27q0 -57 129 -346h12l10 25q147 319 136 348q-4 8 -23 8l-49 -2q-8 0 -7 24.5t7 24.5q102 -8 151 -8t129 6q6 0 7.5 -23.5t-7.5 -23.5l-67 2
q-25 0 -45 -16q-52 -41 -191 -342l-37 -80q139 -301 186.5 -384t86.5 -83l59 2q8 0 8 -23.5z" />
    <glyph glyph-name="y" unicode="y" horiz-adv-x="892" 
d="M870 967.5q0 -23.5 -6 -23.5l-69 2q-20 0 -46 -62.5t-112.5 -317.5t-153.5 -441q-92 -229 -190 -352t-223 -135q-60 -6 -102 18q-59 34 -50 112q4 35 19 27q74 -45 153 -35q158 16 295 269q-125 451 -142 505t-30.5 99t-22 71.5t-19.5 61.5t-19.5 54.5t-18.5 43.5
q-13 31 -35 53.5t-47.5 21.5t-56.5 -1q-6 0 -6 24.5t6 24.5q106 -4 186 -4h2l187 4q8 0 6 -25.5t-6 -25.5q-12 2 -39 2q-31 2 -35 -35q-8 -72 43 -265.5t117 -418.5h12l55 170q115 347 126 489q5 62 -13 68l-49 -2q-6 0 -6 23.5t6 23.5l139 -6q80 0 139 6q6 0 6 -23.5z" />
    <glyph glyph-name="z" unicode="z" horiz-adv-x="747" 
d="M92 -8q-10 0 -23 8t-8 18q229 442 263 512t182 420q-127 0 -202.5 -9t-101.5 -38t-36 -70.5t-17.5 -91t-11.5 -69.5q-6 -31 -35 -29q-10 0 -10 4l6 174q0 57 -8 154q-2 20 21 20l432 -6h114q6 0 11.5 -12t3.5 -14q-184 -352 -256 -505t-176 -425q156 0 225 9t94 36.5
t35 69.5t17 92.5t10 62.5q8 37 38 35q8 0 9 -4l-6 -174q0 -57 8 -154q2 -20 -21 -20l-291 8q-37 2 -146.5 0t-119.5 -2z" />
    <glyph glyph-name="braceleft" unicode="{" horiz-adv-x="509" 
d="M250 901q0 74 -29 200q-29 127 -29 213t50 166q49 80 157 79q20 0 37 -7q12 -4 6 -6q-57 -24 -92 -94t-35 -148t29 -204t29 -199q1 -75 -53 -141t-140 -94q86 -29 139 -96q53 -66 53 -140t-28 -200q-29 -126 -29 -202t36 -143q36 -68 91 -100q0 -10 -43 -12
q-109 0 -157 79t-49 166q1 86 29 212t28 200t-50 135t-130 74q-6 3 -6 27t6 26q80 12 130 74t50 135z" />
    <glyph glyph-name="bar" unicode="|" horiz-adv-x="245" 
d="M119 -78q-39 0 -39 6q16 631 12 1093t-4 484q0 6 39 6t39 -6q-29 -796 -8 -1577q0 -6 -39 -6z" />
    <glyph glyph-name="braceright" unicode="}" horiz-adv-x="507" 
d="M444 666q0 -24 -6 -27q-80 -11 -130 -73t-50 -136t29 -200t29 -212t-50 -166q-49 -79 -157 -79q-20 0 -37 6q-12 4 -6 6q55 33 91 101t36 143t-29 201t-29 200t53 140t140 96q-86 29 -140 95q-53 67 -53 141t29 199t29 203t-35 148t-92 94q0 10 43 13q109 0 157 -79
q48 -78 49 -166q-1 -88 -29 -214t-28 -199t50 -135t130 -74q6 -2 6 -26z" />
    <glyph glyph-name="asciitilde" unicode="~" horiz-adv-x="792" 
d="M230 684q68 0 185 -61q118 -61 165 -61q48 0 74 21q26 22 26 62q2 0 10 1t18 -13t9 -39q0 -55 -45 -92t-116 -37q-70 0 -186 59t-165 64q-39 0 -66 -22t-26 -62q-3 0 -11 -1t-17 13t-9 39q0 57 43 93t111 36z" />
    <glyph glyph-name="exclamdown" unicode="&#xa1;" horiz-adv-x="346" 
d="M127 616q0 14 37 0t37 -65q0 -330 38 -639q7 -66 21 -186t14 -127t-48 -9t-96 8t-48 27q14 66 30 389q15 323 15 602zM160 993q84 0 84 -84t-84 -84t-84 84t84 84z" />
    <glyph glyph-name="cent" unicode="&#xa2;" horiz-adv-x="641" 
d="M479 1287q0 50 -28 86q-29 36 -86 36q-86 0 -125 -98q-39 -99 -39 -235t44 -234t124 -97q104 4 145 89q4 8 26 -17t-8 -53q-55 -55 -149 -62q4 -57 4 -92q0 -6 -31 -6t-30 6q0 37 4 95q-123 14 -193 113q-69 99 -69 260t71 261q72 100 191 113q-4 66 -4 102q0 6 30 6
t31 -6q0 -39 -4 -100q94 -6 144 -54q51 -48 51 -104t-26 -82q-45 -43 -86 -10q-5 4 4 18t9 65z" />
    <glyph glyph-name="sterling" unicode="&#xa3;" 
d="M788 145q0 4 10 0q28 -12 27 -64q0 -52 -54 -88q-53 -36 -113 -36t-165 49t-175 49t-102 -12t-93 -51l-19 49q45 31 81 122t36 178t-26 259q-78 0 -129 -10q-8 7 2 35t23 34t93 7q-41 254 -41 378q-1 214 99 312t261 98t249 -90t88 -193q0 -172 -101 -184q-22 -4 -44 5
q-21 8 -25 12t-2 6q53 53 53 162t-85 186q-50 45 -122 45q-223 0 -223 -324q0 -88 18 -235t21 -182q178 -4 239 10q9 -9 -3 -38q-11 -29 -21 -32q-33 -8 -211 -4q7 -276 -113 -485q83 41 151 41t168 -50t144 -49t74 25t30 65z" />
    <glyph glyph-name="currency" unicode="&#xa4;" horiz-adv-x="1097" 
d="M549 350q317 0 317 344q0 193 -78 284t-236 91t-240 -96q-81 -95 -81 -269t83 -264t235 -90zM546 289q-188 0 -290 114q-72 -72 -100 -116q-2 -2 -15 12t-7 34q5 19 93 107q-70 102 -69 254q0 197 92 310q-86 86 -127 110q-2 2 13 15t34 7q20 -5 111 -100q99 94 281 94
t280 -108q92 96 108 123q2 2 17 -13t1 -41q-15 -26 -100 -106q72 -109 72 -287t-76 -276q88 -85 117 -103q2 -2 -13 -17t-39 -1t-93 86q-102 -98 -290 -98z" />
    <glyph glyph-name="yen" unicode="&#xa5;" horiz-adv-x="1148" 
d="M795 738q1 -14 -7 -33q-8 -18 -18 -21q-31 -8 -145 -4l-37 -98v-4q143 -4 205 10q2 -2 2 -16q1 -14 -7 -33q-8 -18 -18 -21q-37 -8 -182 -4v-92q0 -312 27 -359q11 -18 34 -20h56q6 0 6 -24t-6 -23l-181 8l-178 -8q-6 0 -6 24t6 25q6 0 26 -2q50 -5 65 20q28 46 28 359
v94q-125 0 -174 -10q-6 6 2 35q8 28 16 32q20 8 156 9q-37 90 -41 100q-82 0 -133 -10q-6 6 2 35q8 28 21 34t83 7q-184 450 -229 546t-74 97l-69 -2q-11 0 -7 24t9 25l174 -8l178 6q10 0 8 -24t-6 -23h-37q-41 0 6 -159t172 -485l64 -2q199 543 200 625q0 25 -12 25l-49 -2
q-8 1 -7 25t7 24l158 -8l143 6q4 0 8 -24t-10 -23l-66 2q-63 0 -309 -650q102 0 144 11q2 -2 2 -16z" />
    <glyph glyph-name="brokenbar" unicode="&#xa6;" horiz-adv-x="221" 
d="M133 254v-2q0 -211 8 -322q0 -6 -38 -6t-37 6q6 111 6 322v2q0 197 -6 321q0 6 38 6t37 -6q-8 -125 -8 -321zM133 1176v-2q0 -211 8 -322q0 -6 -38 -6t-37 6q6 111 6 322v2q0 197 -6 321q0 6 38 6t37 -6q-8 -125 -8 -321z" />
    <glyph glyph-name="section" unicode="&#xa7;" horiz-adv-x="765" 
d="M594 612q0 58 -39 106t-137 118t-127 92q-90 -45 -90 -142t57 -151q67 -65 217 -170q119 37 119 147zM655 190q0 -121 -81 -183t-219 -62t-207 60q-68 61 -68 131t24 103q26 31 56 31t51 -14q8 -6 6 -8q-39 -40 -39 -100t44 -111t138 -51t149 45q54 45 54 109t-47 118
t-114 98q-68 46 -134 96t-112 125q-47 75 -47 162q0 168 143 224q-113 109 -113 239t78 192q78 60 192 60q113 0 181 -50t67 -118q0 -42 -19 -70t-42 -28t-47 15q-8 5 -6 7q16 33 16 77t-41 85q-42 41 -114 41t-122 -46t-50 -119q-1 -121 160 -236q68 -48 134 -96t113 -118
t47 -151q0 -168 -168 -217q137 -119 137 -240z" />
    <glyph glyph-name="dieresis" unicode="&#xa8;" horiz-adv-x="581" 
d="M420 1118q-84 0 -84 84t84 84t84 -84t-84 -84zM160 1118q-84 0 -84 84t84 84t84 -84t-84 -84z" />
    <glyph glyph-name="copyright" unicode="&#xa9;" horiz-adv-x="1536" 
d="M788 330q-139 0 -220 101t-81 275t82 274t215 101q102 0 158 -49t55 -124q0 -75 -63 -87q-26 -5 -39 3q-14 9 -12 14q16 26 16 76t-29 86t-86 36q-86 0 -125 -98t-39 -234t45 -235q44 -98 123 -96q104 4 146 88q4 8 22 -12q25 -29 -4 -58q-61 -61 -164 -61zM768 23
q618 0 618 655q0 708 -611 710q-304 0 -465 -182q-160 -184 -160 -510t164 -499q164 -174 454 -174zM1460 678q0 -334 -168 -526t-516 -191q-348 0 -524 201q-176 202 -176 534t173 543t519 211q692 0 692 -772z" />
    <glyph glyph-name="ordfeminine" unicode="&#xaa;" horiz-adv-x="808" 
d="M608 565.5q0 -14.5 -7 -33t-26.5 -22.5t-214 -1t-256.5 -9q-7 7 2 35t17 32q25 10 219 5.5t264 9.5q2 -2 2 -16.5zM319 723q59 0 120 73.5t73 176.5v106q-25 4 -68 4q-117 0 -174 -59t-57 -143q0 -158 106 -158zM653 637q-68 0 -105.5 44t-43.5 112h-10
q-74 -158 -226 -158q-76 0 -131 60.5t-55 148.5q0 137 101.5 208.5t256.5 71.5h72q0 168 -40 230q-40 61 -118 61t-113.5 -48t-35.5 -96t8 -63.5t-3 -22.5t-46 -1q-57 14 -57.5 86t63 129t176.5 57q285 0 285 -305v-334q6 -125 61 -125q19 1 26 8t9 0q6 -29 -16.5 -46
t-57.5 -17z" />
    <glyph glyph-name="guillemotleft" unicode="&#xab;" horiz-adv-x="825" 
d="M393 572q0 14 4 16q207 152 275 309q4 8 28 -8q64 -43 35 -119q-53 -109 -239 -199q186 -90 237 -194q28 -77 -35 -120q-25 -17 -26 -11q-74 176 -275 309q-4 3 -4 17zM66 572q0 14 2 16q207 152 274 309q4 8 28 -8q64 -43 36 -119q-53 -109 -240 -199q186 -90 237 -194
q28 -78 -34 -120q-25 -17 -27 -11q-74 176 -274 309q-2 3 -2 17z" />
    <glyph glyph-name="registered" unicode="&#xae;" horiz-adv-x="1013" 
d="M342 748v8q0 6 6 6h29q10 0 10 129v201q0 106 -10 106h-21q-14 0 -14 8v8q0 8 14 9h2q16 -2 66 -2q92 10 94 10q57 0 98 -33t41 -102q0 -119 -104 -148q35 -74 81 -130t70 -57t23 -9v-2q-1 -10 -21 -16q-70 -19 -115 34q-46 53 -97 176h-17q-4 0 -4 12t4 13l29 -2
q80 0 80 121t-78 120q-33 0 -45 -26t-12 -92v-199q0 -129 12 -129h29q6 0 6 -8v-9q0 -6 -9 -6l-71 2l-70 -2q-6 0 -6 9zM506 588q356 0 356 383q0 213 -88 315t-265 102t-268 -107q-91 -108 -91 -300q0 -193 93 -293t263 -100zM506 1450q430 0 430 -479q0 -207 -104 -326
t-321 -119q-216 0 -326 124q-109 124 -109 331t107 338q108 131 323 131z" />
    <glyph glyph-name="macron" unicode="&#xaf;" horiz-adv-x="731" 
d="M80 1182v32q0 14 14 15l281 -4h2l260 4q14 0 14 -12v-37q0 -12 -14 -13l-260 4h-2l-281 -4q-14 0 -14 15z" />
    <glyph glyph-name="degree" unicode="&#xb0;" horiz-adv-x="536" 
d="M268 1108q43 0 71 40t28 116t-28 114t-71 39q-42 0 -70 -39q-28 -38 -28 -114t28 -116t70 -40zM268 1071q-80 0 -136 56q-56 55 -56 135t56 136t136 56t136 -56t56 -135t-56 -135t-136 -57z" />
    <glyph glyph-name="plusminus" unicode="&#xb1;" horiz-adv-x="700" 
d="M629 391q0 -10 -7 -23q-7 -14 -27 -18t-245 -1t-287 -9q-6 6 2 26q9 19 17 23q25 10 250 5t295 9q2 -2 2 -12zM637 658q0 -10 -7 -24q-7 -12 -28 -18t-227 -2q-4 -98 10 -159q-2 -2 -12 -2q-33 -1 -42 33q-5 20 -1 130q-201 4 -258 -10q-6 6 2 25q8 20 16 24q25 10 242 7
q4 106 -10 172q7 7 25 -2q19 -9 24 -17q10 -25 6 -156q199 -4 258 11q2 -2 2 -12z" />
    <glyph glyph-name="uni00B2" unicode="&#xb2;" horiz-adv-x="602" 
d="M265 1434q85 0 136 -43t52 -125q0 -209 -283 -451q297 0 305 29l14 61q6 20 33 13l4 -5q-8 -23 -24 -77t-28 -71q-13 -17 -30 -17l-358 -3q-10 0 -10 11v18l2 6q279 293 278 484q0 63 -25 102q-26 39 -73 39t-77 -49t-15 -111q-2 -2 -22 -1t-42 11q-23 10 -22 23
q0 68 50 112t135 44z" />
    <glyph glyph-name="uni00B3" unicode="&#xb3;" horiz-adv-x="542" 
d="M160 891q0 -55 30 -90t75 -35q46 0 78 39t32 107t-36 106q-36 39 -87 39h-29l-4 39q4 2 13 3t16 5q53 26 76 64q22 38 22 102t-28 100q-28 35 -72 35t-72 -49q-29 -49 -14 -111q2 -10 -10 -10q-30 -5 -52 15t-24 28q0 68 49 112t132 44t135 -39t52 -119q0 -131 -131 -195
q160 -29 160 -166q-1 -84 -65 -131t-144 -47t-128 32t-48 89q0 16 37 32t37 1z" />
    <glyph glyph-name="acute" unicode="&#xb4;" horiz-adv-x="403" 
d="M72 1128q-10 10 -2 23l196 201q14 16 47 -17q49 -53 9 -104q-16 -18 -46 -33l-172 -86q-8 -4 -14 2z" />
    <glyph glyph-name="paragraph" unicode="&#xb6;" horiz-adv-x="1179" 
d="M289 1146q0 -108 55 -198t197 -114v303q0 109 -18 166q-17 57 -37 69t-54 12q-61 0 -102 -65t-41 -173zM1110 1416q0 -26 -6 -25l-53 4q-23 2 -34 -28q-26 -71 -26 -582t15 -785q0 -16 -64 -16t-63 16q14 274 14 700t-10 680q-47 4 -115 4l-104 -6v-389l-7 -434
q-4 -363 -127 -482q-106 -104 -234 -104q-80 1 -101 13t-19 18l6 23q4 16 15 12q45 -23 86 -23q131 0 194 152t64 504v104q-236 2 -353 96t-114 269q0 76 26 134q27 58 64 89q95 80 276 80l158 -4l199 -2l127 2l180 6q6 0 6 -26z" />
    <glyph glyph-name="periodcentered" unicode="&#xb7;" horiz-adv-x="389" 
d="M190 485q-123 0 -122 121q0 123 122 123t123 -122q0 -122 -123 -122z" />
    <glyph glyph-name="cedilla" unicode="&#xb8;" horiz-adv-x="432" 
d="M168 -315q43 -1 70 27q28 28 24 72t-40 66t-62 24q-26 1 -29 5l-10 15q-8 8 0 16l92 108l35 -14l-60 -82q162 -12 170 -127q4 -67 -46 -111t-114 -44t-118 18q-12 6 -6 27q2 12 26 6t68 -6z" />
    <glyph glyph-name="uni00B9" unicode="&#xb9;" horiz-adv-x="430" 
d="M109 760q0 16 4 16h39q16 0 23 12q18 31 20 240v303q1 17 -3 21t-24 -2q-63 -29 -88 -41q-4 0 -9 14t-3 16q27 12 78 33t64 30q12 9 38 13t26 -4l5 -383q0 -211 18 -240q8 -12 22 -12h39q6 0 4 -16t-4 -17l-122 7q-12 0 -123 -7q-4 1 -4 17z" />
    <glyph glyph-name="ordmasculine" unicode="&#xba;" horiz-adv-x="794" 
d="M633 566q1 -14 -7 -34q-8 -18 -28 -22t-214 -1t-255 -9q-6 6 2 35q8 28 16 32q25 10 220 5t264 10q2 -2 2 -16zM397 680q183 0 183 362t-183 363q-94 0 -138 -98t-44 -252q0 -375 182 -375zM713 1055q0 -199 -83 -309q-82 -110 -226 -109q-144 0 -233 112t-89 305
q0 192 90 294t234 102t225 -98q82 -98 82 -297z" />
    <glyph glyph-name="guillemotright" unicode="&#xbb;" horiz-adv-x="825" 
d="M758 572q0 -14 -2 -17q-201 -133 -275 -309q-3 -6 -27 11q-62 43 -34 120q51 104 237 194q-186 90 -239 199q-28 76 36 119q24 16 27 8q68 -157 275 -309q2 -2 2 -16zM430 572q0 -14 -4 -17q-201 -133 -274 -309q-2 -6 -27 11q-63 43 -35 120q51 104 238 194
q-186 90 -240 199q-28 76 36 119q24 16 28 8q67 -157 274 -309q4 -2 4 -16z" />
    <glyph glyph-name="onequarter" unicode="&#xbc;" horiz-adv-x="1392" 
d="M1090 233v338l-203 -350q99 0 203 12zM1253 33q2 0 4 -8q2 -9 0 -17t-4 -8l-123 6q-12 0 -122 -6q-4 0 -4 16t4 17h39q20 -1 30 23t13 102l-261 -2v32l283 488q6 12 32 8q27 -4 27 -6l3 -297v-137l90 12l4 -6q8 -37 -17 -72q-16 -16 -37 -18h-40q2 -80 11 -104t29 -23h39
zM164 760q0 16 4 16h39q16 0 23 12q20 34 20 240v303q0 17 -3 21t-24 -2q-63 -29 -88 -41q-4 0 -9 14t-3 16q27 13 78 33t64 30t37 12q24 3 28 -3l4 -383q0 -211 18 -240q8 -12 23 -12h39q6 0 4 -16t-4 -17l-123 7q-12 0 -123 -7q-4 1 -4 17zM938 1485q8 0 19 -3t31 -8
t16 -12q-158 -410 -239 -650t-165 -496t-123 -373q-8 -8 -41 3q-34 11 -35 15q316 862 527 1522q2 2 10 2z" />
    <glyph glyph-name="onehalf" unicode="&#xbd;" horiz-adv-x="1474" 
d="M905 502q1 68 51 112t135 43q85 0 136 -43t51 -125q0 -209 -283 -450q297 0 305 29l15 61q6 20 33 12l4 -4q-10 -29 -26 -81t-28 -68t-28 -17l-359 -2q-10 0 -10 11v18l2 6q279 293 279 483q0 63 -26 103t-73 39q-47 0 -77 -49t-15 -111q-2 -2 -21 -1t-42 11t-23 23z
M164 760q0 16 4 16h39q16 0 23 12q20 34 20 240v303q0 17 -3 21t-24 -2q-63 -29 -88 -41q-4 0 -9 14t-3 16q27 12 78 33t64 30t37 12t28 -3l4 -383q0 -211 18 -240q8 -12 23 -12h39q6 0 4 -16t-4 -17l-123 7q-12 0 -123 -7q-4 1 -4 17zM940 1485q8 0 19 -3t31 -8t16 -12
q-158 -410 -239 -650t-165 -496t-123 -373q-8 -8 -41 3q-34 11 -35 15q207 565 269 751t156 466q93 281 102 305q2 2 10 2z" />
    <glyph glyph-name="threequarters" unicode="&#xbe;" horiz-adv-x="1388" 
d="M1085 211v338l-202 -350q98 0 202 12zM1210 10h39q2 0 6 -14t-6 -19l-123 7q-12 0 -122 -7q-4 1 -4 17t4 16h38q20 0 31 24q10 24 12 101l-260 -2v33l283 487q6 12 32 8q27 -4 27 -6l2 -297v-137l91 12l4 -6q8 -37 -17 -71q-16 -16 -37 -19h-41q1 -79 11 -103t30 -24z
M520 915q0 -84 -64 -131t-145 -47q-80 0 -128 32t-48 89q0 16 37 32t37 1q0 -55 30 -90q29 -35 75 -35t78 39t32 107t-36 106q-36 39 -87 39h-29l-4 39q4 2 14 3t15 5q53 26 76 64t23 102t-28 100q-28 35 -72 35t-73 -49t-14 -111q2 -10 -10 -10q-31 -5 -53 15t-23 28
q0 68 49 112t132 44t135 -39t53 -119q0 -131 -132 -195q160 -29 160 -166zM962 1485q8 0 20 -3q10 -3 22 -6q12 -4 19 -8t5 -6q-158 -410 -238 -650t-165 -496q-84 -256 -123 -373q-8 -8 -42 3t-34 15q308 840 526 1522q2 2 10 2z" />
    <glyph glyph-name="questiondown" unicode="&#xbf;" horiz-adv-x="874" 
d="M604 482q0 -64 -40 -124t-97 -116q-57 -54 -115 -114t-97 -139q-40 -79 -40 -181t61 -168t177 -62t175 82q58 78 58 170t-59 147q-4 2 -4 7q4 20 52 20t89 -48t41 -149t-94 -191q-93 -90 -265 -89q-172 0 -275 80t-103 228t93 246q93 99 195 190q103 91 103 202
q-1 60 -62 121q-6 6 25 29q78 58 121 16q61 -93 61 -157zM453 997q84 0 84 -84t-84 -84t-84 84t84 84z" />
    <glyph glyph-name="Agrave" unicode="&#xc0;" horiz-adv-x="997" 
d="M299 459q51 -2 142 -2h206l-172 704h-12q-106 -430 -164 -702zM936 43q31 0 51 2q8 0 8 -24.5t-8 -24.5l-168 8h-2l-178 -8q-8 0 -8 25.5t8 25.5l39 -2q23 -3 31 15q19 42 -50 337q-204 23 -372 2q-76 -348 -35 -356l53 2q8 0 8 -23.5t-8 -23.5l-153 6q-90 0 -129 -6
q-8 0 -11.5 11t-0.5 23.5t12 12.5l49 -2q41 0 126 312.5t263 1047.5q7 25 55 31h14l215 -879q103 -429 145 -489q16 -22 46 -23zM360 1644q-84 66 -41 132q23 35 46 28q4 -2 6 -6q72 -123 196 -201q2 -2 -4 -12q-40 -68 -203 59z" />
    <glyph glyph-name="Aacute" unicode="&#xc1;" horiz-adv-x="997" 
d="M299 459q51 -2 142 -2h206l-172 704h-12q-106 -430 -164 -702zM936 43q31 0 51 2q8 0 8 -24.5t-8 -24.5l-168 8h-2l-178 -8q-8 0 -8 25.5t8 25.5l39 -2q23 -3 31 15q19 42 -50 337q-204 23 -372 2q-76 -348 -35 -356l53 2q8 0 8 -23.5t-8 -23.5l-153 6q-90 0 -129 -6
q-8 0 -11.5 11t-0.5 23.5t12 12.5l49 -2q41 0 126 312.5t263 1047.5q7 25 55 31h14l215 -879q103 -429 145 -489q16 -22 46 -23zM387 1561l-18 14q-10 10 -2 22l196 201q14 16 47 -16q49 -53 8 -105q-16 -18 -45 -32l-172 -86q-8 -4 -14 2z" />
    <glyph glyph-name="Acircumflex" unicode="&#xc2;" horiz-adv-x="997" 
d="M299 459q51 -2 142 -2h206l-172 704h-12q-106 -430 -164 -702zM936 43q31 0 51 2q8 0 8 -24.5t-8 -24.5l-168 8h-2l-178 -8q-8 0 -8 25.5t8 25.5l39 -2q23 -3 31 15q19 42 -50 337q-204 23 -372 2q-76 -348 -35 -356l53 2q8 0 8 -23.5t-8 -23.5l-153 6q-90 0 -129 -6
q-8 0 -11.5 11t-0.5 23.5t12 12.5l49 -2q41 0 126 312.5t263 1047.5q7 25 55 31h14l215 -879q103 -429 145 -489q16 -22 46 -23zM496.5 1808q19.5 0 21.5 -2q39 -39 207 -219q2 -2 -6 -7q-22 -14 -47 1l-174 113l-179 -107q-31 -14 -53 2q12 12 91 95t118 122q2 2 21.5 2z
" />
    <glyph glyph-name="Atilde" unicode="&#xc3;" horiz-adv-x="997" 
d="M299 459q51 -2 142 -2h206l-172 704h-12q-106 -430 -164 -702zM936 43q31 0 51 2q8 0 8 -24.5t-8 -24.5l-168 8h-2l-178 -8q-8 0 -8 25.5t8 25.5l39 -2q23 -3 31 15q19 42 -50 337q-204 23 -372 2q-76 -348 -35 -356l53 2q8 0 8 -23.5t-8 -23.5l-153 6q-90 0 -129 -6
q-8 0 -11.5 11t-0.5 23.5t12 12.5l49 -2q41 0 126 312.5t263 1047.5q7 25 55 31h14l215 -879q103 -429 145 -489q16 -22 46 -23zM266 1593q-2 0 -10 -1t-17.5 13.5t-9.5 54.5t38 70.5t96.5 30.5t168 -51t151.5 -51t65.5 21.5t23.5 60.5q2 0 10.5 1t17.5 -13.5t9 -38.5
q0 -53 -41 -83t-99.5 -30t-166 51t-148.5 51t-64.5 -23.5t-23.5 -62.5z" />
    <glyph glyph-name="Adieresis" unicode="&#xc4;" horiz-adv-x="997" 
d="M299 459q51 -2 142 -2h206l-172 704h-12q-106 -430 -164 -702zM936 43q31 0 51 2q8 0 8 -24.5t-8 -24.5l-168 8h-2l-178 -8q-8 0 -8 25.5t8 25.5l39 -2q23 -3 31 15q19 42 -50 337q-204 23 -372 2q-76 -348 -35 -356l53 2q8 0 8 -23.5t-8 -23.5l-153 6q-90 0 -129 -6
q-8 0 -11.5 11t-0.5 23.5t12 12.5l49 -2q41 0 126 312.5t263 1047.5q7 25 55 31h14l215 -879q103 -429 145 -489q16 -22 46 -23zM625 1548q-84 0 -84 84t84 84t84 -84t-84 -84zM365 1548q-84 0 -84 84t84 84t84 -84t-84 -84z" />
    <glyph glyph-name="Aring" unicode="&#xc5;" horiz-adv-x="997" 
d="M299 459q51 -2 142 -2h206l-172 704h-12q-106 -430 -164 -702zM936 43q31 0 51 2q8 0 8 -24.5t-8 -24.5l-168 8h-2l-178 -8q-8 0 -8 25.5t8 25.5l39 -2q23 -3 31 15q19 42 -50 337q-204 23 -372 2q-76 -348 -35 -356l53 2q8 0 8 -23.5t-8 -23.5l-153 6q-90 0 -129 -6
q-8 0 -11.5 11t-0.5 23.5t12 12.5l49 -2q41 0 126 312.5t263 1047.5q7 25 55 31h14l215 -879q103 -429 145 -489q16 -22 46 -23zM498 1864q-43 0 -71 -39t-28 -115t28 -116t71 -40t70.5 40t27.5 116t-27.5 115t-70.5 39zM498 1518q-80 0 -136.5 56t-56.5 135t56.5 135.5
t136.5 56.5t136 -56.5t56 -135.5t-56 -135t-136 -56z" />
    <glyph glyph-name="AE" unicode="&#xc6;" horiz-adv-x="1480" 
d="M530 457q139 0 166 2v821q0 12 -10 21.5t-24.5 4t-20.5 -25.5l-291 -821q41 -2 180 -2zM1309 1275.5q0 -79.5 6 -181.5l-6 -4q-27 -6 -33 22q-2 5 -14 65q-22 116 -42 151q-38 63 -196 63q-53 0 -84 -3.5t-55.5 -20.5t-35.5 -37q-30 -53 -30 -316v-359q150 0 260 7
q6 0 6 -35t-6 -35q-147 8 -260 8v-178q0 -245 14.5 -278t27.5 -54.5t53.5 -32t139.5 -10.5t142 39t68 150q10 32 36 159q4 27 36 24q10 -1 10 -5q-20 -164 -23 -199v-201q0 -20 -20 -20l-398 8q-76 2 -148.5 2t-178.5 -8q-6 0 -6.5 24.5t6.5 24.5l57 -2q23 -1 34 17
q27 43 27 335q-193 29 -366 4q-113 -324 -84 -350q6 -6 20 -6l49 2q6 0 6.5 -23.5t-6.5 -23.5l-149 6l-150 -6q-6 0 -6 23.5t6 23.5l70 -2q23 -1 38 17q42 49 149 354t311 891q8 27 8 44t-2 26t-18.5 13.5t-24.5 5.5t-36 -1t-36 -2t-6 24.5t6 24.5l281 -8q195 0 540 10
q10 2 15.5 -4t5.5 -17q-8 -66 -8 -145.5z" />
    <glyph glyph-name="Ccedilla" unicode="&#xc7;" horiz-adv-x="864" 
d="M743 1184q0 -8 -11 -11.5t-21.5 1t-10.5 8.5q0 106 -8 133q-29 96 -143 96t-202 -156q-89 -156 -89 -577q0 -676 274 -676q123 0 170 145q8 -2 21.5 -5t30 -20.5t6.5 -39.5q-23 -47 -80 -83t-137 -38l-60 -82q162 -12 170 -127q4 -66 -46 -110.5t-113.5 -44.5t-118.5 18
q-12 6 -6 27q2 12 26.5 6t67.5 -6t69.5 27.5t23.5 71.5t-39 66.5t-62.5 23.5t-28.5 5l-10 14q-8 8 0 17l82 96q-387 25 -387 717q0 188 29.5 333.5t72.5 226.5t103.5 132t111.5 67.5t107.5 16.5t106.5 -15.5t60 -15.5q21 0 46 58q9 9 22.5 0.5t11.5 -15.5q-39 -116 -39 -284
z" />
    <glyph glyph-name="Egrave" unicode="&#xc8;" horiz-adv-x="1052" 
d="M391 422q0 -245 14.5 -278t27.5 -54.5t53.5 -32t139.5 -10.5t142 39t72.5 169t29.5 132q8 35 39 31l9 -4q-12 -70 -23 -199v-201q0 -20 -21 -20l-397 8q-76 2 -148.5 2t-178.5 -8q-6 0 -6.5 24.5t6.5 24.5l57 -2q23 1 34 19q27 45 27 360v592q0 316 -28 360
q-12 18 -32.5 17.5t-57.5 -0.5q-9 0 -7 24.5t7 24.5q106 -8 239.5 -8t478.5 10q10 2 15.5 -4t5.5 -17q-8 -66 -8 -145.5t6 -181.5l-6 -4q-31 -2 -37 26q-21 159 -55.5 217t-192.5 58q-53 0 -84 -3.5t-55.5 -20.5t-35.5 -37q-30 -53 -30 -316v-359l260 7q10 0 10.5 -35
t-10.5 -35l-260 8v-178zM389 1644q-84 66 -41 132q23 35 45 28q4 -2 6 -6q72 -123 197 -201q2 -2 -4 -12q-40 -68 -203 59z" />
    <glyph glyph-name="Eacute" unicode="&#xc9;" horiz-adv-x="1052" 
d="M391 422q0 -245 14.5 -278t27.5 -54.5t53.5 -32t139.5 -10.5t142 39t72.5 169t29.5 132q8 35 39 31l9 -4q-12 -70 -23 -199v-201q0 -20 -21 -20l-397 8q-76 2 -148.5 2t-178.5 -8q-6 0 -6.5 24.5t6.5 24.5l57 -2q23 1 34 19q27 45 27 360v592q0 316 -28 360
q-12 18 -32.5 17.5t-57.5 -0.5q-9 0 -7 24.5t7 24.5q106 -8 239.5 -8t478.5 10q10 2 15.5 -4t5.5 -17q-8 -66 -8 -145.5t6 -181.5l-6 -4q-31 -2 -37 26q-21 159 -55.5 217t-192.5 58q-53 0 -84 -3.5t-55.5 -20.5t-35.5 -37q-30 -53 -30 -316v-359l260 7q10 0 10.5 -35
t-10.5 -35l-260 8v-178zM416 1561l-19 14q-10 10 -2 22l197 201q14 16 47 -16q49 -53 8 -105q-16 -18 -45 -32l-172 -86q-8 -4 -14 2z" />
    <glyph glyph-name="Ecircumflex" unicode="&#xca;" horiz-adv-x="1052" 
d="M391 422q0 -245 14.5 -278t27.5 -54.5t53.5 -32t139.5 -10.5t142 39t72.5 169t29.5 132q8 35 39 31l9 -4q-12 -70 -23 -199v-201q0 -20 -21 -20l-397 8q-76 2 -148.5 2t-178.5 -8q-6 0 -6.5 24.5t6.5 24.5l57 -2q23 1 34 19q27 45 27 360v592q0 316 -28 360
q-12 18 -32.5 17.5t-57.5 -0.5q-9 0 -7 24.5t7 24.5q106 -8 239.5 -8t478.5 10q10 2 15.5 -4t5.5 -17q-8 -66 -8 -145.5t6 -181.5l-6 -4q-31 -2 -37 26q-21 159 -55.5 217t-192.5 58q-53 0 -84 -3.5t-55.5 -20.5t-35.5 -37q-30 -53 -30 -316v-359l260 7q10 0 10.5 -35
t-10.5 -35l-260 8v-178zM525.5 1808q19.5 0 21.5 -2q37 -37 114.5 -120.5t92.5 -98.5q2 -2 -6 -7q-22 -13 -48 1l-174 113l-178 -107q-31 -14 -53 2q12 12 91 95t118 122q2 2 21.5 2z" />
    <glyph glyph-name="Edieresis" unicode="&#xcb;" horiz-adv-x="1052" 
d="M391 422q0 -245 14.5 -278t27.5 -54.5t53.5 -32t139.5 -10.5t142 39t72.5 169t29.5 132q8 35 39 31l9 -4q-12 -70 -23 -199v-201q0 -20 -21 -20l-397 8q-76 2 -148.5 2t-178.5 -8q-6 0 -6.5 24.5t6.5 24.5l57 -2q23 1 34 19q27 45 27 360v592q0 316 -28 360
q-12 18 -32.5 17.5t-57.5 -0.5q-9 0 -7 24.5t7 24.5q106 -8 239.5 -8t478.5 10q10 2 15.5 -4t5.5 -17q-8 -66 -8 -145.5t6 -181.5l-6 -4q-31 -2 -37 26q-21 159 -55.5 217t-192.5 58q-53 0 -84 -3.5t-55.5 -20.5t-35.5 -37q-30 -53 -30 -316v-359l260 7q10 0 10.5 -35
t-10.5 -35l-260 8v-178zM653 1548q-84 0 -84 84t84 84t84 -84t-84 -84zM393 1548q-84 0 -84 84t84 84t84 -84t-84 -84z" />
    <glyph glyph-name="Igrave" unicode="&#xcc;" horiz-adv-x="657" 
d="M514 1410q0 -26 -6 -26l-53 5q-23 3 -35 -17q-29 -47 -29 -383v-567q0 -312 28 -360q11 -18 34 -19h55q8 0 6 -23.5t-6 -23.5l-180 8q-72 0 -178 -8q-6 0 -6.5 24.5t6.5 24.5q18 -2 49 -2q31 1 42 19q27 45 27 360v569q0 335 -28 381q-12 20 -32.5 18.5t-57.5 -1.5
q-9 0 -7 24.5t7 24.5q106 -8 178 -8l180 6q6 0 6 -26zM395 1585q-40 -67 -202 59q-84 66 -41 132q23 35 45 28q4 -2 6 -6q72 -123 196 -201q2 -2 -4 -12z" />
    <glyph glyph-name="Iacute" unicode="&#xcd;" horiz-adv-x="657" 
d="M514 1410q0 -26 -6 -26l-53 5q-23 3 -35 -17q-29 -47 -29 -383v-567q0 -312 28 -360q11 -18 34 -19h55q8 0 6 -23.5t-6 -23.5l-180 8q-72 0 -178 -8q-6 0 -6.5 24.5t6.5 24.5q18 -2 49 -2q31 1 42 19q27 45 27 360v569q0 335 -28 381q-12 20 -32.5 18.5t-57.5 -1.5
q-9 0 -7 24.5t7 24.5q106 -8 178 -8l180 6q6 0 6 -26zM201 1575q-10 10 -2 22l196 201q14 16 47 -16q49 -53 9 -105q-16 -18 -45 -32l-173 -86q-8 -4 -14 2z" />
    <glyph glyph-name="Icircumflex" unicode="&#xce;" horiz-adv-x="657" 
d="M514 1410q0 -26 -6 -26l-53 5q-23 3 -35 -17q-29 -47 -29 -383v-567q0 -312 28 -360q11 -18 34 -19h55q8 0 6 -23.5t-6 -23.5l-180 8q-72 0 -178 -8q-6 0 -6.5 24.5t6.5 24.5q18 -2 49 -2q31 1 42 19q27 45 27 360v569q0 335 -28 381q-12 20 -32.5 18.5t-57.5 -1.5
q-9 0 -7 24.5t7 24.5q106 -8 178 -8l180 6q6 0 6 -26zM328.5 1808q19.5 0 21.5 -2q39 -39 207 -219q2 -2 -6 -7q-22 -14 -47 1l-174 113l-178 -107q-31 -14 -54 2q12 12 91 95t118 122q2 2 21.5 2z" />
    <glyph glyph-name="Idieresis" unicode="&#xcf;" horiz-adv-x="657" 
d="M514 1410q0 -26 -6 -26l-53 5q-23 3 -35 -17q-29 -47 -29 -383v-567q0 -312 28 -360q11 -18 34 -19h55q8 0 6 -23.5t-6 -23.5l-180 8q-72 0 -178 -8q-6 0 -6.5 24.5t6.5 24.5q18 -2 49 -2q31 1 42 19q27 45 27 360v569q0 335 -28 381q-12 20 -32.5 18.5t-57.5 -1.5
q-9 0 -7 24.5t7 24.5q106 -8 178 -8l180 6q6 0 6 -26zM457 1548q-84 0 -84 84t84 84t84 -84t-84 -84zM197 1548q-84 0 -84 84t84 84t84 -84t-84 -84z" />
    <glyph glyph-name="Eth" unicode="&#xd0;" horiz-adv-x="1101" 
d="M844 676q0 427 -93.5 584t-197.5 157q-53 0 -83 -24.5t-52.5 -121.5t-22.5 -282v-112q76 0 131 12q2 -2 2 -15.5t-7 -30t-26.5 -21.5t-99.5 -1v-399q0 -231 4 -285.5t22.5 -76.5t92.5 -34t125 -6q205 25 205 656zM344 1430q8 0 84 14t127 14t103.5 -16.5t115 -67.5
t108.5 -133t77.5 -227.5t31.5 -330.5t-26.5 -319.5t-63.5 -205t-89 -113.5t-91 -54t-80 -11l-309 24l-178 -8q-6 0 -6.5 24.5t6.5 24.5l57 -2q23 1 34 19q27 45 27 360v401q-96 0 -145 -10q-7 7 1.5 32t16.5 29q25 10 127 7v110q0 335 -28 381q-12 20 -33 19l-57 -2
q-15 0 -11 24.5t11 24.5q53 -8 190 -8z" />
    <glyph glyph-name="Ntilde" unicode="&#xd1;" horiz-adv-x="1105" 
d="M911 10q0 -8 -30.5 -8t-32.5 4l-582 1151h-12q0 -1114 57 -1114l58 2q8 0 8 -23.5t-4 -23.5l-146 6q-125 0 -151 -6q-12 0 -10 23.5t6 23.5l69 -2q57 0 51 1073q-2 252 -2 305q0 10 31 11.5t35 -7.5l580 -1151h12q0 1114 -57 1115l-58 -3q-8 0 -8 24t4 24l145 -7
q125 1 152 7q12 0 10 -24t-6 -24l-69 3q-55 0 -51 -1074q1 -252 1 -305zM317 1593q-2 0 -10 -1t-17 13.5t-9 54.5t37.5 70.5t96 30.5t168 -51t151.5 -51t65.5 21.5t23.5 60.5q2 0 10.5 1t17.5 -13.5t9 -38.5q0 -53 -41 -83t-99.5 -30t-166 51t-148.5 51t-64.5 -23.5
t-23.5 -62.5z" />
    <glyph glyph-name="Ograve" unicode="&#xd2;" horiz-adv-x="1060" 
d="M807 678q0 737 -272 737q-279 0 -279 -737q0 -457 135 -606q63 -70 144 -70q272 0 272 676zM535 -39q-55 0 -103.5 12.5t-111 56.5t-105.5 117.5t-73.5 211t-30.5 324.5t28.5 330.5t70.5 225.5t101.5 133t112.5 67.5t109.5 16.5t107.5 -16.5t109 -67.5q200 -174 200 -692
q1 -719 -415 -719zM600 1612q-40 -68 -202 59q-84 66 -42 131q23 35 45 29q4 -2 7 -6q72 -123 196 -201q2 -2 -4 -12z" />
    <glyph glyph-name="Oacute" unicode="&#xd3;" horiz-adv-x="1060" 
d="M807 678q0 737 -272 737q-279 0 -279 -737q0 -457 135 -606q63 -70 144 -70q272 0 272 676zM535 -39q-55 0 -103.5 12.5t-111 56.5t-105.5 117.5t-73.5 211t-30.5 324.5t28.5 330.5t70.5 225.5t101.5 133t112.5 67.5t109.5 16.5t107.5 -16.5t109 -67.5q200 -174 200 -692
q1 -719 -415 -719zM406 1602q-10 10 -3 22l197 201q14 16 47 -17q49 -53 8 -104q-16 -18 -45 -33l-172 -86q-8 -4 -14 2z" />
    <glyph glyph-name="Ocircumflex" unicode="&#xd4;" horiz-adv-x="1060" 
d="M807 678q0 737 -272 737q-279 0 -279 -737q0 -457 135 -606q63 -70 144 -70q272 0 272 676zM535 -39q-55 0 -103.5 12.5t-111 56.5t-105.5 117.5t-73.5 211t-30.5 324.5t28.5 330.5t70.5 225.5t101.5 133t112.5 67.5t109.5 16.5t107.5 -16.5t109 -67.5q200 -174 200 -692
q1 -719 -415 -719zM533.5 1835q19.5 0 21.5 -2q37 -37 115 -121t92 -98q2 -2 -6 -7q-23 -14 -47 1l-174 112l-179 -106q-31 -14 -53 2q12 12 91 95t118 122q2 2 21.5 2z" />
    <glyph glyph-name="Otilde" unicode="&#xd5;" horiz-adv-x="1060" 
d="M807 678q0 737 -272 737q-279 0 -279 -737q0 -457 135 -606q63 -70 144 -70q272 0 272 676zM535 -39q-55 0 -103.5 12.5t-111 56.5t-105.5 117.5t-73.5 211t-30.5 324.5t28.5 330.5t70.5 225.5t101.5 133t112.5 67.5t109.5 16.5t107.5 -16.5t109 -67.5q200 -174 200 -692
q1 -719 -415 -719zM400.5 1788q58.5 0 168 -51t151.5 -51t65.5 21.5t23.5 59.5q2 0 10 1t17.5 -13t9.5 -39q0 -53 -41 -82.5t-99.5 -29.5t-166 51t-148.5 51t-64.5 -23.5t-23.5 -62.5q-2 0 -10 -1t-17.5 13.5t-9.5 38.5q0 55 38 86t96.5 31z" />
    <glyph glyph-name="Odieresis" unicode="&#xd6;" horiz-adv-x="1060" 
d="M807 678q0 737 -272 737q-279 0 -279 -737q0 -457 135 -606q63 -70 144 -70q272 0 272 676zM535 -39q-55 0 -103.5 12.5t-111 56.5t-105.5 117.5t-73.5 211t-30.5 324.5t28.5 330.5t70.5 225.5t101.5 133t112.5 67.5t109.5 16.5t107.5 -16.5t109 -67.5q200 -174 200 -692
q1 -719 -415 -719zM661.5 1575q-83.5 0 -83.5 84t83.5 84t83.5 -84t-83.5 -84zM401 1575q-84 0 -84 84t84 84t84 -84t-84 -84z" />
    <glyph glyph-name="multiply" unicode="&#xd7;" horiz-adv-x="600" 
d="M496 412q2 -2 -10 -14q-35 -33 -61 -18t-134 132q-123 -119 -152 -166q-2 -2 -23 21t-9 44q11 21 141 146q-115 119 -166 150q-2 2 22 22t39 12q25 -8 150 -141q117 113 143 158q2 2 23 -20t11 -43q-9 -22 -132 -140q103 -110 158 -143z" />
    <glyph glyph-name="Oslash" unicode="&#xd8;" horiz-adv-x="1060" 
d="M535 2q272 0 272 676q0 291 -43 469q-243 -526 -434 -975q72 -170 205 -170zM256 678q0 -246 41 -410q145 309 186 402.5t252 572.5q-68 172 -200 172q-279 0 -279 -737zM950 680q0 -719 -415 -719q-152 0 -252 100q-27 -63 -35 -77t-21 -9l-43 19q-16 8 -3 30t48 103
q-119 178 -118 553q0 190 28.5 333.5t70.5 225.5t101.5 133t112.5 67.5t111 16.5q143 0 245 -110q6 16 22.5 52t22.5 50t21 8l43 -20q16 -4 9 -18.5t-31 -60.5t-38 -77q121 -203 121 -600z" />
    <glyph glyph-name="Ugrave" unicode="&#xd9;" horiz-adv-x="1142" 
d="M942 592v-64q0 -334 -106 -448q-92 -98 -228 -98q-66 0 -115 10t-107 44t-100 90t-71 159.5t-29 242.5v463q0 335 -28 381q-12 20 -32.5 18.5t-57.5 -1.5q-9 0 -7 24.5t7 24.5q106 -8 178 -8l180 6q6 0 6 -26t-6 -26l-53 5q-23 3 -35 -17q-29 -47 -29 -383l-2 -401
q0 -559 316 -559q95 0 177.5 102.5t82.5 396.5q0 860 -58 861l-57 -3q-8 0 -8 24t4 24l145 -7q125 0 152 7q12 0 10 -24t-6 -24l-70 3q-53 0 -53 -797zM666 1585q-42 -65 -203 59q-84 66 -41 132q23 35 45 28q4 -2 6 -6q72 -123 197 -201q2 -2 -4 -12z" />
    <glyph glyph-name="Uacute" unicode="&#xda;" horiz-adv-x="1142" 
d="M942 592v-64q0 -334 -106 -448q-92 -98 -228 -98q-66 0 -115 10t-107 44t-100 90t-71 159.5t-29 242.5v463q0 335 -28 381q-12 20 -32.5 18.5t-57.5 -1.5q-9 0 -7 24.5t7 24.5q106 -8 178 -8l180 6q6 0 6 -26t-6 -26l-53 5q-23 3 -35 -17q-29 -47 -29 -383l-2 -401
q0 -559 316 -559q95 0 177.5 102.5t82.5 396.5q0 860 -58 861l-57 -3q-8 0 -8 24t4 24l145 -7q125 0 152 7q12 0 10 -24t-6 -24l-70 3q-53 0 -53 -797zM471 1575q-10 10 -2 22l197 201q14 16 47 -16q49 -53 8 -105q-16 -18 -45 -32l-172 -86q-8 -4 -15 2z" />
    <glyph glyph-name="Ucircumflex" unicode="&#xdb;" horiz-adv-x="1142" 
d="M942 592v-64q0 -334 -106 -448q-92 -98 -228 -98q-66 0 -115 10t-107 44t-100 90t-71 159.5t-29 242.5v463q0 335 -28 381q-12 20 -32.5 18.5t-57.5 -1.5q-9 0 -7 24.5t7 24.5q106 -8 178 -8l180 6q6 0 6 -26t-6 -26l-53 5q-23 3 -35 -17q-29 -47 -29 -383l-2 -401
q0 -559 316 -559q95 0 177.5 102.5t82.5 396.5q0 860 -58 861l-57 -3q-8 0 -8 24t4 24l145 -7q125 0 152 7q12 0 10 -24t-6 -24l-70 3q-53 0 -53 -797zM599.5 1808q19.5 0 21.5 -2q37 -37 114.5 -120.5t91.5 -98.5q2 -2 -6 -7q-22 -14 -47 1l-174 113l-178 -107
q-31 -14 -53 2q12 12 91 95t118 122q2 2 21.5 2z" />
    <glyph glyph-name="Udieresis" unicode="&#xdc;" horiz-adv-x="1142" 
d="M942 592v-64q0 -334 -106 -448q-92 -98 -228 -98q-66 0 -115 10t-107 44t-100 90t-71 159.5t-29 242.5v463q0 335 -28 381q-12 20 -32.5 18.5t-57.5 -1.5q-9 0 -7 24.5t7 24.5q106 -8 178 -8l180 6q6 0 6 -26t-6 -26l-53 5q-23 3 -35 -17q-29 -47 -29 -383l-2 -401
q0 -559 316 -559q95 0 177.5 102.5t82.5 396.5q0 860 -58 861l-57 -3q-8 0 -8 24t4 24l145 -7q125 0 152 7q12 0 10 -24t-6 -24l-70 3q-53 0 -53 -797zM727 1548q-84 0 -84 84t84 84t84 -84t-84 -84zM467 1548q-84 0 -84 84t84 84t84 -84t-84 -84z" />
    <glyph glyph-name="Yacute" unicode="&#xdd;" horiz-adv-x="1052" 
d="M588 422q0 -314 28 -358q12 -18 33 -21h56q6 0 6 -23.5t-6 -23.5l-181 8l-178 -8q-6 0 -6 24.5t6 24.5t26 -2q50 -5 66 21q28 44 27 358v158q-242 592 -291 701.5t-80 109.5l-69 -2q-12 0 -7 24.5t9 24.5l174 -8l178 6q10 0 8 -23.5t-6 -23.5h-37q-14 1 -18 -11
q-23 -66 217 -684h24q201 549 215 647q8 51 -8 52l-49 -2q-8 0 -7 24.5t7 24.5l157 -8l144 6q4 0 8 -23.5t-10 -23.5l-66 2q-46 0 -165.5 -289t-204.5 -522v-160zM416 1561l-19 14q-10 10 -2 22l197 201q14 16 47 -16q49 -53 8 -105q-16 -18 -45 -32l-172 -86q-8 -4 -14 2z
" />
    <glyph glyph-name="Thorn" unicode="&#xde;" horiz-adv-x="1017" 
d="M512 440q121 0 178.5 104.5t57.5 263t-71 256t-180.5 97.5t-179.5 -24v-605q31 -45 87.5 -68.5t107.5 -23.5zM440 1410q0 -26 -6 -26l-53 5q-19 1 -29 -9q-24 -24 -33 -188q70 20 135.5 20t110.5 -6t107.5 -31.5t109.5 -67.5t80 -122t33 -186q0 -180 -90 -295t-293 -115
q-92 0 -195 49v-16q0 -312 28 -360q11 -18 34 -19h55q8 0 6 -23.5t-6 -23.5l-180 8q-72 0 -178 -8q-6 0 -6 24.5t6 24.5q18 -2 49 -2q31 1 42 19q28 47 28 360v569q0 333 -28 383q-11 20 -26.5 18.5t-37 -1.5t-27.5 -2q-8 0 -6 24.5t6 24.5l178 -8l180 6q6 0 6 -26z" />
    <glyph glyph-name="germandbls" unicode="&#xdf;" horiz-adv-x="989" 
d="M156 922q0 104 3 144t6 82q8 108 44 167q74 127 283 125q133 -2 230 -60t97 -176q0 -117 -97 -210q-40 -38 -80 -74q-99 -90 -98 -174t185 -210q70 -48 127 -125t57 -151q0 -187 -154 -249q-73 -30 -143 -25q-128 6 -192 63t-64 129t31 105t74 32q12 0 24 -2
q33 -8 17 -18q-47 -39 -47 -107q1 -68 37 -114t120 -47q168 0 172 174q2 63 -36 121t-92 99q-54 42 -108 83q-130 99 -130 186q0 58 39 116t85 99t84 116t38 157t-45 150t-136 69q-125 4 -167 -147t-43 -494q-2 -343 16 -541q18 -199 12 -208t-32 -6t-58 3l-178 -8
q-6 0 -6 24t6 25l57 -2q23 0 34 35q26 83 28 676v168z" />
    <glyph glyph-name="agrave" unicode="&#xe0;" horiz-adv-x="829" 
d="M347.5 41q60.5 0 126 94t77.5 205l6 168q-25 4 -74 4q-137 0 -196.5 -70.5t-59.5 -171t30 -165t90.5 -64.5zM535 162q-86 -180 -240 -180q-80 0 -149.5 61t-69.5 188q0 160 110.5 241t292.5 81h78q0 227 -34 320.5t-138 93.5q-70 0 -105.5 -48.5t-35.5 -96.5t8 -63.5
t-1.5 -26.5t-49.5 -7q-76 12 -76 90t66.5 135.5t208 57.5t216 -82t76.5 -201l-8 -317q0 -20 -1 -66.5t0 -73t2 -67.5t5 -64.5t12.5 -49.5t20.5 -37t30.5 -11t25.5 7t9 1q6 -29 -16.5 -46t-56.5 -17q-76 0 -122 49t-50 129h-8zM248 1218.5q-84 65.5 -41 131.5q23 35 45 28
q4 -2 6 -6q72 -123 197 -201q1 -2 -5 -12q-19 -30 -55 -22q-63 16 -147 81.5z" />
    <glyph glyph-name="aacute" unicode="&#xe1;" horiz-adv-x="829" 
d="M347.5 41q60.5 0 126 94t77.5 205l6 168q-25 4 -74 4q-137 0 -196.5 -70.5t-59.5 -171t30 -165t90.5 -64.5zM535 162q-86 -180 -240 -180q-80 0 -149.5 61t-69.5 188q0 160 110.5 241t292.5 81h78q0 227 -34 320.5t-138 93.5q-70 0 -105.5 -48.5t-35.5 -96.5t8 -63.5
t-1.5 -26.5t-49.5 -7q-76 12 -76 90t66.5 135.5t208 57.5t216 -82t76.5 -201l-8 -317q0 -20 -1 -66.5t0 -73t2 -67.5t5 -64.5t12.5 -49.5t20.5 -37t30.5 -11t25.5 7t9 1q6 -29 -16.5 -46t-56.5 -17q-76 0 -122 49t-50 129h-8zM274 1135l-18 14q-10 10 -2 22l197 201
q14 16 47 -16q49 -53 8 -105q-16 -18 -45 -32l-172 -86q-9 -4 -15 2z" />
    <glyph glyph-name="acircumflex" unicode="&#xe2;" horiz-adv-x="829" 
d="M347.5 41q60.5 0 126 94t77.5 205l6 168q-25 4 -74 4q-137 0 -196.5 -70.5t-59.5 -171t30 -165t90.5 -64.5zM535 162q-86 -180 -240 -180q-80 0 -149.5 61t-69.5 188q0 160 110.5 241t292.5 81h78q0 227 -34 320.5t-138 93.5q-70 0 -105.5 -48.5t-35.5 -96.5t8 -63.5
t-1.5 -26.5t-49.5 -7q-76 12 -76 90t66.5 135.5t208 57.5t216 -82t76.5 -201l-8 -317q0 -20 -1 -66.5t0 -73t2 -67.5t5 -64.5t12.5 -49.5t20.5 -37t30.5 -11t25.5 7t9 1q6 -29 -16.5 -46t-56.5 -17q-76 0 -122 49t-50 129h-8zM383.5 1382q19.5 0 22.5 -2
q37 -37 114.5 -120.5t91.5 -98.5q2 -2 -6 -7q-22 -14 -47 1l-174 113l-178 -107q-31 -14 -53 2q12 12 91 95t117 122q2 2 21.5 2z" />
    <glyph glyph-name="atilde" unicode="&#xe3;" horiz-adv-x="829" 
d="M347.5 41q60.5 0 126 94t77.5 205l6 168q-25 4 -74 4q-137 0 -196.5 -70.5t-59.5 -171t30 -165t90.5 -64.5zM535 162q-86 -180 -240 -180q-80 0 -149.5 61t-69.5 188q0 160 110.5 241t292.5 81h78q0 227 -34 320.5t-138 93.5q-70 0 -105.5 -48.5t-35.5 -96.5t8 -63.5
t-1.5 -26.5t-49.5 -7q-76 12 -76 90t66.5 135.5t208 57.5t216 -82t76.5 -201l-8 -317q0 -20 -1 -66.5t0 -73t2 -67.5t5 -64.5t12.5 -49.5t20.5 -37t30.5 -11t25.5 7t9 1q6 -29 -16.5 -46t-56.5 -17q-76 0 -122 49t-50 129h-8zM154 1167q-2 0 -10.5 -1t-17.5 13.5t-9 54.5
t38 70.5t96.5 30.5t167.5 -51t151.5 -51t65.5 21.5t23 60.5q2 0 10.5 1t17.5 -13.5t9 -38.5q0 -53 -41 -83t-99.5 -30t-165.5 51t-148.5 51t-64.5 -23.5t-23 -62.5z" />
    <glyph glyph-name="adieresis" unicode="&#xe4;" horiz-adv-x="829" 
d="M347.5 41q60.5 0 126 94t77.5 205l6 168q-25 4 -74 4q-137 0 -196.5 -70.5t-59.5 -171t30 -165t90.5 -64.5zM535 162q-86 -180 -240 -180q-80 0 -149.5 61t-69.5 188q0 160 110.5 241t292.5 81h78q0 227 -34 320.5t-138 93.5q-70 0 -105.5 -48.5t-35.5 -96.5t8 -63.5
t-1.5 -26.5t-49.5 -7q-76 12 -76 90t66.5 135.5t208 57.5t216 -82t76.5 -201l-8 -317q0 -20 -1 -66.5t0 -73t2 -67.5t5 -64.5t12.5 -49.5t20.5 -37t30.5 -11t25.5 7t9 1q6 -29 -16.5 -46t-56.5 -17q-76 0 -122 49t-50 129h-8zM512 1122q-84 0 -84 84t84 84t84 -84t-84 -84z
M252 1122q-84 0 -84 84t84 84t84 -84t-84 -84z" />
    <glyph glyph-name="aring" unicode="&#xe5;" horiz-adv-x="829" 
d="M347.5 41q60.5 0 126 94t77.5 205l6 168q-25 4 -74 4q-137 0 -196.5 -70.5t-59.5 -171t30 -165t90.5 -64.5zM535 162q-86 -180 -240 -180q-80 0 -149.5 61t-69.5 188q0 160 110.5 241t292.5 81h78q0 227 -34 320.5t-138 93.5q-70 0 -105.5 -48.5t-35.5 -96.5t8 -63.5
t-1.5 -26.5t-49.5 -7q-76 12 -76 90t66.5 135.5t208 57.5t216 -82t76.5 -201l-8 -317q0 -20 -1 -66.5t0 -73t2 -67.5t5 -64.5t12.5 -49.5t20.5 -37t30.5 -11t25.5 7t9 1q6 -29 -16.5 -46t-56.5 -17q-76 0 -122 49t-50 129h-8zM385 1438q-43 0 -70.5 -39t-27.5 -115
t27.5 -116t70.5 -40t70.5 40t27.5 116t-27.5 115t-70.5 39zM385 1092q-80 0 -136 56t-56 135t56 135.5t136 56.5t136.5 -56.5t56.5 -135.5t-56.5 -135t-136.5 -56z" />
    <glyph glyph-name="ae" unicode="&#xe6;" horiz-adv-x="1249" 
d="M483 512q-137 0 -196.5 -70.5t-59.5 -171t30 -165t90.5 -64.5t126 94t77.5 205l6 168q-25 4 -74 4zM907 975q-162 0 -174 -449q319 -31 320 201q0 104 -41.5 176t-104.5 72zM952 -20q-283 0 -352 282l-8 -14q-41 -129 -122 -197.5t-168 -68.5t-156.5 61t-69.5 188
q0 160 110.5 241t292.5 81h78q0 227 -34 320.5t-138 93.5q-70 0 -105.5 -48.5t-35.5 -96.5t8 -63.5t-1 -26.5t-50 -7q-76 12 -76 90t66.5 135.5t193.5 57.5q201 0 272 -140q84 152 250 152q106 0 195.5 -79t89.5 -230q0 -279 -459 -230v-20q0 -217 63.5 -327.5t161.5 -111
t172 110.5q2 4 16 -4q39 -21 15 -63q-53 -86 -209 -86z" />
    <glyph glyph-name="ccedilla" unicode="&#xe7;" horiz-adv-x="714" 
d="M430.5 -365q-63.5 0 -119.5 19q-12 6 -6 27q2 12 27 6t67.5 -6t69.5 27.5t24 71.5t-39 66.5t-62.5 23.5t-29.5 5l-10 14q-8 8 0 17l68 80q-145 10 -241.5 142t-96.5 388t104.5 380t247.5 124q109 0 164 -49t55 -125q0 -45 -20.5 -70.5t-41.5 -24.5q-59 3 -59 15
q23 27 23 85q0 124 -121 124q-90 0 -144 -123t-54 -344t60 -350t162.5 -129.5t153.5 110.5q2 4 16 -4q37 -21 15 -63q-47 -76 -174 -84l-49 -70q162 -12 170 -127q4 -66 -46 -111t-113.5 -45z" />
    <glyph glyph-name="egrave" unicode="&#xe8;" horiz-adv-x="751" 
d="M410 975q-162 0 -174 -449q319 -31 319 201q0 104 -41 176t-104 72zM455 -20q-373 0 -373 487q0 167 32 285q30 118 84 172q94 96 206 96t201 -79t89 -230q0 -279 -458 -230v-20q0 -217 63 -327.5t161.5 -111t172.5 110.5q3 4 17 -4q37 -21 14 -63q-53 -86 -209 -86z
M272 1212q-84 66 -41 131q23 35 45 29q4 -2 7 -6q72 -123 196 -201q2 -2 -4 -12q-40 -68 -203 59z" />
    <glyph glyph-name="eacute" unicode="&#xe9;" horiz-adv-x="751" 
d="M410 975q-162 0 -174 -449q319 -31 319 201q0 104 -41 176t-104 72zM455 -20q-373 0 -373 487q0 167 32 285q30 118 84 172q94 96 206 96t201 -79t89 -230q0 -279 -458 -230v-20q0 -217 63 -327.5t161.5 -111t172.5 110.5q3 4 17 -4q37 -21 14 -63q-53 -86 -209 -86z
M299 1128l-18 15q-10 10 -2 22l196 201q14 16 47 -16q49 -53 8 -105q-16 -18 -45 -33l-172 -86q-8 -4 -14 2z" />
    <glyph glyph-name="ecircumflex" unicode="&#xea;" horiz-adv-x="751" 
d="M410 975q-162 0 -174 -449q319 -31 319 201q0 104 -41 176t-104 72zM455 -20q-373 0 -373 487q0 167 32 285q30 118 84 172q94 96 206 96t201 -79t89 -230q0 -279 -458 -230v-20q0 -217 63 -327.5t161.5 -111t172.5 110.5q3 4 17 -4q37 -21 14 -63q-53 -86 -209 -86z
M408.5 1376q19.5 0 21.5 -2q37 -37 115 -121t92 -98q2 -2 -6 -7q-22 -14 -47 1l-174 113l-179 -107q-31 -14 -53 2q12 12 91 95t118 122q2 2 21.5 2z" />
    <glyph glyph-name="edieresis" unicode="&#xeb;" horiz-adv-x="751" 
d="M410 975q-162 0 -174 -449q319 -31 319 201q0 104 -41 176t-104 72zM455 -20q-373 0 -373 487q0 167 32 285q30 118 84 172q94 96 206 96t201 -79t89 -230q0 -279 -458 -230v-20q0 -217 63 -327.5t161.5 -111t172.5 110.5q3 4 17 -4q37 -21 14 -63q-53 -86 -209 -86z
M537 1116q-84 0 -84 84t84 84t84 -84t-84 -84zM276.5 1116q-83.5 0 -83.5 84t83.5 84t83.5 -84t-83.5 -84z" />
    <glyph glyph-name="igrave" unicode="&#xec;" horiz-adv-x="528" 
d="M68 981q174 0 219 7t45 -38q0 -12 -9.5 -179.5t-9.5 -330.5t8.5 -257.5t19.5 -115t34 -20.5h55q8 0 6 -23.5t-6 -23.5l-180 8l-178 -8q-6 0 -6 24.5t6 24.5q18 -2 49 -2q31 1 42 25q27 60 27 358.5t-13 402t-50 103.5l-57 -4q-11 0 -9 24.5t7 24.5zM303 1138
q-39 -68 -203 60q-84 66 -41 131q23 35 45 29q4 -2 7 -6q72 -123 196 -201q2 -3 -4 -13z" />
    <glyph glyph-name="iacute" unicode="&#xed;" horiz-adv-x="528" 
d="M68 981q174 0 219 7t45 -38q0 -12 -9.5 -179.5t-9.5 -330.5t8.5 -257.5t19.5 -115t34 -20.5h55q8 0 6 -23.5t-6 -23.5l-180 8l-178 -8q-6 0 -6 24.5t6 24.5q18 -2 49 -2q31 1 42 25q27 60 27 358.5t-13 402t-50 103.5l-57 -4q-11 0 -9 24.5t7 24.5zM109 1128
q-10 10 -3 23l197 201q14 16 47 -17q49 -53 8 -104q-16 -18 -45 -33l-172 -86q-8 -4 -14 2z" />
    <glyph glyph-name="icircumflex" unicode="&#xee;" horiz-adv-x="528" 
d="M68 981q174 0 219 7t45 -38q0 -12 -9.5 -179.5t-9.5 -330.5t8.5 -257.5t19.5 -115t34 -20.5h55q8 0 6 -23.5t-6 -23.5l-180 8l-178 -8q-6 0 -6 24.5t6 24.5q18 -2 49 -2q31 1 42 25q27 60 27 358.5t-13 402t-50 103.5l-57 -4q-11 0 -9 24.5t7 24.5zM236.5 1362
q19.5 0 21.5 -2q37 -37 115 -121t92 -98q2 -1 -6 -7q-22 -15 -47 1l-174 112l-179 -106q-31 -14 -53 2q12 12 91 95t118 122q2 2 21.5 2z" />
    <glyph glyph-name="idieresis" unicode="&#xef;" horiz-adv-x="528" 
d="M68 981q174 0 219 7t45 -38q0 -12 -9.5 -179.5t-9.5 -330.5t8.5 -257.5t19.5 -115t34 -20.5h55q8 0 6 -23.5t-6 -23.5l-180 8l-178 -8q-6 0 -6 24.5t6 24.5q18 -2 49 -2q31 1 42 25q27 60 27 358.5t-13 402t-50 103.5l-57 -4q-11 0 -9 24.5t7 24.5zM365 1102
q-84 0 -84 84t84 84t84 -84t-84 -84zM104 1102q-84 0 -84 84t84 84t84 -84t-84 -84z" />
    <glyph glyph-name="eth" unicode="&#xf0;" horiz-adv-x="1003" 
d="M512 29q203 0 223 493q-2 205 -62.5 320.5t-161.5 115.5t-157.5 -118.5t-56.5 -346t49 -346t166 -118.5zM881 639q0 -172 -27 -298t-63.5 -192.5t-92 -105.5t-97.5 -48t-91 -9q-156 0 -251 128t-95 389t99 381t244.5 120t213.5 -138q-41 289 -193 441q-12 -12 -43.5 -47
t-46.5 -50q-4 -4 -14 8q-29 34 -8 56q4 4 29.5 26.5t43.5 40.5q-100 78 -198 78q-10 0 -2 20.5t33 20.5q106 -4 219 -67q23 25 80 82q4 5 15 -7q27 -29 9 -55l-57 -51q293 -207 293 -723z" />
    <glyph glyph-name="ntilde" unicode="&#xf1;" horiz-adv-x="995" 
d="M950 47q4 0 4 -23.5t-6 -23.5l-190 8l-178 -8q-6 0 -6.5 24.5t6.5 24.5l57 -2q23 1 35 21q30 51 30 392t-20 429t-97 88t-137 -93q-112 -172 -122 -446q4 -328 28 -372q10 -18 33 -19h55q10 0 7 -23.5t-7 -23.5l-180 8l-178 -8q-6 0 -6 24.5t6 24.5q18 -2 49 -2
q31 1 42 27q28 67 28 379.5t-13.5 397.5t-50.5 85l-57 -4q-10 0 -8 24.5t6 24.5q143 0 185 6t50 -37q8 -33 11 -135h10q90 207 268 207q229 0 230 -262l-9 -268q-7 -143 2 -264.5t21 -145t21.5 -28.5t17.5 -7t33.5 -1t29.5 1zM258 1188q-2 0 -10 -1t-17.5 13t-9.5 54t38 71
t96.5 31t168 -51.5t151.5 -51.5t65.5 21.5t23.5 60.5q2 0 10 1t17.5 -13t9.5 -39q0 -53 -41 -83t-99.5 -30t-166 51.5t-148.5 51.5t-64.5 -23.5t-23.5 -62.5z" />
    <glyph glyph-name="ograve" unicode="&#xf2;" horiz-adv-x="839" 
d="M420 29q184 0 184 465t-184 464.5t-184 -465t184 -464.5zM418 -14q-150 0 -243 129t-93 390t94 380t252 119q330 0 330 -492q0 -526 -340 -526zM485 1155q-40 -67 -202 59q-84 66 -41 132q23 35 45 28q4 -2 6 -6q72 -123 196 -201q2 -2 -4 -12z" />
    <glyph glyph-name="oacute" unicode="&#xf3;" horiz-adv-x="839" 
d="M420 29q184 0 184 465t-184 464.5t-184 -465t184 -464.5zM418 -14q-150 0 -243 129t-93 390t94 380t252 119q330 0 330 -492q0 -526 -340 -526zM291 1145q-10 10 -2 22l196 201q14 16 47 -16q49 -53 9 -105q-16 -18 -45 -33l-172 -86q-8 -4 -15 2z" />
    <glyph glyph-name="ocircumflex" unicode="&#xf4;" horiz-adv-x="839" 
d="M420 29q184 0 184 465t-184 464.5t-184 -465t184 -464.5zM418 -14q-150 0 -243 129t-93 390t94 380t252 119q330 0 330 -492q0 -526 -340 -526zM418.5 1378q19.5 0 21.5 -2q37 -37 115 -121t92 -98q2 -2 -6 -7q-22 -14 -47 1l-174 113l-178 -107q-31 -14 -54 2
q12 12 91 95t118 122q2 2 21.5 2z" />
    <glyph glyph-name="otilde" unicode="&#xf5;" horiz-adv-x="839" 
d="M420 29q184 0 184 465t-184 464.5t-184 -465t184 -464.5zM418 -14q-150 0 -243 129t-93 390t94 380t252 119q330 0 330 -492q0 -526 -340 -526zM285.5 1331q58.5 0 168 -51t151.5 -51t65.5 21.5t23.5 60.5q2 0 10.5 1t17.5 -13.5t9 -38.5q0 -53 -41 -83t-99.5 -30
t-166 51t-148.5 51t-64.5 -23.5t-23.5 -62.5q-2 0 -10 -1t-17 13.5t-9 38.5q0 55 37.5 86t96 31z" />
    <glyph glyph-name="odieresis" unicode="&#xf6;" horiz-adv-x="839" 
d="M420 29q184 0 184 465t-184 464.5t-184 -465t184 -464.5zM418 -14q-150 0 -243 129t-93 390t94 380t252 119q330 0 330 -492q0 -526 -340 -526zM547 1118q-84 0 -84 84t84 84t84 -84t-84 -84zM287 1118q-84 0 -84 84t84 84t84 -84t-84 -84z" />
    <glyph glyph-name="divide" unicode="&#xf7;" horiz-adv-x="690" 
d="M334 270q-70 0 -70 70t70 70t70 -70t-70 -70zM565 566q0 -14 -7 -34q-6 -18 -26 -22t-215 -1t-256 -9q-7 7 2 35t17 32q26 10 220 5t263 10q2 -2 2 -16zM340 631q-70 -1 -70 69t70 70t70 -70t-70 -69z" />
    <glyph glyph-name="oslash" unicode="&#xf8;" horiz-adv-x="819" 
d="M426 29q184 0 184 477q0 164 -22 262l-131 -272q-94 -197 -166 -357q45 -110 135 -110zM242 506q0 -164 22 -277q138 268 293 635q-47 94 -131 94q-184 1 -184 -452zM424 -14q-104 0 -178 59q-6 -10 -17.5 -34.5t-17.5 -35t-21 -6.5l-45 19q-16 6 -8 18q35 53 58 92
q-106 137 -106.5 402.5t93.5 384.5t244 119q104 0 174 -43q8 23 19.5 44t25.5 15l43 -21q14 -6 8 -18q-25 -49 -37 -72q104 -117 105 -397q0 -526 -340 -526z" />
    <glyph glyph-name="ugrave" unicode="&#xf9;" 
d="M557 981q164 0 209 7t45 -38q0 -37 -11 -300t-4 -411.5t23 -168t84 -19.5q6 0 6 -24.5t-6 -24.5l-149 -8q-63 -2 -74.5 5t-13.5 52v123h-2q-33 -74 -97.5 -135.5t-167.5 -61.5q-229 0 -229 263l8 321q0 213 -13 294t-46 81l-58 -4q-10 0 -8 24.5t6 24.5q166 0 211 7
t45 -38q0 -23 -14 -391q0 -344 20.5 -440t100.5 -96q70 1 127 83q108 157 127 414v62q0 199 -13.5 276.5t-46.5 77.5l-57 -4q-10 0 -8 24.5t6 24.5zM311 1214.5q-84 65.5 -41 131.5q23 35 45 28q4 -2 7 -6q72 -123 196 -201q2 -2 -4 -12t-21.5 -18.5t-33.5 -3.5
q-64 16 -148 81.5z" />
    <glyph glyph-name="uacute" unicode="&#xfa;" 
d="M557 981q164 0 209 7t45 -38q0 -37 -11 -300t-4 -411.5t23 -168t84 -19.5q6 0 6 -24.5t-6 -24.5l-149 -8q-63 -2 -74.5 5t-13.5 52v123h-2q-33 -74 -97.5 -135.5t-167.5 -61.5q-229 0 -229 263l8 321q0 213 -13 294t-46 81l-58 -4q-10 0 -8 24.5t6 24.5q166 0 211 7
t45 -38q0 -23 -14 -391q0 -344 20.5 -440t100.5 -96q70 1 127 83q108 157 127 414v62q0 199 -13.5 276.5t-46.5 77.5l-57 -4q-10 0 -8 24.5t6 24.5zM338 1130l-19 15q-10 10 -2 22l197 201q14 16 47 -16q49 -53 8 -105q-16 -18 -45 -33l-172 -86q-8 -4 -14 2z" />
    <glyph glyph-name="ucircumflex" unicode="&#xfb;" 
d="M557 981q164 0 209 7t45 -38q0 -37 -11 -300t-4 -411.5t23 -168t84 -19.5q6 0 6 -24.5t-6 -24.5l-149 -8q-63 -2 -74.5 5t-13.5 52v123h-2q-33 -74 -97.5 -135.5t-167.5 -61.5q-229 0 -229 263l8 321q0 213 -13 294t-46 81l-58 -4q-10 0 -8 24.5t6 24.5q166 0 211 7
t45 -38q0 -23 -14 -391q0 -344 20.5 -440t100.5 -96q70 1 127 83q108 157 127 414v62q0 199 -13.5 276.5t-46.5 77.5l-57 -4q-10 0 -8 24.5t6 24.5zM447.5 1378q19.5 0 21.5 -2q37 -37 115 -121t92 -98q2 -2 -6 -7q-22 -14 -47 1l-174 113l-179 -107q-31 -14 -53 2
q12 12 91 95t118 122q2 2 21.5 2z" />
    <glyph glyph-name="udieresis" unicode="&#xfc;" 
d="M557 981q164 0 209 7t45 -38q0 -37 -11 -300t-4 -411.5t23 -168t84 -19.5q6 0 6 -24.5t-6 -24.5l-149 -8q-63 -2 -74.5 5t-13.5 52v123h-2q-33 -74 -97.5 -135.5t-167.5 -61.5q-229 0 -229 263l8 321q0 213 -13 294t-46 81l-58 -4q-10 0 -8 24.5t6 24.5q166 0 211 7
t45 -38q0 -23 -14 -391q0 -344 20.5 -440t100.5 -96q70 1 127 83q108 157 127 414v62q0 199 -13.5 276.5t-46.5 77.5l-57 -4q-10 0 -8 24.5t6 24.5zM575.5 1118q-83.5 0 -83.5 84t83.5 84t83.5 -84t-83.5 -84zM315 1118q-84 0 -84 84t84 84t84 -84t-84 -84z" />
    <glyph glyph-name="yacute" unicode="&#xfd;" horiz-adv-x="892" 
d="M870 967.5q0 -23.5 -6 -23.5l-69 2q-20 0 -46 -62.5t-112.5 -317.5t-153.5 -441q-92 -229 -190 -352t-223 -135q-60 -6 -102 18q-59 34 -50 112q4 35 19 27q74 -45 153 -35q158 16 295 269q-125 451 -142 505t-30.5 99t-22 71.5t-19.5 61.5t-19.5 54.5t-18.5 43.5
q-13 31 -35 53.5t-47.5 21.5t-56.5 -1q-6 0 -6 24.5t6 24.5q106 -4 186 -4h2l187 4q8 0 6 -25.5t-6 -25.5q-12 2 -39 2q-31 2 -35 -35q-8 -72 43 -265.5t117 -418.5h12l55 170q115 347 126 489q5 62 -13 68l-49 -2q-6 0 -6 23.5t6 23.5l139 -6q80 0 139 6q6 0 6 -23.5z
M373 1110l-19 14q-10 10 -2 23l197 201q14 16 47 -17q49 -53 8 -104q-16 -18 -45 -33l-172 -86q-8 -4 -14 2z" />
    <glyph glyph-name="thorn" unicode="&#xfe;" horiz-adv-x="839" 
d="M441 23q184 0 184 499q0 455 -125 455q-82 0 -145.5 -172t-75.5 -352v-80q0 -209 2 -289q73 -61 160 -61zM33 1421q119 0 166 4t56 -3t16 -40.5t8 -636.5h8q68 277 213 277q29 0 55.5 -6t64.5 -36q138 -107 138 -452q0 -158 -32 -271.5t-84 -169.5q-98 -105 -196 -105
t-163 36q3 -266 29 -306q10 -14 28 -15h55q8 0 6 -23.5t-6 -23.5l-180 8l-178 -8q-6 0 -6 24.5t6 24.5l57 -2q23 -1 34 33q28 85 28 643q0 1004 -64 1003l-57 -4q-10 0 -8 24.5t6 24.5z" />
    <glyph glyph-name="ydieresis" unicode="&#xff;" horiz-adv-x="892" 
d="M870 967.5q0 -23.5 -6 -23.5l-69 2q-20 0 -46 -62.5t-112.5 -317.5t-153.5 -441q-92 -229 -190 -352t-223 -135q-60 -6 -102 18q-59 34 -50 112q4 35 19 27q74 -45 153 -35q158 16 295 269q-125 451 -142 505t-30.5 99t-22 71.5t-19.5 61.5t-19.5 54.5t-18.5 43.5
q-13 31 -35 53.5t-47.5 21.5t-56.5 -1q-6 0 -6 24.5t6 24.5q106 -4 186 -4h2l187 4q8 0 6 -25.5t-6 -25.5q-12 2 -39 2q-31 2 -35 -35q-8 -72 43 -265.5t117 -418.5h12l55 170q115 347 126 489q5 62 -13 68l-49 -2q-6 0 -6 23.5t6 23.5l139 -6q80 0 139 6q6 0 6 -23.5z
M610 1098q-84 0 -84 84t84 84t84 -84t-84 -84zM350 1098q-84 0 -84 84t84 84t84 -84t-84 -84z" />
    <glyph glyph-name="Amacron" unicode="&#x100;" horiz-adv-x="997" 
d="M299 459q51 -2 142 -2h206l-172 704h-12q-106 -430 -164 -702zM936 43q31 0 51 2q8 0 8 -24.5t-8 -24.5l-168 8h-2l-178 -8q-8 0 -8 25.5t8 25.5l39 -2q23 -3 31 15q19 42 -50 337q-204 23 -372 2q-76 -348 -35 -356l53 2q8 0 8 -23.5t-8 -23.5l-153 6q-90 0 -129 -6
q-8 0 -11.5 11t-0.5 23.5t12 12.5l49 -2q41 0 126 312.5t263 1047.5q7 25 55 31h14l215 -879q103 -429 145 -489q16 -22 46 -23zM227 1645q0 14 15 14l280 -4h2l260 4q14 0 15 -12v-37q0 -12 -15 -13l-260 5h-2l-280 -5q-14 0 -15 15v33z" />
    <glyph glyph-name="amacron" unicode="&#x101;" horiz-adv-x="829" 
d="M347.5 41q60.5 0 126 94t77.5 205l6 168q-25 4 -74 4q-137 0 -196.5 -70.5t-59.5 -171t30 -165t90.5 -64.5zM535 162q-86 -180 -240 -180q-80 0 -149.5 61t-69.5 188q0 160 110.5 241t292.5 81h78q0 227 -34 320.5t-138 93.5q-70 0 -105.5 -48.5t-35.5 -96.5t8 -63.5
t-1.5 -26.5t-49.5 -7q-76 12 -76 90t66.5 135.5t208 57.5t216 -82t76.5 -201l-8 -317q0 -20 -1 -66.5t0 -73t2 -67.5t5 -64.5t12.5 -49.5t20.5 -37t30.5 -11t25.5 7t9 1q6 -29 -16.5 -46t-56.5 -17q-76 0 -122 49t-50 129h-8zM115 1186v33q0 14 14 14l281 -4h2l260 4
q14 0 14 -12v-37q0 -12 -14 -13l-260 5h-2l-281 -5q-14 0 -14 15z" />
    <glyph glyph-name="Abreve" unicode="&#x102;" horiz-adv-x="997" 
d="M299 459q51 -2 142 -2h206l-172 704h-12q-106 -430 -164 -702zM936 43q31 0 51 2q8 0 8 -24.5t-8 -24.5l-168 8h-2l-178 -8q-8 0 -8 25.5t8 25.5l39 -2q23 -3 31 15q19 42 -50 337q-204 23 -372 2q-76 -348 -35 -356l53 2q8 0 8 -23.5t-8 -23.5l-153 6q-90 0 -129 -6
q-8 0 -11.5 11t-0.5 23.5t12 12.5l49 -2q41 0 126 312.5t263 1047.5q7 25 55 31h14l215 -879q103 -429 145 -489q16 -22 46 -23zM498 1532q-92 0 -147.5 51t-55.5 143q0 16 14 17h25q12 0 12 -12q0 -51 45 -84t106.5 -33t106.5 32.5t45 84.5q0 12 13 12h24q14 0 14 -17
q0 -92 -55 -143t-147 -51z" />
    <glyph glyph-name="abreve" unicode="&#x103;" horiz-adv-x="829" 
d="M347.5 41q60.5 0 126 94t77.5 205l6 168q-25 4 -74 4q-137 0 -196.5 -70.5t-59.5 -171t30 -165t90.5 -64.5zM535 162q-86 -180 -240 -180q-80 0 -149.5 61t-69.5 188q0 160 110.5 241t292.5 81h78q0 227 -34 320.5t-138 93.5q-70 0 -105.5 -48.5t-35.5 -96.5t8 -63.5
t-1.5 -26.5t-49.5 -7q-76 12 -76 90t66.5 135.5t208 57.5t216 -82t76.5 -201l-8 -317q0 -20 -1 -66.5t0 -73t2 -67.5t5 -64.5t12.5 -49.5t20.5 -37t30.5 -11t25.5 7t9 1q6 -29 -16.5 -46t-56.5 -17q-76 0 -122 49t-50 129h-8zM385 1106q-92 0 -147.5 51t-55.5 143
q0 16 15 17h24q12 0 12 -12q0 -51 45.5 -84t106.5 -33t106.5 32.5t45.5 84.5q0 12 12 12h24q14 0 15 -17q0 -92 -55.5 -143t-147.5 -51z" />
    <glyph glyph-name="Aogonek" unicode="&#x104;" horiz-adv-x="997" 
d="M299 459q51 -2 142 -2h206l-172 704h-12q-106 -430 -164 -702zM936 43q31 0 51 2q8 -1 9 -19q2 -30 -9 -30q-66 -33 -98.5 -83t-32.5 -98t27.5 -82t68 -34t64.5 6t26 -6q7 -20 -6 -27q-55 -18 -118.5 -18t-111.5 45t-48 111q0 119 168 188l-107 6h-2l-178 -8
q-8 0 -8 25.5t8 25.5l39 -2q23 -3 31 15q19 42 -50 337q-204 23 -372 2q-76 -348 -35 -356l53 2q8 0 8 -23.5t-8 -23.5l-153 6q-90 0 -129 -6q-8 0 -11.5 11t-0.5 23.5t12 12.5l49 -2q41 0 126 312.5t263 1047.5q7 25 55 31h14l215 -879q103 -429 145 -489q16 -22 46 -23z
" />
    <glyph glyph-name="aogonek" unicode="&#x105;" horiz-adv-x="829" 
d="M347.5 41q60.5 0 126 94t77.5 205l6 168q-25 4 -74 4q-137 0 -196.5 -70.5t-59.5 -171t30 -165t90.5 -64.5zM535 162q-86 -180 -240 -180q-80 0 -149.5 61t-69.5 188q0 160 110.5 241t292.5 81h78q0 227 -34 320.5t-138 93.5q-70 0 -105.5 -48.5t-35.5 -96.5t8 -63.5
t-1.5 -26.5t-49.5 -7q-76 12 -76 90t66.5 135.5t208 57.5t216 -82t76.5 -201l-8 -317q0 -20 -1 -66.5t0 -73t2 -67.5t5 -64.5t12.5 -49.5t20.5 -37t30.5 -11t25.5 7t9 1q6 -29 -16.5 -46t-56.5 -17h-10q-109 -65 -109 -170q0 -47 27.5 -81t67.5 -34t64.5 6t26.5 -6
q7 -20 -6 -27q-55 -18 -118.5 -18t-111.5 45t-48 111q0 115 157 184q-102 35 -112 168h-8z" />
    <glyph glyph-name="Cacute" unicode="&#x106;" horiz-adv-x="864" 
d="M528 -39q-418 0 -417 719q0 188 29.5 333.5t72.5 226.5t103.5 132t111.5 67.5t107.5 16.5t106.5 -15.5t60 -15.5q21 0 46 58q9 9 22.5 0.5t11.5 -15.5q-39 -117 -39 -284q0 -8 -11 -11.5t-21.5 1t-10.5 8.5q0 106 -8 133q-29 96 -143 96t-202 -156q-89 -156 -89 -577
q0 -676 274 -676q123 0 170 145q8 -2 21.5 -5t30 -20.5t6.5 -39.5q-23 -49 -84.5 -85t-147.5 -36zM387 1602q-10 10 -2 22l197 201q14 16 47 -17q49 -53 8 -104q-16 -18 -45 -33l-172 -86q-8 -4 -14 2z" />
    <glyph glyph-name="cacute" unicode="&#x107;" horiz-adv-x="714" 
d="M438.5 -14q-150.5 0 -253.5 132t-103 393t104.5 385t247.5 124q109 0 164 -49t55 -125q0 -45 -20.5 -70.5t-41.5 -24.5q-59 3 -59 15q23 27 23 85q0 124 -121 124q-90 0 -144 -123t-54 -344t60 -350t163 -129t153 110q2 4 16 -4q37 -21 15 -63q-54 -86 -204.5 -86z
M311 1145q-10 10 -2 22l197 201q14 16 47 -16q49 -53 8 -105q-16 -18 -45 -33l-172 -86q-8 -4 -14 2z" />
    <glyph glyph-name="Cdotaccent" unicode="&#x10a;" horiz-adv-x="864" 
d="M528 -39q-418 0 -417 719q0 188 29.5 333.5t72.5 226.5t103.5 132t111.5 67.5t107.5 16.5t106.5 -15.5t60 -15.5q21 0 46 58q9 9 22.5 0.5t11.5 -15.5q-39 -117 -39 -284q0 -8 -11 -11.5t-21.5 1t-10.5 8.5q0 106 -8 133q-29 96 -143 96t-202 -156q-89 -156 -89 -577
q0 -676 274 -676q123 0 170 145q8 -2 21.5 -5t30 -20.5t6.5 -39.5q-23 -49 -84.5 -85t-147.5 -36zM506 1581q-92 0 -92 92t92 92t92 -92t-92 -92z" />
    <glyph glyph-name="cdotaccent" unicode="&#x10b;" horiz-adv-x="714" 
d="M438.5 -14q-150.5 0 -253.5 132t-103 393t104.5 385t247.5 124q109 0 164 -49t55 -125q0 -45 -20.5 -70.5t-41.5 -24.5q-59 3 -59 15q23 27 23 85q0 124 -121 124q-90 0 -144 -123t-54 -344t60 -350t163 -129t153 110q2 4 16 -4q37 -21 15 -63q-54 -86 -204.5 -86z
M430 1124q-92 0 -92 92.5t92 92.5t92 -92.5t-92 -92.5z" />
    <glyph glyph-name="Ccaron" unicode="&#x10c;" horiz-adv-x="864" 
d="M528 -39q-418 0 -417 719q0 188 29.5 333.5t72.5 226.5t103.5 132t111.5 67.5t107.5 16.5t106.5 -15.5t60 -15.5q21 0 46 58q9 9 22.5 0.5t11.5 -15.5q-39 -117 -39 -284q0 -8 -11 -11.5t-21.5 1t-10.5 8.5q0 106 -8 133q-29 96 -142.5 96t-202.5 -156.5t-89 -576.5
q0 -676 274 -676q123 0 170 145q8 -2 21.5 -5t30 -20.5t6.5 -39.5q-23 -49 -84.5 -85t-147.5 -36zM514.5 1569q-18.5 0 -22.5 4q-39 45 -124 130t-85 87q-7 7 4.5 21t21.5 8l205 -150l205 150q13 8 21.5 -5.5t0.5 -21.5t-51 -53l-86 -90t-69 -76q-2 -4 -20.5 -4z" />
    <glyph glyph-name="ccaron" unicode="&#x10d;" horiz-adv-x="714" 
d="M438.5 -14q-150.5 0 -253.5 132t-103 393t104.5 385t247.5 124q109 0 164 -49t55 -125q0 -45 -20.5 -70.5t-41.5 -24.5q-59 3 -59 15q23 27 23 85q0 124 -121 124q-90 0 -144 -123t-54 -344t60 -350t163 -129t153 110q2 4 16 -4q37 -21 15 -63q-54 -86 -204.5 -86z
M437.5 1112q-17.5 0 -21.5 4q-39 45 -125 131l-84 86q-8 8 4 21.5t22 7.5l205 -150l205 150q13 8 22 -5t0.5 -21.5t-51.5 -53.5l-86 -90t-69 -76q-4 -4 -21.5 -4z" />
    <glyph glyph-name="Dcaron" unicode="&#x10e;" horiz-adv-x="1101" 
d="M844 676q0 427 -93.5 584t-197.5 157q-53 0 -83 -24.5t-52.5 -121.5t-22.5 -282v-567q0 -231 4 -285.5t22.5 -76.5t92.5 -34t125 -6q205 25 205 656zM344 1430q8 0 84 14t127 14t103.5 -16.5t115 -67.5t108.5 -133t77.5 -227.5t31.5 -330.5t-26.5 -319.5t-63.5 -205
t-89 -113.5t-91 -54t-80 -11l-309 24l-178 -8q-6 0 -6.5 24.5t6.5 24.5l57 -2q23 1 34 19q27 45 27 360v569q0 335 -28 381q-12 20 -33 19l-57 -2q-15 0 -11 24.5t11 24.5q53 -8 190 -8zM579.5 1542q-18.5 0 -22.5 4q-39 45 -124 130t-85 87q-8 8 4 21.5t23 7.5l205 -150
l204 150q13 8 22 -5t1 -21.5t-51 -53.5l-86 -90t-70 -76q-2 -4 -20.5 -4z" />
    <glyph glyph-name="dcaron" unicode="&#x10f;" horiz-adv-x="907" 
d="M604 713v22q0 100 -55 174t-121 74q-92 0 -142 -136t-50 -402q0 -267 72 -369q33 -48 73 -47q90 0 151.5 174t69.5 360q2 47 2 150zM471 1382.5q0 24.5 4 24.5q39 0 205 27q51 8 51 -37q0 -4 -5 -122.5t-5 -429.5t3 -443t7 -203.5t14.5 -106.5t17.5 -42t21 -7h56
q6 0 6 -23.5t-6 -23.5q-31 0 -94.5 4t-83.5 2t-36 -1q-30 2 -33 41.5t-3 133.5q-80 -193 -209 -192q-35 0 -66.5 6t-76.5 34.5t-77 75.5t-55.5 139.5t-23.5 217.5q0 291 89 429t249 138q45 0 97 -25.5t87 -68.5q-4 342 -30 406q-12 30 -35 30l-58 -8q-10 0 -10 24.5z
M943 1442q42 0 68.5 -31t24.5 -93.5t-43 -127t-90 -96.5q-2 -2 -8 2.5t-2 19.5q45 104 -19 170q-30 30 -30 68.5t28.5 63t70.5 24.5z" />
    <glyph glyph-name="Dcroat" unicode="&#x110;" horiz-adv-x="1101" 
d="M844 676q0 427 -93.5 584t-197.5 157q-53 0 -83 -24.5t-52.5 -121.5t-22.5 -282v-112q76 0 131 12q2 -2 2 -15.5t-7 -30t-26.5 -21.5t-99.5 -1v-399q0 -231 4 -285.5t22.5 -76.5t92.5 -34t125 -6q205 25 205 656zM344 1430q8 0 84 14t127 14t103.5 -16.5t115 -67.5
t108.5 -133t77.5 -227.5t31.5 -330.5t-26.5 -319.5t-63.5 -205t-89 -113.5t-91 -54t-80 -11l-309 24l-178 -8q-6 0 -6.5 24.5t6.5 24.5l57 -2q23 1 34 19q27 45 27 360v401q-96 0 -145 -10q-7 7 1.5 32t16.5 29q25 10 127 7v110q0 335 -28 381q-12 20 -33 19l-57 -2
q-15 0 -11 24.5t11 24.5q53 -8 190 -8z" />
    <glyph glyph-name="dcroat" unicode="&#x111;" horiz-adv-x="907" 
d="M604 713v22q0 100 -55 174t-121 74q-92 0 -142 -136t-50 -402q0 -267 72 -369q33 -48 73 -47q90 0 151.5 174t69.5 360q2 47 2 150zM471 1382.5q0 24.5 4 24.5q39 0 205 27q51 8 51 -37q0 -18 -6 -178q49 8 92 26q2 0 6 -28.5t-17.5 -37.5t-80.5 -20q-4 -197 -4 -411
t3 -346t7 -203.5t14.5 -106.5t17.5 -42t21 -7h56q6 0 6 -23.5t-6 -23.5q-31 0 -94.5 4t-83.5 2t-36 -1q-30 2 -33 41.5t-3 133.5q-80 -193 -209 -192q-35 0 -66.5 6t-76.5 34.5t-77 75.5t-55.5 139.5t-23.5 217.5q0 291 89 429t249 138q45 0 97 -25.5t87 -68.5l-6 211
q-119 -20 -162 -39l-4 31q4 25 18 35.5t146 29.5q-8 100 -20.5 134t-36.5 34l-58 -8q-10 0 -10 24.5z" />
    <glyph glyph-name="Emacron" unicode="&#x112;" horiz-adv-x="1052" 
d="M391 422q0 -245 14.5 -278t27.5 -54.5t53.5 -32t139.5 -10.5t142 39t72.5 169t29.5 132q8 35 39 31l9 -4q-12 -70 -23 -199v-201q0 -20 -21 -20l-397 8q-76 2 -148.5 2t-178.5 -8q-6 0 -6.5 24.5t6.5 24.5l57 -2q23 1 34 19q27 45 27 360v592q0 316 -28 360
q-12 18 -32.5 17.5t-57.5 -0.5q-9 0 -7 24.5t7 24.5q106 -8 239.5 -8t478.5 10q10 2 15.5 -4t5.5 -17q-8 -66 -8 -145.5t6 -181.5l-6 -4q-31 -2 -37 26q-21 159 -55.5 217t-192.5 58q-53 0 -84 -3.5t-55.5 -20.5t-35.5 -37q-30 -53 -30 -316v-359l260 7q10 0 10.5 -35
t-10.5 -35l-260 8v-178zM256 1612v33q0 14 14 14l281 -4h2l260 4q14 0 14 -12v-37q0 -12 -14 -13l-260 5h-2l-281 -5q-14 0 -14 15z" />
    <glyph glyph-name="emacron" unicode="&#x113;" horiz-adv-x="751" 
d="M410 975q-162 0 -174 -449q319 -31 319 201q0 104 -41 176t-104 72zM694 711q0 -279 -458 -230v-20q0 -217 63 -327.5t161.5 -110.5t172.5 110q3 4 17 -4q37 -21 14 -63q-53 -86 -209 -86q-373 0 -373 487q0 167 32 285q30 118 84 172q94 96 206 96t201 -78.5t89 -230.5z
M711 1178q0 -12 -15 -13l-260 4h-2l-280 -4q-14 0 -15 15v32q0 14 15 15l280 -4h2l260 4q14 0 15 -13v-36z" />
    <glyph glyph-name="Edotaccent" unicode="&#x116;" horiz-adv-x="1052" 
d="M391 422q0 -245 14.5 -278t27.5 -54.5t53.5 -32t139.5 -10.5t142 39t72.5 169t29.5 132q8 35 39 31l9 -4q-12 -70 -23 -199v-201q0 -20 -21 -20l-397 8q-76 2 -148.5 2t-178.5 -8q-6 0 -6.5 24.5t6.5 24.5l57 -2q23 1 34 19q27 45 27 360v592q0 316 -28 360
q-12 18 -32.5 17.5t-57.5 -0.5q-9 0 -7 24.5t7 24.5q106 -8 239.5 -8t478.5 10q10 2 15.5 -4t5.5 -17q-8 -66 -8 -145.5t6 -181.5l-6 -4q-31 -2 -37 26q-21 159 -55.5 217t-192.5 58q-53 0 -84 -3.5t-55.5 -20.5t-35.5 -37q-30 -53 -30 -316v-359l260 7q10 0 10.5 -35
t-10.5 -35l-260 8v-178zM516 1554q-92 0 -92 92.5t92 92.5t92 -92.5t-92 -92.5z" />
    <glyph glyph-name="edotaccent" unicode="&#x117;" horiz-adv-x="751" 
d="M410 975q-162 0 -174 -449q319 -31 319 201q0 104 -41 176t-104 72zM455 -20q-373 0 -373 487q0 167 32 285q30 118 84 172q94 96 206 96t201 -79t89 -230q0 -279 -458 -230v-20q0 -217 63 -327.5t161.5 -111t172.5 110.5q3 4 17 -4q37 -21 14 -63q-53 -86 -209 -86z
M399.5 1122q-92.5 0 -92.5 92.5t92.5 92.5t92.5 -92.5t-92.5 -92.5z" />
    <glyph glyph-name="Eogonek" unicode="&#x118;" horiz-adv-x="1052" 
d="M391 422q0 -245 14.5 -278t27.5 -54.5t53.5 -32t139.5 -10.5t142 39t73 169.5t29 131.5q8 35 39 31l9 -4q-12 -70 -23 -199v-201q0 -20 -18 -20q-66 -33 -99 -83t-33 -98t28 -82t68 -34t64 6t29 -10t-8 -23q-55 -18 -119 -18t-112 45t-48 110q0 119 164 187l-334 8
q-76 2 -148.5 2t-178.5 -8q-6 0 -6.5 24.5t6.5 24.5l57 -2q23 1 34 19q27 45 27 360v592q0 316 -28 360q-12 18 -32.5 17.5t-57.5 -0.5q-9 0 -7 24.5t7 24.5q106 -8 239.5 -8t478.5 10q10 2 15.5 -4t5.5 -17q-8 -66 -8 -145.5t6 -181.5l-6 -4q-31 -2 -37 26
q-21 159 -55.5 217t-192.5 58q-53 0 -84 -3.5t-55.5 -20.5t-35.5 -37q-30 -53 -30 -316v-359l260 7q10 0 10.5 -35t-10.5 -35l-260 8v-178z" />
    <glyph glyph-name="eogonek" unicode="&#x119;" horiz-adv-x="751" 
d="M410 975q-162 0 -174 -449q319 -31 319 201q0 104 -41 176t-104 72zM465 -142q0 -132 106 -132q29 0 53.5 6t26.5 -6q6 -21 -6 -27q-55 -18 -118.5 -18t-111.5 45t-48 120.5t84 133.5q-369 4 -369 487q0 167 32 285q30 118 84 172q94 96 206 96t201 -79t89 -230
q0 -279 -458 -230v-20q0 -217 63 -327.5t161.5 -111t172.5 110.5q3 4 17 -4q37 -21 14 -63q-35 -55 -119 -76q-80 -66 -80 -132z" />
    <glyph glyph-name="Ecaron" unicode="&#x11a;" horiz-adv-x="1052" 
d="M391 422q0 -245 14.5 -278t27.5 -54.5t53.5 -32t139.5 -10.5t142 39t72.5 169t29.5 132q8 35 39 31l9 -4q-12 -70 -23 -199v-201q0 -20 -21 -20l-397 8q-76 2 -148.5 2t-178.5 -8q-6 0 -6.5 24.5t6.5 24.5l57 -2q23 1 34 19q27 45 27 360v592q0 316 -28 360
q-12 18 -32.5 17.5t-57.5 -0.5q-9 0 -7 24.5t7 24.5q106 -8 239.5 -8t478.5 10q10 2 15.5 -4t5.5 -17q-8 -66 -8 -145.5t6 -181.5l-6 -4q-31 -2 -37 26q-21 159 -55.5 217t-192.5 58q-53 0 -84 -3.5t-55.5 -20.5t-35.5 -37q-30 -53 -30 -316v-359l260 7q10 0 10.5 -35
t-10.5 -35l-260 8v-178zM523.5 1542q-17.5 0 -21.5 4q-39 45 -124 130t-85 87q-8 8 4 21.5t22 7.5l205 -150l205 150q13 8 22 -5t0.5 -21.5t-51.5 -53.5l-86 -90t-69 -76q-4 -4 -21.5 -4z" />
    <glyph glyph-name="ecaron" unicode="&#x11b;" horiz-adv-x="751" 
d="M410 975q-162 0 -174 -449q319 -31 319 201q0 104 -41 176t-104 72zM455 -20q-373 0 -373 487q0 167 32 285q30 118 84 172q94 96 206 96t201 -79t89 -230q0 -279 -458 -230v-20q0 -217 63 -327.5t161.5 -111t172.5 110.5q3 4 17 -4q37 -21 14 -63q-53 -86 -209 -86z
M407.5 1110q-18.5 0 -22.5 4q-39 45 -123 131l-86 86q-8 8 4 21.5t23 7.5l205 -150l204 150q13 8 22 -5t1 -21.5t-51 -53.5l-86 -90t-70 -76q-2 -4 -20.5 -4z" />
    <glyph glyph-name="Gbreve" unicode="&#x11e;" horiz-adv-x="991" 
d="M508 -39q-45 0 -89 12.5t-102.5 56.5t-101.5 117.5t-73.5 212t-30.5 323.5t33.5 329.5t81.5 225.5t112 132q105 84 215 84q59 0 110.5 -15.5t60.5 -15.5q21 0 42 52q9 13 23 2t14 -15q-39 -156 -39 -280q0 -2 -21.5 -7.5t-21.5 5.5q0 106 -8 133q-29 96 -148 96
q-80 0 -154 -90q-153 -186 -153 -639t131 -609q58 -69 117 -69t98 42t65.5 143t26.5 226t-14 153t-57 28l-133 -4q-6 0 -6.5 32.5t6.5 32.5l180 -10l219 8q8 0 11 -15t0 -29.5t-7 -14.5l-51 2q-29 0 -35 -40t-6 -206l4 -336q-34 -8 -43 4l-14 21q-90 -78 -242 -78zM410 1763
q12 0 12 -12q0 -51 45 -84t106.5 -33t106.5 33t45 84q0 12 12 12h25q14 0 14 -16q0 -92 -55 -143.5t-147.5 -51.5t-147.5 51.5t-55 143.5q0 16 14 16h25z" />
    <glyph glyph-name="gbreve" unicode="&#x11f;" horiz-adv-x="796" 
d="M391 975q-168 0 -168 -342t168 -342t168 346q0 229 -82 305q-6 -4 -13 -7t-16.5 -8t-19.5 -9t-15 3t7 19l22 25q-26 10 -51 10zM256 193q0 -41 47 -75t114.5 -57.5t135.5 -50t115 -73t47 -107.5q0 -106 -95.5 -171t-252 -65t-241.5 58.5t-85 161.5q0 74 52 114.5
t116 18.5q33 -10 37 -35l-2 -4q-37 8 -62.5 -23.5t-25.5 -77.5q0 -84 54 -128t151 -44t153.5 42t56.5 120q0 55 -68.5 95t-149.5 61.5t-149.5 67t-68.5 106.5q0 100 107 152q-172 86 -172 364q0 109 33.5 188.5t88 117.5t103.5 54.5t96 16.5t84 -10q66 109 66 178
q0 14 28 -10q55 -43 37 -98.5t-61 -94.5q168 -84 168 -342q0 -307 -210 -377q-52 -18 -108.5 -18t-105.5 12q-33 -26 -33 -67zM387 1182q-92 0 -147.5 51t-55.5 143q0 16 15 17h24q12 0 13 -13q0 -51 45 -83.5t106.5 -32.5t106.5 32.5t45 83.5q0 12 12 13h24q14 0 15 -17
q0 -92 -55.5 -143t-147.5 -51z" />
    <glyph glyph-name="Gdotaccent" unicode="&#x120;" horiz-adv-x="991" 
d="M508 -39q-45 0 -89 12.5t-102.5 56.5t-101.5 117.5t-73.5 212t-30.5 323.5t33.5 329.5t81.5 225.5t112 132q105 84 215 84q59 0 110.5 -15.5t60.5 -15.5q21 0 42 52q9 13 23 2t14 -15q-39 -156 -39 -280q0 -2 -21.5 -7.5t-21.5 5.5q0 106 -8 133q-29 96 -148 96
q-80 0 -154 -90q-153 -186 -153 -639t131 -609q58 -69 117 -69t98 42t65.5 143t26.5 226t-14 153t-57 28l-133 -4q-6 0 -6.5 32.5t6.5 32.5l180 -10l219 8q8 0 11 -15t0 -29.5t-7 -14.5l-51 2q-29 0 -35 -40t-6 -206l4 -336q-34 -8 -43 4l-14 21q-90 -78 -242 -78zM563 1575
q-92 0 -92 92t92 92t92 -92t-92 -92z" />
    <glyph glyph-name="gdotaccent" unicode="&#x121;" horiz-adv-x="796" 
d="M391 975q-168 0 -168 -342t168 -342t168 346q0 229 -82 305q-6 -4 -13 -7t-16.5 -8t-19.5 -9t-15 3t7 19l22 25q-26 10 -51 10zM256 193q0 -41 47 -75t114.5 -57.5t135.5 -50t115 -73t47 -107.5q0 -106 -95.5 -171t-252 -65t-241.5 58.5t-85 161.5q0 74 52 114.5
t116 18.5q33 -10 37 -35l-2 -4q-37 8 -62.5 -23.5t-25.5 -77.5q0 -84 54 -128t151 -44t153.5 42t56.5 120q0 55 -68.5 95t-149.5 61.5t-149.5 67t-68.5 106.5q0 100 107 152q-172 86 -172 364q0 109 33.5 188.5t88 117.5t103.5 54.5t96 16.5t84 -10q66 109 66 178
q0 14 28 -10q55 -43 37 -98.5t-61 -94.5q168 -84 168 -342q0 -307 -210 -377q-52 -18 -108.5 -18t-105.5 12q-33 -26 -33 -67zM377 1204q-92 0 -92 92.5t92 92.5t92 -92.5t-92 -92.5z" />
    <glyph glyph-name="Gcommaaccent" unicode="&#x122;" horiz-adv-x="991" 
d="M391 -202q0 38 29 62.5t71 24.5t68.5 -30.5t24.5 -93t-43 -127t-90 -97.5q-2 -2 -8.5 2t-2.5 21q44 106 -19 170q-30 30 -30 68zM508 -39q-45 0 -89 12.5t-102.5 56.5t-101.5 117.5t-73.5 212t-30.5 323.5t33.5 329.5t81.5 225.5t112 132q105 84 215 84q59 0 110.5 -15.5
t60.5 -15.5q21 0 42 52q9 13 23 2t14 -15q-39 -156 -39 -280q0 -2 -21.5 -7.5t-21.5 5.5q0 106 -8 133q-29 96 -148 96q-80 0 -154 -90q-153 -186 -153 -639t131 -609q58 -69 117 -69t98 42t65.5 143t26.5 226t-14 153t-57 28l-133 -4q-6 0 -6.5 32.5t6.5 32.5l180 -10
l219 8q8 0 11 -15t0 -29.5t-7 -14.5l-51 2q-29 0 -35 -40t-6 -206l4 -336q-34 -8 -43 4l-14 21q-90 -78 -242 -78z" />
    <glyph glyph-name="gcommaaccent" unicode="&#x123;" horiz-adv-x="796" 
d="M391 975q-168 0 -168 -342t168 -342t168 346q0 229 -82 305q-6 -4 -13 -7t-16.5 -8t-19.5 -9t-15 3t7 19l22 25q-26 10 -51 10zM256 193q0 -41 47 -75t114.5 -57.5t135.5 -50t115 -73t47 -107.5q0 -106 -95.5 -171t-252 -65t-241.5 58.5t-85 161.5q0 74 52 114.5
t116 18.5q33 -10 37 -35l-2 -4q-37 8 -62.5 -23.5t-25.5 -77.5q0 -84 54 -128t151 -44t153.5 42t56.5 120q0 55 -68.5 95t-149.5 61.5t-149.5 67t-68.5 106.5q0 100 107 152q-172 86 -172 364q0 109 33.5 188.5t88 117.5t103.5 54.5t96 16.5t84 -10q66 109 66 178
q0 14 28 -10q55 -43 37 -98.5t-61 -94.5q168 -84 168 -342q0 -307 -210 -377q-52 -18 -108.5 -18t-105.5 12q-33 -26 -33 -67zM384 1167q-42 0 -68.5 31t-24.5 92.5t43 126t88 96.5q4 4 11 -3t5 -11q-29 -43 -18 -113q4 -33 33.5 -63.5t29.5 -68t-28.5 -62.5t-70.5 -25z" />
    <glyph glyph-name="Hbar" unicode="&#x126;" horiz-adv-x="1118" 
d="M646 659q159 0 239 7v170q-160 12 -283 12t-203 -12v-166q88 -11 247 -11zM760 20.5q0 24.5 6 24.5l57 -2q23 1 34 19q28 47 28 360v170q-106 12 -242.5 12t-243.5 -12v-170q0 -310 28 -358q15 -26 89 -21q6 0 6 -23.5t-6 -23.5l-180 8l-178 -8q-6 0 -6 24.5t6 24.5
l57 -2q23 1 34 19q27 45 27 360v569q0 335 -27 383q-11 20 -26.5 18.5t-37 -1.5t-27.5 -2q-8 0 -6 24.5t6 24.5l178 -8l180 6q6 0 6 -26t-6 -26l-53 5q-23 3 -35 -17q-29 -47 -29 -383v-78q106 -8 256 -8t230 6v82q0 333 -28 383q-11 20 -26.5 18.5t-37 -1.5t-27.5 -2
q-8 0 -6 24.5t6 24.5l178 -8l180 6q6 0 6 -26t-6 -26l-53 5q-23 3 -35 -17q-28 -46 -28 -383v-567q0 -314 28 -358q16 -26 88 -21q8 0 6 -23.5t-6 -23.5l-180 8l-178 -8q-6 0 -6 24.5z" />
    <glyph glyph-name="hbar" unicode="&#x127;" horiz-adv-x="987" 
d="M940 47q6 0 6 -23.5t-6 -23.5l-190 8l-179 -8q-6 0 -6 24.5t6 24.5l58 -2q23 1 35 21q30 51 30 392t-20.5 429t-95.5 88t-133 -86q-105 -155 -126 -422q4 -349 31 -403q10 -20 29 -19h55q6 0 6 -23.5t-6 -23.5l-180 8l-178 -8q-6 0 -6 24.5t6 24.5q18 -2 57 -2
q23 0 34 37q28 94 28 520t-5 514q-88 0 -133 -10q-7 7 2 32t17 29q23 10 112 7q-4 115 -16 153.5t-39 38.5l-57 -8q-10 0 -10 24.5t4 24.5q49 0 215 27q51 8 51 -37l-12 -228q88 0 133 13q2 -2 2 -15.5t-7.5 -30t-27 -21.5t-102.5 -1q-4 -160 -5 -301h11q90 207 268 207
q229 0 229 -262l-8 -268q-4 -374 30 -424q13 -20 38 -21h55z" />
    <glyph glyph-name="Imacron" unicode="&#x12a;" horiz-adv-x="657" 
d="M514 1410q0 -26 -6 -26l-53 5q-23 3 -35 -17q-29 -47 -29 -383v-567q0 -312 28 -360q11 -18 34 -19h55q8 0 6 -23.5t-6 -23.5l-180 8q-72 0 -178 -8q-6 0 -6.5 24.5t6.5 24.5q18 -2 49 -2q31 1 42 19q27 45 27 360v569q0 335 -28 381q-12 20 -32.5 18.5t-57.5 -1.5
q-9 0 -7 24.5t7 24.5q106 -8 178 -8l180 6q6 0 6 -26zM59 1645q0 14 15 14l280 -4h2l260 4q14 0 15 -12v-37q0 -12 -15 -13l-260 5h-2l-280 -5q-14 0 -15 15v33z" />
    <glyph glyph-name="imacron" unicode="&#x12b;" horiz-adv-x="528" 
d="M68 981q174 0 219 7t45 -38q0 -12 -9.5 -179.5t-9.5 -330.5t8.5 -257.5t19.5 -115t34 -20.5h55q8 0 6 -23.5t-6 -23.5l-180 8l-178 -8q-6 0 -6 24.5t6 24.5q18 -2 49 -2q31 1 42 25q27 60 27 358.5t-13 402t-50 103.5l-57 -4q-11 0 -9 24.5t7 24.5zM-33 1198q0 14 15 14
l280 -4h2l260 4q14 0 15 -12v-37q0 -12 -15 -12l-260 4h-2l-280 -4q-14 0 -15 14v33z" />
    <glyph glyph-name="Iogonek" unicode="&#x12e;" horiz-adv-x="657" 
d="M508 43q6 0 6 -18.5t-2 -24.5l-4 -4q-66 -33 -98.5 -83t-32.5 -98t27.5 -82t67.5 -34t64.5 6t26.5 -6q7 -20 -6 -27q-55 -18 -118.5 -18t-111.5 45t-48 111q0 123 170 188q-68 6 -130.5 6t-168.5 -8q-6 0 -6.5 24.5t6.5 24.5q18 -2 49 -2q31 1 42 19q27 45 27 360v569
q0 335 -28 381q-12 20 -32.5 18.5t-57.5 -1.5q-9 0 -7 24.5t7 24.5q106 -8 178 -8l180 6q6 0 6 -26t-6 -26l-53 5q-23 3 -35 -17q-29 -47 -29 -383v-567q0 -312 28 -360q11 -18 34 -19h55z" />
    <glyph glyph-name="iogonek" unicode="&#x12f;" horiz-adv-x="528" 
d="M430 47q8 0 6 -23.5t-6 -23.5h-8q-63 -33 -95 -82t-32 -97t27.5 -82t67.5 -34t64.5 6t26.5 -6q7 -20 -6 -27q-55 -18 -118.5 -18t-111.5 45t-48 111q0 119 165 188q-86 4 -112 4l-178 -8q-6 0 -6 24.5t6 24.5q18 -2 49 -2q31 1 42 25q27 60 27 358.5t-13 402t-50 103.5
l-57 -4q-11 0 -9 24.5t7 24.5q174 0 219 7t45 -38q0 -12 -10 -179t-9.5 -330.5t9 -258t19.5 -115t34 -20.5h55zM227 1108q-92 0 -92 92t92 92t92 -92t-92 -92z" />
    <glyph glyph-name="Idotaccent" unicode="&#x130;" horiz-adv-x="657" 
d="M514 1410q0 -26 -6 -26l-53 5q-23 3 -35 -17q-29 -47 -29 -383v-567q0 -312 28 -360q11 -18 34 -19h55q8 0 6 -23.5t-6 -23.5l-180 8q-72 0 -178 -8q-6 0 -6.5 24.5t6.5 24.5q18 -2 49 -2q31 1 42 19q27 45 27 360v569q0 335 -28 381q-12 20 -32.5 18.5t-57.5 -1.5
q-9 0 -7 24.5t7 24.5q106 -8 178 -8l180 6q6 0 6 -26zM319.5 1554q-92.5 0 -92.5 92.5t92.5 92.5t92.5 -92.5t-92.5 -92.5z" />
    <glyph glyph-name="dotlessi" unicode="&#x131;" horiz-adv-x="528" 
d="M68 981q174 0 219 7t45 -38q0 -12 -9.5 -179.5t-9.5 -330.5t8.5 -257.5t19.5 -115t34 -20.5h55q8 0 6 -23.5t-6 -23.5l-180 8l-178 -8q-6 0 -6 24.5t6 24.5q18 -2 49 -2q31 1 42 25q27 60 27 358.5t-13 402t-50 103.5l-57 -4q-11 0 -9 24.5t7 24.5z" />
    <glyph glyph-name="Kcommaaccent" unicode="&#x136;" horiz-adv-x="1120" 
d="M601 -115q42 0 68.5 -30.5t24.5 -93t-43 -127t-90 -97.5q-2 -2 -8 2.5t-2 20.5q45 104 -19 170q-30 30 -30 68t28.5 62.5t70.5 24.5zM1001 -20q-109 0 -194.5 94t-144 203.5t-142.5 308.5l-31 -64q0 -14 -25.5 -1t-21.5 28q258 563 307.5 702t14.5 140l-49 -2
q-6 0 -6 23.5t6 23.5l139 -6l160 6q6 0 6 -23.5t-6 -23.5l-70 2q-53 0 -364 -674q121 -268 271 -471t267 -209q10 0 -2 -17.5t-28.5 -28.5t-86.5 -11zM514 1410q0 -26 -6 -26l-53 5q-23 3 -35 -17q-29 -47 -29 -383v-567q0 -312 28 -360q11 -18 34 -19h55q8 0 6 -23.5
t-6 -23.5l-180 8q-72 0 -178 -8q-6 0 -6.5 24.5t6.5 24.5q18 -2 49 -2q31 1 42 19q27 45 27 360v569q0 335 -28 381q-12 20 -32.5 18.5t-57.5 -1.5q-9 0 -7 24.5t7 24.5q106 -8 178 -8l180 6q6 0 6 -26z" />
    <glyph glyph-name="kcommaaccent" unicode="&#x137;" 
d="M509 -115q42 0 68.5 -30.5t24.5 -93t-43 -127t-90 -97.5q-2 -2 -8 2.5t-2 20.5q45 104 -19 170q-30 30 -30 68t28.5 62.5t70.5 24.5zM66 1384.5q0 24.5 4 24.5q49 0 215 27q51 8 51 -37q0 -6 -9.5 -167.5t-9.5 -463.5h13q30 65 82 127q100 119 203.5 119t162 -50.5
t58.5 -155t-79 -183t-198 -123.5q68 -168 184.5 -316.5t227.5 -148.5q9 0 -5 -15.5t-37.5 -27.5t-68.5 -12t-88 17t-73.5 37.5t-65.5 68t-55 77.5q-43 65 -129 287l-15 41q106 41 181 121t75 182q0 145 -94 145q-59 0 -121.5 -81.5t-103.5 -197.5t-52 -220q4 -339 31 -393
q10 -20 29 -19h55q6 0 6 -23.5t-6 -23.5l-180 8l-178 -8q-6 0 -6 24.5t6 24.5q18 -2 57 -2q23 0 34 37q28 94 28 575t-9.5 575.5t-20.5 114t-32 19.5l-57 -8q-10 0 -10 24.5z" />
    <glyph glyph-name="Lacute" unicode="&#x139;" horiz-adv-x="976" 
d="M150 45q36 0 58 -1q22 0 33 18q27 45 27 360v569q0 335 -28 381q-12 20 -42 19.5t-48 -2.5q-6 0 -6.5 24.5t6.5 24.5q106 -8 178 -8l180 6q6 0 6 -26t-6 -26l-53 5q-23 3 -35 -17q-29 -47 -29 -383v-567q0 -256 29 -312q10 -20 36.5 -35.5t56.5 -18.5t83 -3q141 0 185 37
t69 146l35 151q9 35 47 27q-12 -66 -23 -199v-201q0 -20 -20 -20l-412 8q-76 2 -148.5 2t-178.5 -8q-9 0 -7 24.5t7 24.5zM385 1575q-10 10 -2 22l197 201q14 16 47 -16q49 -53 8 -105q-16 -18 -45 -32l-172 -86q-8 -4 -15 2z" />
    <glyph glyph-name="lacute" unicode="&#x13a;" horiz-adv-x="935" 
d="M604 1128q-10 10 -2 23l197 201q14 16 47 -17q49 -53 8 -104q-16 -18 -45 -33l-172 -86q-8 -4 -14 2zM66 1384.5q0 24.5 4 24.5q39 0 204 27q51 8 52 -37q0 -6 -4.5 -163.5t-4.5 -481.5t8.5 -482.5t19.5 -190.5t36 -34t53 0q6 0 6 -23.5t-6 -23.5l-180 8l-178 -8
q-6 0 -6 24.5t6 24.5q37 -4 58.5 -2t32.5 39q28 94 28 574t-9.5 574.5t-20.5 114t-32 19.5l-57 -8q-10 0 -10 24.5z" />
    <glyph glyph-name="Lcommaaccent" unicode="&#x13b;" horiz-adv-x="976" 
d="M432 -202q0 38 28.5 62.5t70.5 24.5t69 -30.5t25 -93t-43 -127t-90 -97.5q-2 -2 -8.5 2t-2.5 21q44 106 -19 170q-30 30 -30 68zM150 45q36 0 58 -1q22 0 33 18q27 45 27 360v569q0 335 -28 381q-12 20 -42 19.5t-48 -2.5q-6 0 -6.5 24.5t6.5 24.5q106 -8 178 -8l180 6
q6 0 6 -26t-6 -26l-53 5q-23 3 -35 -17q-29 -47 -29 -383v-567q0 -256 29 -312q10 -20 36.5 -35.5t56.5 -18.5t83 -3q141 0 185 37t69 146l35 151q9 35 47 27q-12 -66 -23 -199v-201q0 -20 -20 -20l-412 8q-76 2 -148.5 2t-178.5 -8q-9 0 -7 24.5t7 24.5z" />
    <glyph glyph-name="lcommaaccent" unicode="&#x13c;" horiz-adv-x="501" 
d="M172 -193.5q0 37.5 28.5 62.5t70.5 25t69 -31t25 -93.5t-43.5 -127t-90.5 -97.5q-2 -2 -8 2.5t-2 20.5q44 105 -19 170q-30 31 -30 68.5zM66 1384.5q0 24.5 4 24.5q39 0 204 27q51 8 52 -37q0 -6 -4.5 -163.5t-4.5 -481.5t8.5 -482.5t19.5 -190.5t36 -34t53 0
q6 0 6 -23.5t-6 -23.5l-180 8l-178 -8q-6 0 -6 24.5t6 24.5q37 -4 58.5 -2t32.5 39q28 94 28 574t-9.5 574.5t-20.5 114t-32 19.5l-57 -8q-10 0 -10 24.5z" />
    <glyph glyph-name="Lcaron" unicode="&#x13d;" horiz-adv-x="976" 
d="M629 1316q0 38 28.5 62.5t70.5 24.5t68.5 -31t24.5 -93.5t-43 -126.5t-90 -97q-2 -2 -8 2.5t-2 19.5q44 105 -20 171q-30 30 -29 68zM150 45q36 0 58 -1q22 0 33 18q27 45 27 360v569q0 335 -28 381q-12 20 -42 19.5t-48 -2.5q-6 0 -6.5 24.5t6.5 24.5q106 -8 178 -8
l180 6q6 0 6 -26t-6 -26l-53 5q-23 3 -35 -17q-29 -47 -29 -383v-567q0 -256 29 -312q10 -20 36.5 -35.5t56.5 -18.5t83 -3q141 0 185 37t69 146l35 151q9 35 47 27q-12 -66 -23 -199v-201q0 -20 -20 -20l-412 8q-76 2 -148.5 2t-178.5 -8q-9 0 -7 24.5t7 24.5z" />
    <glyph glyph-name="lcaron" unicode="&#x13e;" horiz-adv-x="501" 
d="M406 1316q0 38 28.5 62.5t70.5 24.5t68.5 -31t24.5 -93.5t-43 -126.5t-90 -97q-2 -2 -8 2.5t-2 19.5q45 105 -19 171q-30 30 -30 68zM66 1384.5q0 24.5 4 24.5q39 0 204 27q51 8 52 -37q0 -6 -4.5 -163.5t-4.5 -481.5t8.5 -482.5t19.5 -190.5t36 -34t53 0q6 0 6 -23.5
t-6 -23.5l-180 8l-178 -8q-6 0 -6 24.5t6 24.5q37 -4 58.5 -2t32.5 39q28 94 28 574t-9.5 574.5t-20.5 114t-32 19.5l-57 -8q-10 0 -10 24.5z" />
    <glyph glyph-name="Lslash" unicode="&#x141;" horiz-adv-x="976" 
d="M391 989v-92q66 66 92 107q3 2 13 -10q33 -39 19.5 -60t-124.5 -127v-385q0 -256 29 -312q10 -20 36.5 -35.5t56.5 -18.5t83 -3q141 0 185 37t69 146l35 151q9 35 47 27q-12 -66 -23 -199v-201q0 -20 -20 -20l-412 8q-76 2 -148.5 2t-178.5 -8q-9 0 -7 24.5t7 24.5
q36 0 58 -1q22 0 33 18q27 45 27 360v264q-66 -70 -82 -96q-6 -6 -21 23.5t-10 45t113 119.5v213q0 335 -28 381q-12 20 -42 19.5t-48 -2.5q-6 0 -6.5 24.5t6.5 24.5q106 -8 178 -8l180 6q6 0 6 -26t-6 -26l-53 5q-23 3 -35 -17q-29 -48 -29 -383z" />
    <glyph glyph-name="lslash" unicode="&#x142;" horiz-adv-x="501" 
d="M66 1384.5q0 24.5 4 24.5q39 0 204 27q51 8 52 -37q0 -8 -4.5 -112.5t-4.5 -307.5q66 66 93 106q2 2 12 -10q32 -39 19 -59.5t-124 -126.5v-135q0 -592 28 -673q11 -32 36 -34t53 0q6 0 6 -23.5t-6 -23.5l-180 8l-178 -8q-6 0 -6 24.5t6 24.5q37 -4 58.5 -2t32.5 39
q28 94 28 668v14q-66 -70 -82 -96q-2 -2 -20.5 21.5t-12.5 43t115 123.5q0 432 -33 490q-10 18 -29 18l-57 -8q-10 0 -10 24.5z" />
    <glyph glyph-name="Nacute" unicode="&#x143;" horiz-adv-x="1105" 
d="M911 10q0 -8 -30.5 -8t-32.5 4l-582 1151h-12q0 -1114 57 -1114l58 2q8 0 8 -23.5t-4 -23.5l-146 6q-125 0 -151 -6q-12 0 -10 23.5t6 23.5l69 -2q57 0 51 1073q-2 252 -2 305q0 10 31 11.5t35 -7.5l580 -1151h12q0 1114 -57 1115l-58 -3q-8 0 -8 24t4 24l145 -7
q125 1 152 7q12 0 10 -24t-6 -24l-69 3q-55 0 -51 -1074q1 -252 1 -305zM438 1561l-18 14q-10 10 -2 22l196 201q14 16 48 -16q49 -53 8 -105q-16 -18 -45 -32l-172 -86q-9 -4 -15 2z" />
    <glyph glyph-name="nacute" unicode="&#x144;" horiz-adv-x="995" 
d="M950 47q4 0 4 -23.5t-6 -23.5l-190 8l-178 -8q-6 0 -6.5 24.5t6.5 24.5l57 -2q23 1 35 21q30 51 30 392t-20 429t-97 88t-137 -93q-112 -172 -122 -446q4 -328 28 -372q10 -18 33 -19h55q10 0 7 -23.5t-7 -23.5l-180 8l-178 -8q-6 0 -6 24.5t6 24.5q18 -2 49 -2
q31 1 42 27q28 67 28 379.5t-13.5 397.5t-50.5 85l-57 -4q-10 0 -8 24.5t6 24.5q143 0 185 6t50 -37q8 -33 11 -135h10q90 207 268 207q229 0 230 -262l-9 -268q-7 -143 2 -264.5t21 -145t21.5 -28.5t17.5 -7t33.5 -1t29.5 1zM379 1155l-19 14q-10 10 -2 23l197 201
q14 16 47 -17q49 -53 8 -104q-16 -18 -45 -33l-172 -86q-8 -4 -14 2z" />
    <glyph glyph-name="Ncommaaccent" unicode="&#x145;" horiz-adv-x="1105" 
d="M566 -115q42 0 69 -30.5t24.5 -93t-43.5 -127t-90 -97.5q-2 -2 -8 2.5t-2 20.5q44 104 -20 170q-30 30 -29.5 68t29 62.5t70.5 24.5zM911 10q0 -8 -30.5 -8t-32.5 4l-582 1151h-12q0 -1114 57 -1114l58 2q8 0 8 -23.5t-4 -23.5l-146 6q-125 0 -151 -6q-12 0 -10 23.5
t6 23.5l69 -2q57 0 51 1073q-2 252 -2 305q0 10 31 11.5t35 -7.5l580 -1151h12q0 1114 -57 1115l-58 -3q-8 0 -8 24t4 24l145 -7q125 1 152 7q12 0 10 -24t-6 -24l-69 3q-55 0 -51 -1074q1 -252 1 -305z" />
    <glyph glyph-name="ncommaaccent" unicode="&#x146;" horiz-adv-x="995" 
d="M507 -115q42 0 68.5 -30.5t24.5 -93t-43 -127t-90 -97.5q-2 -2 -8 2.5t-2 20.5q45 104 -19 170q-30 30 -30 68t28.5 62.5t70.5 24.5zM950 47q4 0 4 -23.5t-6 -23.5l-190 8l-178 -8q-6 0 -6.5 24.5t6.5 24.5l57 -2q23 1 35 21q30 51 30 392t-20 429t-97 88t-137 -93
q-112 -172 -122 -446q4 -328 28 -372q10 -18 33 -19h55q10 0 7 -23.5t-7 -23.5l-180 8l-178 -8q-6 0 -6 24.5t6 24.5q18 -2 49 -2q31 1 42 27q28 67 28 379.5t-13.5 397.5t-50.5 85l-57 -4q-10 0 -8 24.5t6 24.5q143 0 185 6t50 -37q8 -33 11 -135h10q90 207 268 207
q229 0 230 -262l-9 -268q-7 -143 2 -264.5t21 -145t21.5 -28.5t17.5 -7t33.5 -1t29.5 1z" />
    <glyph glyph-name="Ncaron" unicode="&#x147;" horiz-adv-x="1105" 
d="M911 10q0 -8 -30.5 -8t-32.5 4l-582 1151h-12q0 -1114 57 -1114l58 2q8 0 8 -23.5t-4 -23.5l-146 6q-125 0 -151 -6q-12 0 -10 23.5t6 23.5l69 -2q57 0 51 1073q-2 252 -2 305q0 10 31 11.5t35 -7.5l580 -1151h12q0 1114 -57 1115l-58 -3q-8 0 -8 24t4 24l145 -7
q125 1 152 7q12 0 10 -24t-6 -24l-69 3q-55 0 -51 -1074q1 -252 1 -305zM546.5 1542q-18.5 0 -22.5 4q-39 45 -124 130t-85 87q-8 8 4.5 21.5t22.5 7.5l205 -150l205 150q12 7 21 -5.5t1 -21t-51 -53.5l-86 -90t-70 -76q-2 -4 -20.5 -4z" />
    <glyph glyph-name="ncaron" unicode="&#x148;" horiz-adv-x="995" 
d="M950 47q4 0 4 -23.5t-6 -23.5l-190 8l-178 -8q-6 0 -6.5 24.5t6.5 24.5l57 -2q23 1 35 21q30 51 30 392t-20 429t-97 88t-137 -93q-112 -172 -122 -446q4 -328 28 -372q10 -18 33 -19h55q10 0 7 -23.5t-7 -23.5l-180 8l-178 -8q-6 0 -6 24.5t6 24.5q18 -2 49 -2
q31 1 42 27q28 67 28 379.5t-13.5 397.5t-50.5 85l-57 -4q-10 0 -8 24.5t6 24.5q143 0 185 6t50 -37q8 -33 11 -135h10q90 207 268 207q229 0 230 -262l-9 -268q-7 -143 2 -264.5t21 -145t21.5 -28.5t17.5 -7t33.5 -1t29.5 1zM486.5 1137q-17.5 0 -21.5 4q-39 45 -125 131
l-84 86q-7 7 4.5 20.5t22.5 7.5l204 -149l205 149q13 8 22 -5t1 -21q-99 -99 -207 -219q-4 -4 -21.5 -4z" />
    <glyph glyph-name="Omacron" unicode="&#x14c;" horiz-adv-x="1060" 
d="M807 678q0 737 -272 737q-279 0 -279 -737q0 -457 135 -606q63 -70 144 -70q272 0 272 676zM535 -39q-55 0 -103.5 12.5t-111 56.5t-105.5 117.5t-73.5 211t-30.5 324.5t28.5 330.5t70.5 225.5t101.5 133t112.5 67.5t109.5 16.5t107.5 -16.5t109 -67.5q200 -174 200 -692
q1 -719 -415 -719zM264 1671q0 14 15 15l280 -5h2l260 5q14 0 15 -13v-37q0 -12 -15 -12l-260 4h-2l-280 -4q-14 0 -15 14v33z" />
    <glyph glyph-name="omacron" unicode="&#x14d;" horiz-adv-x="839" 
d="M420 29q184 0 184 465t-184 464.5t-184 -465t184 -464.5zM418 -14q-150 0 -243 129t-93 390t94 380t252 119q330 0 330 -492q0 -526 -340 -526zM150 1182v32q0 14 14 15l280 -4h2l261 4q14 0 14 -12v-37q0 -12 -14 -13l-261 4h-2l-280 -4q-14 0 -14 15z" />
    <glyph glyph-name="Ohungarumlaut" unicode="&#x150;" horiz-adv-x="1060" 
d="M807 678q0 737 -272 737q-279 0 -279 -737q0 -457 135 -606q63 -70 144 -70q272 0 272 676zM535 -39q-55 0 -103.5 12.5t-111 56.5t-105.5 117.5t-73.5 211t-30.5 324.5t28.5 330.5t70.5 225.5t101.5 133t112.5 67.5t109.5 16.5t107.5 -16.5t109 -67.5q200 -174 200 -692
q1 -719 -415 -719zM618 1581q-12 8 -6 21l144 210q12 18 47 -10q73 -55 -12 -127l-142 -104q-4 -4 -12 0zM391 1591q-12 8 -6 21l145 211q10 18 45 -11q55 -43 19 -98q-12 -14 -31 -28l-141 -105q-4 -4 -12 0z" />
    <glyph glyph-name="ohungarumlaut" unicode="&#x151;" horiz-adv-x="839" 
d="M420 29q184 0 184 465t-184 464.5t-184 -465t184 -464.5zM418 -14q-150 0 -243 129t-93 390t94 380t252 119q330 0 330 -492q0 -526 -340 -526zM504 1124q-12 8 -6 21l143 211q12 18 47 -10q55 -41 19 -95q-10 -16 -31 -32l-141 -105q-4 -4 -13 0zM276 1135q-12 8 -6 20
l146 211q10 18 45 -10q55 -43 18 -99q-12 -14 -30 -28l-142 -105q-4 -4 -12 0z" />
    <glyph glyph-name="OE" unicode="&#x152;" horiz-adv-x="1609" 
d="M821 342v737q0 174 -26 250q-12 35 -81 57.5t-157 22.5t-153.5 -61.5t-106.5 -228.5t-41 -385t16 -336q31 -224 105.5 -302t185.5 -78q170 0 223 50q23 20 29 68t6 206zM563 -23q-453 0 -452 703q-1 515 207 684q105 86 245 86q61 0 245.5 -10t612.5 2q10 2 15.5 -4
t5.5 -17q-8 -66 -8 -145.5t6 -181.5l-6 -4q-31 -2 -37 22q-22 164 -56 221.5t-192 57.5q-53 0 -84 -3.5t-55.5 -20.5t-35.5 -37q-30 -53 -30 -316v-359q150 0 260 7q6 0 6 -35t-6 -35q-147 8 -260 8v-178q0 -245 14 -278q14 -32 28 -54q26 -43 161 -43t178 39t63.5 127
t28.5 124t11.5 53t14.5 23.5t21.5 5.5t10.5 -5q-20 -164 -23 -199v-209q0 -20 -20 -20l-402 8q-80 2 -242.5 -7.5t-224.5 -9.5z" />
    <glyph glyph-name="oe" unicode="&#x153;" horiz-adv-x="1292" 
d="M420 29q184 0 184 465t-184 464.5t-184 -465t184 -464.5zM950 975q-162 0 -174 -449q319 -31 320 201q0 104 -41.5 176t-104.5 72zM995 -20q-217 0 -307 163q-82 -158 -270 -157q-150 0 -243 129t-93 390t94 380t244 119q193 0 272 -150q84 166 258 166q106 0 195.5 -79
t89.5 -230q0 -279 -459 -230v-20q0 -217 63.5 -327.5t162 -111t172.5 110.5q2 4 16 -4q38 -22 14 -63q-53 -86 -209 -86z" />
    <glyph glyph-name="Racute" unicode="&#x154;" horiz-adv-x="1122" 
d="M555 627q258 0 258 389q0 182 -65.5 291.5t-155.5 109.5q-63 -1 -98 -25q-80 -56 -80 -403v-567q0 -316 28 -360q12 -18 33 -19h55q9 0 7 -23.5t-7 -23.5l-180 8q-72 0 -178 -8q-6 0 -6 24.5t6 24.5q18 -2 49 -2q31 1 42 19q28 47 28 360v569q0 331 -28 381
q-11 20 -34 19l-57 -2q-6 0 -6 24.5t6 24.5q106 -8 190 -8q20 2 87.5 15t119.5 13t88.5 -7t93 -34.5t100.5 -74t77 -134.5t33 -202q0 -166 -74 -270.5t-209 -139.5q80 -195 221.5 -379t241.5 -180q9 -1 -5 -17q-34 -38 -106 -38q-117 0 -192 84q-154 170 -271 514h-26
q-18 0 -26.5 17t-4.5 34q12 -4 45 -4zM506 1561l-19 14q-10 10 -2 22l197 201q14 16 47 -16q49 -53 8 -105q-16 -18 -45 -32l-172 -86q-8 -4 -14 2z" />
    <glyph glyph-name="racute" unicode="&#x155;" horiz-adv-x="788" 
d="M332 949q0 -26 -8 -134h12q35 98 96 152.5t139 54.5t127.5 -40t49.5 -108q0 -92 -74 -106q-25 -8 -39 1t-14 11q16 33 16 74q0 100 -88 100q-98 0 -160.5 -132t-75.5 -294v-61q0 -347 28 -399q11 -20 34 -21h55q8 0 6 -23.5t-6 -23.5l-180 8l-178 -8q-6 0 -6 24.5t6 24.5
q18 -2 49 -2q31 1 42 25q27 60 27 358.5t-13 402t-50 103.5l-57 -4q-11 0 -9 24.5t7 24.5q166 0 206 5t49 -3t9 -34zM258 1155l-18 14q-10 10 -2 23l196 201q14 16 47 -17q49 -53 8 -104q-16 -18 -45 -33l-172 -86q-8 -4 -14 2z" />
    <glyph glyph-name="Rcommaaccent" unicode="&#x156;" horiz-adv-x="1122" 
d="M634 -115q42 0 68.5 -30.5t24.5 -93t-43 -127t-90 -97.5q-2 -2 -8 2.5t-2 20.5q44 104 -20 170q-30 30 -29.5 68t29 62.5t70.5 24.5zM555 627q258 0 258 389q0 182 -65.5 291.5t-155.5 109.5q-63 -1 -98 -25q-80 -56 -80 -403v-567q0 -316 28 -360q12 -18 33 -19h55
q9 0 7 -23.5t-7 -23.5l-180 8q-72 0 -178 -8q-6 0 -6 24.5t6 24.5q18 -2 49 -2q31 1 42 19q28 47 28 360v569q0 331 -28 381q-11 20 -34 19l-57 -2q-6 0 -6 24.5t6 24.5q106 -8 190 -8q20 2 87.5 15t119.5 13t88.5 -7t93 -34.5t100.5 -74t77 -134.5t33 -202
q0 -166 -74 -270.5t-209 -139.5q80 -195 221.5 -379t241.5 -180q9 -1 -5 -17q-34 -38 -106 -38q-117 0 -192 84q-154 170 -271 514h-26q-18 0 -26.5 17t-4.5 34q12 -4 45 -4z" />
    <glyph glyph-name="rcommaaccent" unicode="&#x157;" horiz-adv-x="788" 
d="M267 -106q42 0 68.5 -31t24.5 -93.5t-43 -127t-90 -97.5q-2 -2 -8 2.5t-2 20.5q43 104 -19 170q-30 31 -30 68.5t28.5 62.5t70.5 25zM332 949q0 -26 -8 -134h12q35 98 96 152.5t139 54.5t127.5 -40t49.5 -108q0 -92 -74 -106q-25 -8 -39 1t-14 11q16 33 16 74
q0 100 -88 100q-98 0 -160.5 -132t-75.5 -294v-61q0 -347 28 -399q11 -20 34 -21h55q8 0 6 -23.5t-6 -23.5l-180 8l-178 -8q-6 0 -6 24.5t6 24.5q18 -2 49 -2q31 1 42 25q27 60 27 358.5t-13 402t-50 103.5l-57 -4q-11 0 -9 24.5t7 24.5q166 0 206 5t49 -3t9 -34z" />
    <glyph glyph-name="Rcaron" unicode="&#x158;" horiz-adv-x="1122" 
d="M555 627q258 0 258 389q0 182 -65.5 291.5t-155.5 109.5q-63 -1 -98 -25q-80 -56 -80 -403v-567q0 -316 28 -360q12 -18 33 -19h55q9 0 7 -23.5t-7 -23.5l-180 8q-72 0 -178 -8q-6 0 -6 24.5t6 24.5q18 -2 49 -2q31 1 42 19q28 47 28 360v569q0 331 -28 381
q-11 20 -34 19l-57 -2q-6 0 -6 24.5t6 24.5q106 -8 190 -8q20 2 87.5 15t119.5 13t88.5 -7t93 -34.5t100.5 -74t77 -134.5t33 -202q0 -166 -74 -270.5t-209 -139.5q80 -195 221.5 -379t241.5 -180q9 -1 -5 -17q-34 -38 -106 -38q-117 0 -192 84q-154 170 -271 514h-26
q-18 0 -26.5 17t-4.5 34q12 -4 45 -4zM613.5 1542q-17.5 0 -21.5 4q-39 45 -124 130t-85 87q-8 8 4 21.5t23 7.5l204 -150l205 150q13 8 22 -5t1 -21.5t-51 -53.5l-86 -90t-70 -76q-4 -4 -21.5 -4z" />
    <glyph glyph-name="rcaron" unicode="&#x159;" horiz-adv-x="788" 
d="M332 949q0 -26 -8 -134h12q35 98 96 152.5t139 54.5t127.5 -40t49.5 -108q0 -92 -74 -106q-25 -8 -39 1t-14 11q16 33 16 74q0 100 -88 100q-98 0 -160.5 -132t-75.5 -294v-61q0 -347 28 -399q11 -20 34 -21h55q8 0 6 -23.5t-6 -23.5l-180 8l-178 -8q-6 0 -6 24.5t6 24.5
q18 -2 49 -2q31 1 42 25q27 60 27 358.5t-13 402t-50 103.5l-57 -4q-11 0 -9 24.5t7 24.5q166 0 206 5t49 -3t9 -34zM366.5 1137q-18.5 0 -22.5 4q-39 45 -123 131l-86 86q-7 7 4.5 20.5t22.5 7.5l205 -149l204 149q13 8 22 -5t1 -21q-99 -99 -207 -219q-2 -4 -20.5 -4z" />
    <glyph glyph-name="Sacute" unicode="&#x15a;" horiz-adv-x="892" 
d="M444 25q122 0 199.5 67.5t77.5 149.5t-43 147.5t-108.5 115.5t-141.5 113.5t-141.5 127t-108.5 158.5t-43 208q0 152 90 242t234 90q61 0 124.5 -8.5t65.5 -8.5q37 0 56 39h9q7 0 14 -8t3 -20q-35 -135 -35 -328q0 -4 -10 -5t-21.5 6t-11.5 42t-8 88q-23 160 -190 160
q-106 0 -173 -63.5t-67 -175t61.5 -203t148.5 -163t175 -144t149.5 -165t61.5 -196.5q0 -141 -99.5 -229.5t-269 -88.5t-265 83t-95.5 196q0 80 34 121t76.5 51t59.5 -18l6 -9q-59 -37 -59 -153q0 -78 61.5 -148.5t183.5 -70.5zM311 1575q-10 10 -2 22l197 201q14 16 47 -16
q49 -53 8 -105q-16 -18 -45 -32l-172 -86q-8 -4 -14 2z" />
    <glyph glyph-name="sacute" unicode="&#x15b;" horiz-adv-x="747" 
d="M356 20q94 0 148.5 45.5t54.5 109.5t-47 117.5t-113.5 98.5t-133 95.5t-114 125t-47.5 162.5q0 125 87.5 186.5t202 61.5t182 -50t67.5 -118q0 -39 -19.5 -63.5t-52.5 -23.5t-43 11q16 27 16.5 74t-40.5 88t-114 41t-123 -46t-50 -119t47 -133t113.5 -107.5t133.5 -97.5
q161 -120 161 -263q0 -109 -89 -172t-229.5 -63t-209 60t-68.5 130.5t24.5 102.5t56 32t45 -10t11.5 -12q-39 -39 -39 -99.5t44 -112t138 -51.5zM246 1169q-10 10 -2 23l196 201q14 16 47 -17q49 -53 9 -104q-16 -18 -45 -33l-172 -86q-8 -4 -15 2z" />
    <glyph glyph-name="Scedilla" unicode="&#x15e;" horiz-adv-x="892" 
d="M811 291q0 -141 -99.5 -229.5t-256.5 -88.5l-39 -55q162 -12 170 -127q4 -66 -46.5 -111t-113.5 -45t-119 19q-12 6 -6 27q2 12 26.5 6t67.5 -6t70 27.5t23.5 71.5t-39 66.5t-62 23.5t-29.5 5l-10 14q-8 8 0 17l60 69q-160 12 -243 92t-83 172.5t34 133.5t77 51t59 -18
l6 -9q-59 -37 -59 -153q0 -78 61.5 -148.5t183.5 -70.5t199.5 67.5t77.5 149.5t-43 147.5t-108.5 115.5t-141.5 113.5t-141.5 127t-108.5 158.5t-43 208q0 152 90 242t234 90q61 0 124.5 -8.5t65.5 -8.5q37 0 56 39h9q7 0 14 -8t3 -20q-35 -135 -35 -328q0 -4 -10 -5
t-21.5 6t-11.5 42t-8 88q-23 160 -190 160q-106 0 -173 -63.5t-67 -175t61.5 -203t148.5 -163t175 -144t149.5 -165t61.5 -196.5z" />
    <glyph glyph-name="scedilla" unicode="&#x15f;" horiz-adv-x="747" 
d="M672 204q0 -89 -77 -150.5t-200 -71.5l-45 -64q162 -12 170 -127q4 -66 -46 -111t-113.5 -45t-118.5 19q-14 7 -6 27q2 12 26.5 6t67 -6t69.5 27.5t24 71.5t-39 66.5t-62.5 23.5t-28.5 5l-10 14q-8 8 0 17l63 74q-137 2 -203.5 61t-66.5 129.5t24.5 102.5t56 32t45 -10
t11.5 -12q-39 -39 -39 -99.5t44 -112t138 -51.5t148.5 45.5t54.5 109.5t-47 117.5t-113.5 98.5t-133 95.5t-114 125t-47.5 162.5q0 125 87.5 186.5t202 61.5t182 -50t67.5 -118q0 -39 -19.5 -63.5t-52.5 -23.5t-43 11q16 27 16.5 74t-40.5 88t-114 41t-123 -46t-50 -119
t47 -133t113.5 -107.5t133.5 -97.5t114 -117.5t47 -156.5z" />
    <glyph glyph-name="Scaron" unicode="&#x160;" horiz-adv-x="892" 
d="M444 25q122 0 199.5 67.5t77.5 149.5t-43 147.5t-108.5 115.5t-141.5 113.5t-141.5 127t-108.5 158.5t-43 208q0 152 90 242t234 90q61 0 124.5 -8.5t65.5 -8.5q37 0 56 39h9q7 0 14 -8t3 -20q-35 -135 -35 -328q0 -4 -10 -5t-21.5 6t-11.5 42t-8 88q-23 160 -190 160
q-106 0 -173 -63.5t-67 -175t61.5 -203t148.5 -163t175 -144t149.5 -165t61.5 -196.5q0 -141 -99.5 -229.5t-269 -88.5t-265 83t-95.5 196q0 80 34 121t76.5 51t59.5 -18l6 -9q-59 -37 -59 -153q0 -78 61.5 -148.5t183.5 -70.5zM437.5 1542q-17.5 0 -21.5 4q-39 45 -124 130
t-85 87q-8 8 4 21.5t22 7.5l205 -150l205 150q13 8 22 -5t0.5 -21.5t-51.5 -53.5l-86 -90t-69 -76q-4 -4 -21.5 -4z" />
    <glyph glyph-name="scaron" unicode="&#x161;" horiz-adv-x="747" 
d="M356 20q94 0 148.5 45.5t54.5 109.5t-47 117.5t-113.5 98.5t-133 95.5t-114 125t-47.5 162.5q0 125 87.5 186.5t202 61.5t182 -50t67.5 -118q0 -39 -19.5 -63.5t-52.5 -23.5t-43 11q16 27 16.5 74t-40.5 88t-114 41t-123 -46t-50 -119t47 -133t113.5 -107.5t133.5 -97.5
q161 -120 161 -263q0 -109 -89 -172t-229.5 -63t-209 60t-68.5 130.5t24.5 102.5t56 32t45 -10t11.5 -12q-39 -39 -39 -99.5t44 -112t138 -51.5zM371.5 1137q-17.5 0 -21.5 4q-39 45 -125 131l-84 86q-8 8 4.5 21t22.5 7l205 -149l205 149q12 7 21 -5.5t1 -20.5
q-99 -99 -207 -219q-4 -4 -21.5 -4z" />
    <glyph glyph-name="uni0162" unicode="&#x162;" horiz-adv-x="974" 
d="M926 1261.5q0 -104.5 6 -169.5q0 -10 -21 -5q-18 8 -22 27q-25 188 -67 236q-40 47 -188 30q-34 -4 -50 -24q-36 -47 -35 -367v-567q-1 -316 27 -360q12 -18 34 -19h56q8 0 6 -23.5t-6 -23.5l-146 8l-59 -82q162 -12 170 -127q4 -66 -46 -110.5t-113.5 -44.5t-119.5 18
q-12 6 -6 27q2 12 27 6t67.5 -6t69.5 27.5t23.5 71.5t-39 66.5t-62 23.5t-29.5 5l-10 15q-8 8 0 16l80 94q-68 0 -166 -8q-6 0 -6 24.5t6 24.5q17 -2 49 -2q32 1 43 19q27 45 27 360v569q0 319 -34.5 359t-153.5 32q-59 -6 -85 -34.5t-44 -106.5t-22.5 -117t-33.5 -37
q-10 0 -10 5l6 174l-8 153q0 20 20 21l424 -10q285 0 361.5 6t83 0t1.5 -38t-5 -136.5z" />
    <glyph glyph-name="uni0163" unicode="&#x163;" horiz-adv-x="561" 
d="M526 987q0 -12 -7 -27.5t-28.5 -20.5t-195.5 -1q-13 -388 10 -758q4 -78 35 -117.5t83 -39.5t89 75q15 -5 27 -25t-9 -42q-27 -43 -98 -49l-55 -78q162 -12 170 -127q4 -66 -46 -111t-113.5 -45t-119.5 19q-13 6 -6 26q2 12 27 6t67.5 -6t69.5 27.5t24 72t-39 67
t-62.5 23.5t-29.5 5l-10 14q-8 8 0 16l76 91q-98 6 -157.5 71.5t-59.5 198.5l-2 688q-72 0 -123 -10q-6 6 2 29.5t16 27.5q23 8 103 8l-2 99q0 25 42 48q16 8 38 22q57 37 63 5l-6 -178q166 -4 225 10q2 -2 2 -14z" />
    <glyph glyph-name="Tcaron" unicode="&#x164;" horiz-adv-x="974" 
d="M301 20.5q0 24.5 6 24.5q17 -2 49 -2q32 1 43 19q27 45 27 360v569q0 319 -34.5 359t-153.5 32q-59 -6 -85 -34.5t-44 -106.5t-22.5 -117t-33.5 -37q-10 0 -10 5l6 174l-8 153q0 20 20 21l424 -10q285 0 361.5 6t83 0t1.5 -38t-5 -136.5t6 -169.5q0 -10 -21 -5
q-18 8 -22 27q-25 188 -67 236q-40 47 -188 30q-34 -4 -50 -24q-36 -47 -35 -367v-567q-1 -316 27 -360q12 -18 34 -19h56q8 0 6 -23.5t-6 -23.5l-181 8q-72 0 -178 -8q-6 0 -6 24.5zM482.5 1538q-17.5 0 -21.5 4q-39 45 -124 130t-85 87q-8 8 4 21.5t23 7.5l204 -150
l205 150q13 8 22 -5t0.5 -21.5t-51.5 -53.5l-86 -90t-69 -76q-4 -4 -21.5 -4z" />
    <glyph glyph-name="tcaron" unicode="&#x165;" horiz-adv-x="561" 
d="M526 987q0 -12 -7 -27.5t-28.5 -20.5t-195.5 -1q-13 -388 10 -758q8 -156 118 -158q52 0 89 76q15 -5 27 -25t-9 -42q-35 -51 -131 -51t-163.5 65.5t-67.5 206.5l-2 688q-72 0 -123 -10q-6 6 2 29.5t16 27.5q23 8 103 8l-2 99q0 25 42 48q16 8 38 22q57 37 63 5l-6 -178
q166 -4 225 10q2 -2 2 -14zM615 1403q42 0 69 -31t25 -93.5t-43 -127t-91 -96.5q-2 -2 -8 2.5t-2 19.5q44 107 -19 171q-30 30 -30 68t28.5 62.5t70.5 24.5z" />
    <glyph glyph-name="Tbar" unicode="&#x166;" horiz-adv-x="974" 
d="M926 1261.5q0 -104.5 6 -169.5q0 -10 -21 -5q-18 8 -22 27q-25 188 -67 236q-40 47 -188 30q-34 -4 -50 -24q-36 -47 -35 -367v-248q70 0 123 13q2 -2 2 -15.5t-7.5 -30t-25 -21.5t-92.5 -1v-264q-1 -316 27 -360q12 -18 34 -19h56q8 0 6 -23.5t-6 -23.5l-181 8
q-72 0 -178 -8q-6 0 -6 24.5t6 24.5q17 -2 49 -2q32 1 43 19q27 45 27 360v266q-113 0 -154 -10q-7 7 2 32t17 29q23 10 135 6v246q0 319 -34.5 359t-153.5 32q-59 -6 -85 -34.5t-44 -106.5t-22.5 -117t-33.5 -37q-10 0 -10 5l6 174l-8 153q0 20 20 21l424 -10
q285 0 361.5 6t83 0t1.5 -38t-5 -136.5z" />
    <glyph glyph-name="tbar" unicode="&#x167;" horiz-adv-x="561" 
d="M526 987q0 -12 -7 -27.5t-28.5 -20.5t-195.5 -1q0 -57 -2 -92q76 0 129 12q2 -2 2 -15.5t-7 -29.5t-27 -21t-97 -1q-13 -195 12 -611q8 -156 118 -158q52 0 89 76q15 -5 27 -25t-9 -42q-35 -51 -131 -51t-163.5 65.5t-67.5 206.5q0 424 -2 541q-94 0 -143 -11
q-7 7 1.5 32.5t16.5 29.5q25 10 125 6v90q-72 0 -123 -10q-6 6 2 29.5t16 27.5q23 8 103 8l-2 99q0 25 42 48q16 8 38 22q57 37 63 5l-6 -178q166 -4 225 10q2 -2 2 -14z" />
    <glyph glyph-name="Umacron" unicode="&#x16a;" horiz-adv-x="1142" 
d="M942 592v-64q0 -334 -106 -448q-92 -98 -228 -98q-66 0 -115 10t-107 44t-100 90t-71 159.5t-29 242.5v463q0 335 -28 381q-12 20 -32.5 18.5t-57.5 -1.5q-9 0 -7 24.5t7 24.5q106 -8 178 -8l180 6q6 0 6 -26t-6 -26l-53 5q-23 3 -35 -17q-29 -47 -29 -383l-2 -401
q0 -559 316 -559q95 0 177.5 102.5t82.5 396.5q0 860 -58 861l-57 -3q-8 0 -8 24t4 24l145 -7q125 0 152 7q12 0 10 -24t-6 -24l-70 3q-53 0 -53 -797zM330 1612v33q0 14 14 14l281 -4h2l260 4q14 0 14 -12v-37q0 -12 -14 -13l-260 5h-2l-281 -5q-14 0 -14 15z" />
    <glyph glyph-name="umacron" unicode="&#x16b;" 
d="M557 981q164 0 209 7t45 -38q0 -37 -11 -300t-4 -411.5t23 -168t84 -19.5q6 0 6 -24.5t-6 -24.5l-149 -8q-63 -2 -74.5 5t-13.5 52v123h-2q-33 -74 -97.5 -135.5t-167.5 -61.5q-229 0 -229 263l8 321q0 213 -13 294t-46 81l-58 -4q-10 0 -8 24.5t6 24.5q166 0 211 7
t45 -38q0 -23 -14 -391q0 -344 20.5 -440t100.5 -96q70 1 127 83q108 157 127 414v62q0 199 -13.5 276.5t-46.5 77.5l-57 -4q-10 0 -8 24.5t6 24.5zM178 1214q0 14 15 15l280 -4h2l260 4q14 0 15 -12v-37q0 -12 -15 -13l-260 4h-2l-280 -4q-14 0 -15 15v32z" />
    <glyph glyph-name="Uring" unicode="&#x16e;" horiz-adv-x="1142" 
d="M942 592v-64q0 -334 -106 -448q-92 -98 -228 -98q-66 0 -115 10t-107 44t-100 90t-71 159.5t-29 242.5v463q0 335 -28 381q-12 20 -32.5 18.5t-57.5 -1.5q-9 0 -7 24.5t7 24.5q106 -8 178 -8l180 6q6 0 6 -26t-6 -26l-53 5q-23 3 -35 -17q-29 -47 -29 -383l-2 -401
q0 -559 316 -559q95 0 177.5 102.5t82.5 396.5q0 860 -58 861l-57 -3q-8 0 -8 24t4 24l145 -7q125 0 152 7q12 0 10 -24t-6 -24l-70 3q-53 0 -53 -797zM600 1554q43 0 70.5 40t27.5 116t-27.5 115t-70.5 39t-70.5 -39t-27.5 -115t27.5 -116t70.5 -40zM600 1518
q-80 0 -136 56t-56 135t56 135.5t136 56.5t136.5 -56.5t56.5 -135.5t-56.5 -135t-136.5 -56z" />
    <glyph glyph-name="uring" unicode="&#x16f;" 
d="M557 981q164 0 209 7t45 -38q0 -37 -11 -300t-4 -411.5t23 -168t84 -19.5q6 0 6 -24.5t-6 -24.5l-149 -8q-63 -2 -74.5 5t-13.5 52v123h-2q-33 -74 -97.5 -135.5t-167.5 -61.5q-229 0 -229 263l8 321q0 213 -13 294t-46 81l-58 -4q-10 0 -8 24.5t6 24.5q166 0 211 7
t45 -38q0 -23 -14 -391q0 -344 20.5 -440t100.5 -96q70 1 127 83q108 157 127 414v62q0 199 -13.5 276.5t-46.5 77.5l-57 -4q-10 0 -8 24.5t6 24.5zM449 1434q-43 0 -71 -39t-28 -115t28 -116t71 -40t70.5 40t27.5 116t-27.5 115t-70.5 39zM448.5 1087q-79.5 0 -136 56.5
t-56.5 135.5t56.5 135t136 56t136 -56t56.5 -135t-56.5 -135.5t-136 -56.5z" />
    <glyph glyph-name="Uhungarumlaut" unicode="&#x170;" horiz-adv-x="1142" 
d="M942 592v-64q0 -334 -106 -448q-92 -98 -228 -98q-66 0 -115 10t-107 44t-100 90t-71 159.5t-29 242.5v463q0 335 -28 381q-12 20 -32.5 18.5t-57.5 -1.5q-9 0 -7 24.5t7 24.5q106 -8 178 -8l180 6q6 0 6 -26t-6 -26l-53 5q-23 3 -35 -17q-29 -47 -29 -383l-2 -401
q0 -559 316 -559q95 0 177.5 102.5t82.5 396.5q0 860 -58 861l-57 -3q-8 0 -8 24t4 24l145 -7q125 0 152 7q12 0 10 -24t-6 -24l-70 3q-53 0 -53 -797zM684 1554q-12 8 -6 21l143 211q12 18 47 -10q55 -41 19 -95q-10 -16 -31 -32l-141 -105q-4 -4 -13 0zM457 1565
q-12 8 -6 20l145 211q10 18 45 -10q55 -43 18 -98q-12 -14 -30 -29l-142 -105q-4 -4 -12 0z" />
    <glyph glyph-name="uhungarumlaut" unicode="&#x171;" 
d="M557 981q164 0 209 7t45 -38q0 -37 -11 -300t-4 -411.5t23 -168t84 -19.5q6 0 6 -24.5t-6 -24.5l-149 -8q-63 -2 -74.5 5t-13.5 52v123h-2q-33 -74 -97.5 -135.5t-167.5 -61.5q-229 0 -229 263l8 321q0 213 -13 294t-46 81l-58 -4q-10 0 -8 24.5t6 24.5q166 0 211 7
t45 -38q0 -23 -14 -391q0 -344 20.5 -440t100.5 -96q70 1 127 83q108 157 127 414v62q0 199 -13.5 276.5t-46.5 77.5l-57 -4q-10 0 -8 24.5t6 24.5zM532 1124q-12 8 -6 21l144 211q12 18 47 -10q55 -41 18 -95q-10 -16 -30 -32l-142 -105q-4 -4 -12 0zM305 1135q-12 8 -6 20
l145 211q10 18 45 -10q55 -43 19 -99q-12 -14 -31 -28l-141 -105q-4 -4 -12 0z" />
    <glyph glyph-name="Uogonek" unicode="&#x172;" horiz-adv-x="1142" 
d="M942 592v-64q0 -459 -229 -532q-59 -33 -90 -81t-31 -95t27.5 -81t67.5 -34t64.5 6t26.5 -6q7 -20 -6 -27q-55 -18 -118.5 -18t-111.5 45t-48 111q0 100 120 166h-16q-120 0 -195 44t-117 100t-71 159.5t-29 242.5v463q0 335 -28 381q-12 20 -32.5 18.5t-57.5 -1.5
q-9 0 -7 24.5t7 24.5q106 -8 178 -8l180 6q6 0 6 -26t-6 -26l-53 5q-23 3 -35 -17q-29 -47 -29 -383l-2 -401q0 -559 316 -559q95 0 177.5 102.5t82.5 396.5q0 860 -58 861l-57 -3q-8 0 -8 24t4 24l145 -7q125 1 152 7q12 0 10 -24t-6 -24l-70 3q-53 0 -53 -797z" />
    <glyph glyph-name="uogonek" unicode="&#x173;" 
d="M557 981q164 0 209 7t45 -38q0 -37 -11 -300t-4 -411.5t23.5 -168t83.5 -19.5q6 0 6 -24.5t-6 -24.5h-20q-66 -33 -98.5 -83t-32.5 -98t27.5 -82t67.5 -34t64.5 6t26.5 -6q7 -20 -6 -27q-55 -18 -119 -18t-112 45t-48 111q0 113 152 182q-103 -13 -120 -2.5t-19 55.5v123
h-2q-33 -74 -97.5 -135.5t-167.5 -61.5q-229 0 -229 263l8 321q0 213 -13 294t-46 81l-58 -4q-10 0 -8 24.5t6 24.5q166 0 211 7t45 -38q0 -23 -14 -391q0 -344 20.5 -440t100.5 -96q70 1 127 83q108 157 127 414v62q0 199 -13.5 276.5t-46.5 77.5l-57 -4q-10 0 -8 24.5
t6 24.5z" />
    <glyph glyph-name="Wcircumflex" unicode="&#x174;" horiz-adv-x="1675" 
d="M1642 1412.5q0 -23.5 -6 -23.5l-69 2q-33 -1 -85 -177q-87 -292 -183.5 -710t-114.5 -496q-2 -6 -33 -5t-33 5q-14 55 -127 486t-149 577q-102 -348 -182 -654t-109 -415q-2 -4 -33 -5t-33 5l-168 743q-123 546 -163 618q-16 28 -37 28l-70 -2q-6 0 -6 24.5t6 24.5
l178 -8h2l179 8q8 0 6 -26t-6 -26q-12 2 -39 3q-29 0 -33 -33q-12 -84 106 -611l109 -475h8q141 528 242 963q-50 168 -94 168l-70 -2q-6 0 -6 24.5t6 24.5l178 -8h2l178 8q8 0 6 -25.5t-6 -25.5q-11 2 -33 2q-22 1 -29 -7q-21 -23 -1.5 -147t108.5 -459l136 -510h8
q153 610 180 768t39.5 252.5t-15.5 94.5l-49 -2q-6 0 -6 23.5t6 23.5l150 -6q81 0 149 6q6 0 6 -23.5zM836.5 1808q19.5 0 21.5 -2q39 -39 207 -219q2 -2 -6 -7q-22 -14 -47 1l-174 113l-179 -107q-31 -14 -53 2q12 12 91 95t118 122q2 2 21.5 2z" />
    <glyph glyph-name="wcircumflex" unicode="&#x175;" horiz-adv-x="1376" 
d="M1356 965.5q0 -23.5 -6 -23.5l-60 2q-20 0 -38 -22q-40 -51 -127 -354.5t-148 -557.5q-2 -4 -41 -4t-41 4q-83 350 -211 744q-31 -86 -105 -332t-114 -412q-2 -4 -41 -4t-41 4q-51 244 -120.5 487.5t-98.5 324.5t-43.5 101.5t-34.5 20.5l-59 -2q-6 0 -6.5 24.5t6.5 24.5
l168 -8h2l178 8q8 0 6 -25.5t-6 -25.5q-12 2 -41 2t-33 -33q-2 -61 64 -336l88 -368h10l102 340q66 221 82 313q-20 53 -35.5 69.5t-33.5 16.5l-56 -2q-6 0 -6 24.5t6 24.5l164 -8h2l178 8q8 0 6 -25.5t-6 -25.5q-12 2 -34.5 2t-29.5 -9t-4.5 -61t68.5 -299l97 -366h10
l94 338q100 358 72 393q-6 6 -19 6l-49 -2q-6 0 -6 23.5t6 23.5l139 -6l140 6q6 0 6 -23.5zM683 1403q19 0 22 -2q37 -37 114.5 -121t91.5 -98q2 -2 -6 -8q-22 -15 -47 2l-174 112l-178 -106q-31 -14 -53 2q12 12 91 95t118 122q2 2 21 2z" />
    <glyph glyph-name="Ycircumflex" unicode="&#x176;" horiz-adv-x="1052" 
d="M588 422q0 -314 28 -358q12 -18 33 -21h56q6 0 6 -23.5t-6 -23.5l-181 8l-178 -8q-6 0 -6 24.5t6 24.5t26 -2q50 -5 66 21q28 44 27 358v158q-242 592 -291 701.5t-80 109.5l-69 -2q-12 0 -7 24.5t9 24.5l174 -8l178 6q10 0 8 -23.5t-6 -23.5h-37q-14 1 -18 -11
q-23 -66 217 -684h24q201 549 215 647q8 51 -8 52l-49 -2q-8 0 -7 24.5t7 24.5l157 -8l144 6q4 0 8 -23.5t-10 -23.5l-66 2q-46 0 -165.5 -289t-204.5 -522v-160zM525.5 1808q19.5 0 21.5 -2q37 -37 114.5 -120.5t92.5 -98.5q2 -2 -6 -7q-22 -13 -48 1l-174 113l-178 -107
q-31 -14 -53 2q12 12 91 95t118 122q2 2 21.5 2z" />
    <glyph glyph-name="ycircumflex" unicode="&#x177;" horiz-adv-x="892" 
d="M870 967.5q0 -23.5 -6 -23.5l-69 2q-20 0 -46 -62.5t-112.5 -317.5t-153.5 -441q-92 -229 -190 -352t-223 -135q-60 -6 -102 18q-59 34 -50 112q4 35 19 27q74 -45 153 -35q158 16 295 269q-125 451 -142 505t-30.5 99t-22 71.5t-19.5 61.5t-19.5 54.5t-18.5 43.5
q-13 31 -35 53.5t-47.5 21.5t-56.5 -1q-6 0 -6 24.5t6 24.5q106 -4 186 -4h2l187 4q8 0 6 -25.5t-6 -25.5q-12 2 -39 2q-31 2 -35 -35q-8 -72 43 -265.5t117 -418.5h12l55 170q115 347 126 489q5 62 -13 68l-49 -2q-6 0 -6 23.5t6 23.5l139 -6q80 0 139 6q6 0 6 -23.5z
M482.5 1358q19.5 0 21.5 -2q37 -37 114.5 -121t92.5 -98q1 -1 -7 -7q-21 -14 -47 0l-174 113l-178 -106q-31 -14 -53 2q12 12 91 95t118 122q2 2 21.5 2z" />
    <glyph glyph-name="Ydieresis" unicode="&#x178;" horiz-adv-x="1052" 
d="M588 422q0 -314 28 -358q12 -18 33 -21h56q6 0 6 -23.5t-6 -23.5l-181 8l-178 -8q-6 0 -6 24.5t6 24.5t26 -2q50 -5 66 21q28 44 27 358v158q-242 592 -291 701.5t-80 109.5l-69 -2q-12 0 -7 24.5t9 24.5l174 -8l178 6q10 0 8 -23.5t-6 -23.5h-37q-14 1 -18 -11
q-23 -66 217 -684h24q201 549 215 647q8 51 -8 52l-49 -2q-8 0 -7 24.5t7 24.5l157 -8l144 6q4 0 8 -23.5t-10 -23.5l-66 2q-46 0 -165.5 -289t-204.5 -522v-160zM653 1548q-84 0 -84 84t84 84t84 -84t-84 -84zM393 1548q-84 0 -84 84t84 84t84 -84t-84 -84z" />
    <glyph glyph-name="Zacute" unicode="&#x179;" horiz-adv-x="843" 
d="M765 -14l-559 10q-140 0 -157.5 -3t-23 6t-5.5 17l617 1362l-334 4q-59 2 -83.5 -28.5t-34 -73.5t-17.5 -94t-12 -68.5t-15.5 -24t-19.5 -6.5t-10 5l6 174q0 57 -8 153q-2 20 23.5 20.5t206.5 -4.5t273.5 -5t161.5 4q2 0 4 -10.5t0 -14.5l-616 -1352q141 -10 424 -10
q59 0 89.5 36.5t57.5 233.5q0 10 11.5 15.5t20.5 5.5t11 -4l-6 -174q0 -57 8 -154q2 -20 -13 -20zM270 1575q-10 10 -2 22l197 201q14 16 47 -16q49 -53 8 -105q-16 -18 -45 -32l-172 -86q-8 -4 -14 2z" />
    <glyph glyph-name="zacute" unicode="&#x17a;" horiz-adv-x="747" 
d="M92 -8q-10 0 -23 8t-8 18q229 442 263 512t182 420q-127 0 -202.5 -9t-101.5 -38t-36 -70.5t-17.5 -91t-11.5 -69.5q-6 -31 -35 -29q-10 0 -10 4l6 174q0 57 -8 154q-2 20 21 20l432 -6h114q6 0 11.5 -12t3.5 -14q-184 -352 -256 -505t-176 -425q156 0 225 9t94 36.5
t35 69.5t17 92.5t10 62.5q8 37 38 35q8 0 9 -4l-6 -174q0 -57 8 -154q2 -20 -21 -20l-291 8q-37 2 -146.5 0t-119.5 -2zM244 1169q-10 10 -2 23l196 201q14 16 47 -17q49 -53 9 -104q-16 -18 -45 -33l-173 -86q-8 -4 -14 2z" />
    <glyph glyph-name="Zdotaccent" unicode="&#x17b;" horiz-adv-x="843" 
d="M765 -14l-559 10q-140 0 -157.5 -3t-23 6t-5.5 17l617 1362l-334 4q-59 2 -83.5 -28.5t-34 -73.5t-17.5 -94t-12 -68.5t-15.5 -24t-19.5 -6.5t-10 5l6 174q0 57 -8 153q-2 20 23.5 20.5t206.5 -4.5t273.5 -5t161.5 4q2 0 4 -10.5t0 -14.5l-616 -1352q141 -10 424 -10
q59 0 89.5 36.5t57.5 233.5q0 10 11.5 15.5t20.5 5.5t11 -4l-6 -174q0 -57 8 -154q2 -20 -13 -20zM389 1554q-92 0 -92 92.5t92 92.5t92 -92.5t-92 -92.5z" />
    <glyph glyph-name="zdotaccent" unicode="&#x17c;" horiz-adv-x="747" 
d="M92 -8q-10 0 -23 8t-8 18q229 442 263 512t182 420q-127 0 -202.5 -9t-101.5 -38t-36 -70.5t-17.5 -91t-11.5 -69.5q-6 -31 -35 -29q-10 0 -10 4l6 174q0 57 -8 154q-2 20 21 20l432 -6h114q6 0 11.5 -12t3.5 -14q-184 -352 -256 -505t-176 -425q156 0 225 9t94 36.5
t35 69.5t17 92.5t10 62.5q8 37 38 35q8 0 9 -4l-6 -174q0 -57 8 -154q2 -20 -21 -20l-291 8q-37 2 -146.5 0t-119.5 -2zM362.5 1149q-92.5 0 -92.5 92t92.5 92t92.5 -92t-92.5 -92z" />
    <glyph glyph-name="Zcaron" unicode="&#x17d;" horiz-adv-x="843" 
d="M765 -14l-559 10q-140 0 -157.5 -3t-23 6t-5.5 17l617 1362l-334 4q-59 2 -83.5 -28.5t-34 -73.5t-17.5 -94t-12 -68.5t-15.5 -24t-19.5 -6.5t-10 5l6 174q0 57 -8 153q-2 20 23.5 20.5t206.5 -4.5t273.5 -5t161.5 4q2 0 4 -10.5t0 -14.5l-616 -1352q141 -10 424 -10
q59 0 89.5 36.5t57.5 233.5q0 10 11.5 15.5t20.5 5.5t11 -4l-6 -174q0 -57 8 -154q2 -20 -13 -20zM396.5 1542q-17.5 0 -21.5 4q-39 45 -124 130t-85 87q-8 8 4 21.5t23 7.5l204 -150l205 150q13 8 22 -5t0.5 -21.5t-51.5 -53.5l-86 -90t-69 -76q-4 -4 -21.5 -4z" />
    <glyph glyph-name="zcaron" unicode="&#x17e;" horiz-adv-x="747" 
d="M92 -8q-10 0 -23 8t-8 18q229 442 263 512t182 420q-127 0 -202.5 -9t-101.5 -38t-36 -70.5t-17.5 -91t-11.5 -69.5q-6 -31 -35 -29q-10 0 -10 4l6 174q0 57 -8 154q-2 20 21 20l432 -6h114q6 0 11.5 -12t3.5 -14q-184 -352 -256 -505t-176 -425q156 0 225 9t94 36.5
t35 69.5t17 92.5t10 62.5q8 37 38 35q8 0 9 -4l-6 -174q0 -57 8 -154q2 -20 -21 -20l-291 8q-37 2 -146.5 0t-119.5 -2zM370.5 1137q-18.5 0 -22.5 4q-39 45 -123 131l-86 86q-7 7 4.5 20.5t22.5 7.5l205 -149l204 149q13 8 22 -5t1 -21q-99 -99 -207 -219q-2 -4 -20.5 -4z
" />
    <glyph glyph-name="Scommaaccent" unicode="&#x218;" horiz-adv-x="892" 
d="M358 -202q0 38 29 62.5t71 24.5t68.5 -30.5t24.5 -93t-43 -127t-90 -97.5q-2 -2 -8 2.5t-2 20.5q44 106 -20 170q-30 30 -30 68zM444 25q122 0 199.5 67.5t77.5 149.5t-43 147.5t-108.5 115.5t-141.5 113.5t-141.5 127t-108.5 158.5t-43 208q0 152 90 242t234 90
q61 0 124.5 -8.5t65.5 -8.5q37 0 56 39h9q7 0 14 -8t3 -20q-35 -135 -35 -328q0 -4 -10 -5t-21.5 6t-11.5 42t-8 88q-23 160 -190 160q-106 0 -173 -63.5t-67 -175t61.5 -203t148.5 -163t175 -144t149.5 -165t61.5 -196.5q0 -141 -99.5 -229.5t-269 -88.5t-265 83t-95.5 196
q0 80 34 121t76.5 51t59.5 -18l6 -9q-59 -37 -59 -153q0 -78 61.5 -148.5t183.5 -70.5z" />
    <glyph glyph-name="scommaaccent" unicode="&#x219;" horiz-adv-x="747" 
d="M293 -202q0 38 28.5 62.5t70.5 24.5t68.5 -30.5t24.5 -93t-43 -127t-90 -97.5q-2 -2 -8 2.5t-2 20.5q44 104 -20 170q-30 30 -29 68zM356 20q94 0 148.5 45.5t54.5 109.5t-47 117.5t-113.5 98.5t-133 95.5t-114 125t-47.5 162.5q0 125 87.5 186.5t202 61.5t182 -50
t67.5 -118q0 -39 -19.5 -63.5t-52.5 -23.5t-43 11q16 27 16.5 74t-40.5 88t-114 41t-123 -46t-50 -119t47 -133t113.5 -107.5t133.5 -97.5q161 -120 161 -263q0 -109 -89 -172t-229.5 -63t-209 60t-68.5 130.5t24.5 102.5t56 32t45 -10t11.5 -12q-39 -39 -39 -99.5t44 -112
t138 -51.5z" />
    <glyph glyph-name="uni021A" unicode="&#x21a;" horiz-adv-x="974" 
d="M403 -198q0 38 29 62.5t71 24.5t68.5 -30.5t24.5 -93t-43 -127t-90 -97.5q-2 -2 -8 2.5t-2 20.5q44 106 -20 170q-30 30 -30 68zM301 20.5q0 24.5 6 24.5q17 -2 49 -2q32 1 43 19q27 45 27 360v569q0 319 -34.5 359t-153.5 32q-59 -6 -85 -34.5t-44 -106.5t-22.5 -117
t-33.5 -37q-10 0 -10 5l6 174l-8 153q0 20 20 21l424 -10q285 0 361.5 6t83 0t1.5 -38t-5 -136.5t6 -169.5q0 -10 -21 -5q-18 8 -22 27q-25 188 -67 236q-40 47 -188 30q-34 -4 -50 -24q-36 -47 -35 -367v-567q-1 -316 27 -360q12 -18 34 -19h56q8 0 6 -23.5t-6 -23.5
l-181 8q-72 0 -178 -8q-6 0 -6 24.5z" />
    <glyph glyph-name="uni021B" unicode="&#x21b;" horiz-adv-x="561" 
d="M419 -129q42 0 68.5 -30.5t24.5 -93.5t-43 -127t-90 -97q-2 -2 -8 2.5t-2 19.5q44 105 -20 171q-30 30 -30 68t29 62.5t71 24.5zM526 987q0 -12 -7 -27.5t-28.5 -20.5t-195.5 -1q-13 -388 10 -758q8 -156 118 -158q52 0 89 76q15 -5 27 -25t-9 -42q-35 -51 -131 -51
t-163.5 65.5t-67.5 206.5l-2 688q-72 0 -123 -10q-6 6 2 29.5t16 27.5q23 8 103 8l-2 99q0 25 42 48q16 8 38 22q57 37 63 5l-6 -178q166 -4 225 10q2 -2 2 -14z" />
    <glyph glyph-name="uni0237" unicode="&#x237;" horiz-adv-x="479" 
d="M72 981q174 0 219 7t45 -38q0 -12 -9.5 -179.5t-9.5 -303.5l5 -418q0 -412 -332 -420l-19 41q117 12 168 133t54 433l2 231q0 262 -13.5 365.5t-50.5 103.5l-57 -4q-14 0 -15 10l-2 23q0 16 15 16z" />
    <glyph glyph-name="circumflex" unicode="&#x2c6;" horiz-adv-x="602" 
d="M302 1362q20 0 22 -2q36 -37 114 -121t92 -98q2 -2 -6 -7q-22 -14 -47 1l-174 112l-178 -106q-31 -14 -53 2q12 12 91 95t118 122q1 2 21 2z" />
    <glyph glyph-name="caron" unicode="&#x2c7;" horiz-adv-x="606" 
d="M302 1112q-18 0 -23 4q-39 45 -123 131l-86 86q-7 7 8 27q8 8 18 2l205 -150l205 150q12 7 21 -5q9 -13 1 -21t-51 -54l-86 -90t-69 -76q-2 -4 -20 -4z" />
    <glyph glyph-name="breve" unicode="&#x2d8;" horiz-adv-x="581" 
d="M127 1313q12 0 12 -13q0 -52 45 -84q44 -32 106 -32t107 33t45 83q0 12 13 13h24q14 0 15 -17q0 -92 -56 -143t-147 -51q-92 0 -148 51q-55 51 -55 143q0 16 14 17h25z" />
    <glyph glyph-name="dotaccent" unicode="&#x2d9;" horiz-adv-x="335" 
d="M168 1108q-92 0 -92 92t92 92t92 -92t-92 -92z" />
    <glyph glyph-name="ring" unicode="&#x2da;" horiz-adv-x="536" 
d="M268 1108q43 0 71 40t28 116t-28 114t-71 39q-42 0 -70 -39q-28 -38 -28 -114t28 -116t70 -40zM268 1071q-80 0 -136 56q-56 55 -56 135t56 136t136 56t136 -56t56 -135t-56 -135t-136 -57z" />
    <glyph glyph-name="ogonek" unicode="&#x2db;" horiz-adv-x="425" 
d="M172 -198q0 -50 28 -84q41 -50 140 -25q16 4 18 -8q6 -21 -6 -27q-54 -18 -118 -18t-112 45t-48 110q0 127 188 197l49 -6q-71 -33 -105 -84q-34 -50 -34 -100z" />
    <glyph glyph-name="tilde" unicode="&#x2dc;" horiz-adv-x="772" 
d="M230 1331q58 0 168 -51t152 -51q42 -1 66 21t23 61q2 0 10 1q7 0 17 -14t10 -38q0 -53 -41 -83t-99 -30t-166 51t-149 51q-41 1 -65 -23t-23 -63q-2 0 -10 -1q-7 0 -17 14t-10 38q0 55 38 86t96 31z" />
    <glyph glyph-name="hungarumlaut" unicode="&#x2dd;" horiz-adv-x="593" 
d="M307 1108q-12 8 -6 20l143 211q12 18 48 -10q75 -56 -13 -127l-141 -104q-4 -4 -12 0zM80 1118q-12 8 -6 21l145 211q10 18 45 -11q55 -43 19 -98q-12 -14 -31 -29l-141 -104q-4 -4 -13 0z" />
    <glyph glyph-name="gravecomb" unicode="&#x300;" horiz-adv-x="0" 
d="M-131 1138q-39 -68 -203 60q-84 66 -41 131q23 35 45 29q4 -2 6 -6q72 -123 197 -201q2 -3 -4 -13z" />
    <glyph glyph-name="acutecomb" unicode="&#x301;" horiz-adv-x="0" 
d="M-385 1128q-10 10 -2 23l197 201q14 16 47 -17q49 -53 8 -104q-16 -18 -45 -33l-172 -86q-8 -4 -15 2z" />
    <glyph glyph-name="uni0302" unicode="&#x302;" horiz-adv-x="0" 
d="M-351.5 1362q19.5 0 21.5 -2q37 -37 115 -121t92 -98q2 -1 -6 -7q-22 -15 -47 1l-174 112l-178 -106q-31 -14 -54 2q12 12 91 95t118 122q2 2 21.5 2z" />
    <glyph glyph-name="tildecomb" unicode="&#x303;" horiz-adv-x="0" 
d="M-588.5 1331q58.5 0 168 -51t151.5 -51t65.5 21.5t23.5 60.5q2 0 10 1t17.5 -13.5t9.5 -38.5q0 -53 -41 -83t-99.5 -30t-166 51t-148.5 51t-64.5 -23.5t-23.5 -62.5q-2 0 -10.5 -1t-17.5 13.5t-9 38.5q0 55 38 86t96.5 31z" />
    <glyph glyph-name="uni0304" unicode="&#x304;" horiz-adv-x="0" 
d="M-694 1182v32q0 14 14 15l281 -4h2l260 4q14 0 14 -12v-37q0 -12 -14 -13l-260 4h-2l-281 -4q-14 0 -14 15z" />
    <glyph glyph-name="uni0306" unicode="&#x306;" horiz-adv-x="0" 
d="M-504 1313q12 0 12 -13q0 -51 45.5 -83.5t106.5 -32.5t106.5 32.5t45.5 83.5q0 12 12 13h24q14 0 15 -17q0 -92 -55.5 -143t-147.5 -51t-147.5 51t-55.5 143q0 16 15 17h24z" />
    <glyph glyph-name="uni0307" unicode="&#x307;" horiz-adv-x="0" 
d="M-174 1108q-92 0 -92 92t92 92t92 -92t-92 -92z" />
    <glyph glyph-name="uni0308" unicode="&#x308;" horiz-adv-x="0" 
d="M-762 1118q-84 0 -84 84t84 84t84 -84t-84 -84zM-1022 1118q-84 0 -84 84t84 84t84 -84t-84 -84z" />
    <glyph glyph-name="uni030A" unicode="&#x30a;" horiz-adv-x="0" 
d="M-315 1108q43 0 70.5 40t27.5 115.5t-27.5 114.5t-70.5 39t-71 -39t-28 -114.5t28 -115.5t71 -40zM-315.5 1071q-79.5 0 -136 56.5t-56.5 135.5t56.5 135t136 56t135.5 -56q56 -58 56.5 -136t-56 -134.5t-136 -56.5z" />
    <glyph glyph-name="uni030B" unicode="&#x30b;" horiz-adv-x="0" 
d="M-877 1108q-12 8 -6 20l144 211q12 18 47 -10q75 -56 -13 -127l-141 -104q-4 -4 -12 0zM-1104 1118q-12 8 -6 21l145 211q10 18 45 -11q55 -43 19 -98q-12 -14 -31 -29l-141 -104q-4 -4 -12 0z" />
    <glyph glyph-name="uni030C" unicode="&#x30c;" horiz-adv-x="0" 
d="M-354.5 1112q-18.5 0 -22.5 4q-39 45 -123 131l-86 86q-8 8 4 21.5t23 7.5l205 -150l204 150q13 8 22 -5t1 -21.5t-51 -53.5l-86 -90t-70 -76q-2 -4 -20.5 -4z" />
    <glyph glyph-name="uni0312" unicode="&#x312;" horiz-adv-x="0" 
d="M-129 1129.5q0 -37.5 -28.5 -62.5t-70.5 -25t-69 31t-25 92.5t43.5 126t88.5 97.5q4 4 11 -3.5t5 -11.5q-29 -43 -22 -94t37 -82t30 -68.5z" />
    <glyph glyph-name="uni0326" unicode="&#x326;" horiz-adv-x="0" 
d="M-313 -202q0 38 28.5 62.5t70.5 24.5t68.5 -30.5t24.5 -93t-43 -127t-90 -97.5q-2 -2 -8 2.5t-2 20.5q44 104 -20 170q-30 30 -29 68z" />
    <glyph glyph-name="uni0327" unicode="&#x327;" horiz-adv-x="0" 
d="M-309.5 -315q42.5 0 69.5 27.5t24 71.5t-39 66.5t-62.5 23.5t-28.5 5l-10 15q-8 8 0 16l92 108l35 -14l-60 -82q162 -12 170 -127q4 -66 -46 -110.5t-113.5 -44.5t-118.5 18q-14 7 -6 27q2 12 26.5 6t67 -6z" />
    <glyph glyph-name="uni0328" unicode="&#x328;" horiz-adv-x="0" 
d="M-307 -199q0 -49 27.5 -82.5t67.5 -33.5t64.5 6t26.5 -6q6 -21 -6 -27q-55 -18 -118.5 -18t-112 45t-48.5 110q0 127 189 197l49 -6q-70 -33 -104.5 -84.5t-34.5 -100.5z" />
    <glyph glyph-name="uni0335" unicode="&#x335;" horiz-adv-x="0" 
d="M-164 548q0 -13 -7 -29.5t-26.5 -20.5t-163 -1t-204.5 -10q-7 7 1.5 32.5t16.5 29.5q23 10 167 5t214 9q2 -2 2 -15z" />
    <glyph glyph-name="uni0336" unicode="&#x336;" horiz-adv-x="0" 
d="M-125 1399q-219 -453 -308.5 -655t-198.5 -454.5t-142 -326.5q-14 -14 -67 24q-7 5 -5 7q305 645 357.5 764t291.5 672q6 6 22.5 -2.5t27 -13.5t17.5 -9t5 -6z" />
    <glyph glyph-name="uni0337" unicode="&#x337;" horiz-adv-x="0" 
d="M-345.5 494q-141.5 -136 -174.5 -187q-6 -6 -21.5 23.5t-13.5 38.5q10 25 154.5 163t177.5 189q2 1 12 -11q32 -40 19.5 -60t-154 -156z" />
    <glyph glyph-name="uni0338" unicode="&#x338;" horiz-adv-x="0" 
d="M-123 1397q-224 -442 -649 -1436q-8 -12 -21 -6l-43 18q-16 8 -8 19q299 637 369.5 795.5t279.5 642.5q6 12 21 6l43 -21q16 -4 8 -18z" />
    <glyph glyph-name="Wgrave" unicode="&#x1e80;" horiz-adv-x="1675" 
d="M1642 1412.5q0 -23.5 -6 -23.5l-69 2q-33 -1 -85 -177q-87 -292 -183.5 -710t-114.5 -496q-2 -6 -33 -5t-33 5q-14 55 -127 486t-149 577q-102 -348 -182 -654t-109 -415q-2 -4 -33 -5t-33 5l-168 743q-123 546 -163 618q-16 28 -37 28l-70 -2q-6 0 -6 24.5t6 24.5
l178 -8h2l179 8q8 0 6 -26t-6 -26q-12 2 -39 3q-29 0 -33 -33q-12 -84 106 -611l109 -475h8q141 528 242 963q-50 168 -94 168l-70 -2q-6 0 -6 24.5t6 24.5l178 -8h2l178 8q8 0 6 -25.5t-6 -25.5q-11 2 -33 2q-22 1 -29 -7q-21 -23 -1.5 -147t108.5 -459l136 -510h8
q153 610 180 768t39.5 252.5t-15.5 94.5l-49 -2q-6 0 -6 23.5t6 23.5l150 -6q81 0 149 6q6 0 6 -23.5zM700 1644q-84 66 -41 132q23 35 46 28q4 -2 6 -6q72 -123 196 -201q2 -2 -4 -12q-40 -68 -203 59z" />
    <glyph glyph-name="wgrave" unicode="&#x1e81;" horiz-adv-x="1376" 
d="M1356 965.5q0 -23.5 -6 -23.5l-60 2q-20 0 -38 -22q-40 -51 -127 -354.5t-148 -557.5q-2 -4 -41 -4t-41 4q-83 350 -211 744q-31 -86 -105 -332t-114 -412q-2 -4 -41 -4t-41 4q-51 244 -120.5 487.5t-98.5 324.5t-43.5 101.5t-34.5 20.5l-59 -2q-6 0 -6.5 24.5t6.5 24.5
l168 -8h2l178 8q8 0 6 -25.5t-6 -25.5q-12 2 -41 2t-33 -33q-2 -61 64 -336l88 -368h10l102 340q66 221 82 313q-20 53 -35.5 69.5t-33.5 16.5l-56 -2q-6 0 -6 24.5t6 24.5l164 -8h2l178 8q8 0 6 -25.5t-6 -25.5q-12 2 -34.5 2t-29.5 -9t-4.5 -61t68.5 -299l97 -366h10
l94 338q100 358 72 393q-6 6 -19 6l-49 -2q-6 0 -6 23.5t6 23.5l139 -6l140 6q6 0 6 -23.5zM547 1239.5q-84 65.5 -41 130.5q23 35 45 29q4 -2 6 -6q72 -123 197 -201q2 -2 -4 -12q-19 -30 -56 -23q-63 17 -147 82.5z" />
    <glyph glyph-name="Wacute" unicode="&#x1e82;" horiz-adv-x="1675" 
d="M1642 1412.5q0 -23.5 -6 -23.5l-69 2q-33 -1 -85 -177q-87 -292 -183.5 -710t-114.5 -496q-2 -6 -33 -5t-33 5q-14 55 -127 486t-149 577q-102 -348 -182 -654t-109 -415q-2 -4 -33 -5t-33 5l-168 743q-123 546 -163 618q-16 28 -37 28l-70 -2q-6 0 -6 24.5t6 24.5
l178 -8h2l179 8q8 0 6 -26t-6 -26q-12 2 -39 3q-29 0 -33 -33q-12 -84 106 -611l109 -475h8q141 528 242 963q-50 168 -94 168l-70 -2q-6 0 -6 24.5t6 24.5l178 -8h2l178 8q8 0 6 -25.5t-6 -25.5q-11 2 -33 2q-22 1 -29 -7q-21 -23 -1.5 -147t108.5 -459l136 -510h8
q153 610 180 768t39.5 252.5t-15.5 94.5l-49 -2q-6 0 -6 23.5t6 23.5l150 -6q81 0 149 6q6 0 6 -23.5zM727 1561l-18 14q-10 10 -2 22l196 201q14 16 47 -16q49 -53 8 -105q-16 -18 -45 -32l-172 -86q-8 -4 -14 2z" />
    <glyph glyph-name="wacute" unicode="&#x1e83;" horiz-adv-x="1376" 
d="M1356 965.5q0 -23.5 -6 -23.5l-60 2q-20 0 -38 -22q-40 -51 -127 -354.5t-148 -557.5q-2 -4 -41 -4t-41 4q-83 350 -211 744q-31 -86 -105 -332t-114 -412q-2 -4 -41 -4t-41 4q-51 244 -120.5 487.5t-98.5 324.5t-43.5 101.5t-34.5 20.5l-59 -2q-6 0 -6.5 24.5t6.5 24.5
l168 -8h2l178 8q8 0 6 -25.5t-6 -25.5q-12 2 -41 2t-33 -33q-2 -61 64 -336l88 -368h10l102 340q66 221 82 313q-20 53 -35.5 69.5t-33.5 16.5l-56 -2q-6 0 -6 24.5t6 24.5l164 -8h2l178 8q8 0 6 -25.5t-6 -25.5q-12 2 -34.5 2t-29.5 -9t-4.5 -61t68.5 -299l97 -366h10
l94 338q100 358 72 393q-6 6 -19 6l-49 -2q-6 0 -6 23.5t6 23.5l139 -6l140 6q6 0 6 -23.5zM573 1155l-18 14q-10 10 -2 23l197 201q14 16 47 -17q49 -53 8 -104q-16 -18 -45 -33l-172 -86q-9 -4 -15 2z" />
    <glyph glyph-name="Wdieresis" unicode="&#x1e84;" horiz-adv-x="1675" 
d="M1642 1412.5q0 -23.5 -6 -23.5l-69 2q-33 -1 -85 -177q-87 -292 -183.5 -710t-114.5 -496q-2 -6 -33 -5t-33 5q-14 55 -127 486t-149 577q-102 -348 -182 -654t-109 -415q-2 -4 -33 -5t-33 5l-168 743q-123 546 -163 618q-16 28 -37 28l-70 -2q-6 0 -6 24.5t6 24.5
l178 -8h2l179 8q8 0 6 -26t-6 -26q-12 2 -39 3q-29 0 -33 -33q-12 -84 106 -611l109 -475h8q141 528 242 963q-50 168 -94 168l-70 -2q-6 0 -6 24.5t6 24.5l178 -8h2l178 8q8 0 6 -25.5t-6 -25.5q-11 2 -33 2q-22 1 -29 -7q-21 -23 -1.5 -147t108.5 -459l136 -510h8
q153 610 180 768t39.5 252.5t-15.5 94.5l-49 -2q-6 0 -6 23.5t6 23.5l150 -6q81 0 149 6q6 0 6 -23.5zM965 1548q-84 0 -84 84t84 84t84 -84t-84 -84zM704.5 1548q-83.5 0 -83.5 84t83.5 84t83.5 -84t-83.5 -84z" />
    <glyph glyph-name="wdieresis" unicode="&#x1e85;" horiz-adv-x="1376" 
d="M1356 965.5q0 -23.5 -6 -23.5l-60 2q-20 0 -38 -22q-40 -51 -127 -354.5t-148 -557.5q-2 -4 -41 -4t-41 4q-83 350 -211 744q-31 -86 -105 -332t-114 -412q-2 -4 -41 -4t-41 4q-51 244 -120.5 487.5t-98.5 324.5t-43.5 101.5t-34.5 20.5l-59 -2q-6 0 -6.5 24.5t6.5 24.5
l168 -8h2l178 8q8 0 6 -25.5t-6 -25.5q-12 2 -41 2t-33 -33q-2 -61 64 -336l88 -368h10l102 340q66 221 82 313q-20 53 -35.5 69.5t-33.5 16.5l-56 -2q-6 0 -6 24.5t6 24.5l164 -8h2l178 8q8 0 6 -25.5t-6 -25.5q-12 2 -34.5 2t-29.5 -9t-4.5 -61t68.5 -299l97 -366h10
l94 338q100 358 72 393q-6 6 -19 6l-49 -2q-6 0 -6 23.5t6 23.5l139 -6l140 6q6 0 6 -23.5zM811 1143q-84 0 -84 84t84 84t84 -84t-84 -84zM551 1143q-84 0 -84 84t84 84t84 -84t-84 -84z" />
    <glyph glyph-name="Ygrave" unicode="&#x1ef2;" horiz-adv-x="1052" 
d="M588 422q0 -314 28 -358q12 -18 33 -21h56q6 0 6 -23.5t-6 -23.5l-181 8l-178 -8q-6 0 -6 24.5t6 24.5t26 -2q50 -5 66 21q28 44 27 358v158q-242 592 -291 701.5t-80 109.5l-69 -2q-12 0 -7 24.5t9 24.5l174 -8l178 6q10 0 8 -23.5t-6 -23.5h-37q-14 1 -18 -11
q-23 -66 217 -684h24q201 549 215 647q8 51 -8 52l-49 -2q-8 0 -7 24.5t7 24.5l157 -8l144 6q4 0 8 -23.5t-10 -23.5l-66 2q-46 0 -165.5 -289t-204.5 -522v-160zM389 1644q-84 66 -41 132q23 35 45 28q4 -2 6 -6q72 -123 197 -201q2 -2 -4 -12q-40 -68 -203 59z" />
    <glyph glyph-name="ygrave" unicode="&#x1ef3;" horiz-adv-x="892" 
d="M870 967.5q0 -23.5 -6 -23.5l-69 2q-20 0 -46 -62.5t-112.5 -317.5t-153.5 -441q-92 -229 -190 -352t-223 -135q-60 -6 -102 18q-59 34 -50 112q4 35 19 27q74 -45 153 -35q158 16 295 269q-125 451 -142 505t-30.5 99t-22 71.5t-19.5 61.5t-19.5 54.5t-18.5 43.5
q-13 31 -35 53.5t-47.5 21.5t-56.5 -1q-6 0 -6 24.5t6 24.5q106 -4 186 -4h2l187 4q8 0 6 -25.5t-6 -25.5q-12 2 -39 2q-31 2 -35 -35q-8 -72 43 -265.5t117 -418.5h12l55 170q115 347 126 489q5 62 -13 68l-49 -2q-6 0 -6 23.5t6 23.5l139 -6q80 0 139 6q6 0 6 -23.5z
M346 1194q-84 66 -41 131q23 35 45 29q4 -2 6 -6q72 -123 197 -201q2 -3 -4 -13q-39 -70 -203 60z" />
    <glyph glyph-name="endash" unicode="&#x2013;" horiz-adv-x="841" 
d="M766 561q0 -11 -8 -27t-26 -20q-20 -4 -306 -1t-348 -9q-6 6 2 30t16 27q25 10 312 5t356 9q2 -2 2 -14z" />
    <glyph glyph-name="emdash" unicode="&#x2014;" horiz-adv-x="987" 
d="M909 550q0 -14 -7 -30q-6 -16 -26 -20t-378 -1t-420 -10q-7 7 2 32q8 25 16 30q25 10 383 5t428 9q2 -2 2 -15z" />
    <glyph glyph-name="quoteleft" unicode="&#x2018;" horiz-adv-x="337" 
d="M264 1201q0 -37 -28 -59t-64 -22q-100 0 -100 129q0 80 54 146q55 65 112 65q20 -2 18 -8q-61 -60 -56 -102q4 -42 34 -76t30 -73z" />
    <glyph glyph-name="quoteright" unicode="&#x2019;" horiz-adv-x="337" 
d="M266 1341q0 -79 -54 -145t-112 -66q-20 2 -18 9q61 61 56 102t-35 76q-29 35 -29 73t28 60t64 20q100 0 100 -129z" />
    <glyph glyph-name="quotesinglbase" unicode="&#x201a;" horiz-adv-x="337" 
d="M266 14q0 -80 -54 -146t-112 -65q-20 2 -18 9q61 61 56 102t-35 76q-29 35 -29 73q0 37 28 59t64 21q100 0 100 -129z" />
    <glyph glyph-name="quotedblleft" unicode="&#x201c;" horiz-adv-x="632" 
d="M555 1207q0 -37 -29 -59t-63 -22q-100 0 -101 129q0 79 54 145t112 66q20 -2 19 -8q-61 -61 -56 -102t35 -76t29 -73zM176 1126q-100 0 -100 129q0 80 54 146q55 65 112 65q20 -2 18 -8q-61 -61 -56 -102t35 -76q29 -35 29 -73q0 -37 -28 -59t-64 -22z" />
    <glyph glyph-name="quotedblright" unicode="&#x201d;" horiz-adv-x="632" 
d="M557 1341q-1 -79 -55 -145t-111 -66q-20 2 -18 9q61 61 56 102t-35 76t-30 73t30 60q28 22 63 20q100 0 100 -129zM78 1390q0 38 28 60t64 20q100 0 100 -129q0 -79 -54 -145t-112 -66q-20 2 -18 9q61 61 56 102t-34 76q-30 35 -30 73z" />
    <glyph glyph-name="quotedblbase" unicode="&#x201e;" horiz-adv-x="632" 
d="M557 14q-1 -80 -55 -146t-111 -65q-20 2 -18 9q61 61 56 102t-35 76t-30 73q0 37 30 59q28 22 63 21q100 0 100 -129zM78 63q0 37 28 59t64 21q100 0 100 -129q0 -80 -54 -146t-112 -65q-20 2 -18 9q63 63 55 112q-4 31 -33 66q-30 35 -30 73z" />
    <glyph glyph-name="dagger" unicode="&#x2020;" horiz-adv-x="686" 
d="M295 -72q19 751 12 1141q-195 -12 -244 -27q-2 2 -2 30q1 28 17 38t229 23q0 281 -4 372q0 6 39 6t39 -6q-6 -119 -12 -370q133 6 190 24q2 0 3 -16q1 -15 -5 -33t-16 -23q-29 -8 -174 -16q-2 -111 0 -551t6 -592q0 -6 -39 -6t-39 6z" />
    <glyph glyph-name="daggerdbl" unicode="&#x2021;" horiz-adv-x="681" 
d="M61 455q-2 2 -2 31q-1 29 17 37q18 9 231 22v184q0 229 -2 340q-195 -12 -244 -27q-2 2 -2 30q1 28 17 38t229 23q0 281 -4 372q0 6 39 6t39 -6q-6 -119 -12 -370q133 6 190 24q2 0 3 -16q1 -15 -5 -33t-16 -23q-29 -8 -174 -16q-7 -387 0 -524q141 8 192 24q2 0 3 -16
q1 -15 -5 -33t-16 -22q-29 -8 -174 -17q0 -281 6 -555q0 -6 -39 -6t-39 6q12 440 14 553q-195 -12 -246 -26z" />
    <glyph glyph-name="bullet" unicode="&#x2022;" horiz-adv-x="356" 
d="M178 506q-102 0 -102 101t102 101t103 -102q-1 -100 -103 -100z" />
    <glyph glyph-name="ellipsis" unicode="&#x2026;" horiz-adv-x="919" 
d="M162 -16q-84 0 -84 84t84 84t84 -84t-84 -84zM756 -14q-84 0 -84 84t84 84t84 -84t-84 -84zM457 -14q-84 0 -84 84t84 84t84 -84t-84 -84z" />
    <glyph glyph-name="perthousand" unicode="&#x2030;" horiz-adv-x="2060" 
d="M1706 39q143 0 143 267t-143 267t-143 -267t143 -267zM1049 39q143 0 143 267t-143 267t-143 -267t143 -267zM1706 -14q-121 0 -202 89t-81 232t82 231t201 89q119 0 201 -88q82 -87 82 -231t-81 -233t-202 -89zM1049 -14q-121 0 -202 89t-81 232t82 231t201 89
q119 0 201 -88q82 -87 81 -231t-81 -233t-201 -89zM358 866q144 0 144 268t-144 267q-144 1 -143 -267q0 -268 143 -268zM1075 1442q-198 -395 -312 -648t-349 -788q-6 -10 -44 -8t-36 6q196 393 396 839t265 599q6 10 64 6zM358 813q-122 0 -202 89q-80 88 -80 232t82 232
t200 88t201 -88q82 -88 82 -231t-81 -233t-202 -89z" />
    <glyph glyph-name="guilsinglleft" unicode="&#x2039;" horiz-adv-x="483" 
d="M53 572q0 14 4 16q207 152 275 309q4 8 28 -8q64 -43 35 -119q-53 -109 -239 -199q186 -90 237 -194q28 -77 -35 -120q-25 -17 -26 -11q-74 176 -275 309q-4 3 -4 17z" />
    <glyph glyph-name="guilsinglright" unicode="&#x203a;" horiz-adv-x="485" 
d="M430 572q0 -14 -4 -17q-201 -133 -274 -309q-2 -6 -27 11q-63 43 -35 120q51 104 238 194q-186 90 -240 199q-28 76 36 119q24 16 28 8q67 -157 274 -309q4 -2 4 -16z" />
    <glyph glyph-name="fraction" unicode="&#x2044;" horiz-adv-x="598" 
d="M536 1485q8 0 20 -3q10 -3 22 -6q12 -4 19 -8t5 -6q-157 -410 -238 -650t-165 -496t-123 -373q-8 -8 -42 3t-34 15q207 565 269 751l257 771q2 2 10 2z" />
    <glyph glyph-name="Euro" unicode="&#x20ac;" horiz-adv-x="993" 
d="M872 1184q0 -8 -10 -12t-21 2q-11 4 -12 8q0 106 -8 133q-29 96 -139 96t-189 -127q-92 -149 -104 -508q139 -4 201 10q2 0 0 -16q-6 -49 -31 -53q-37 -8 -172 -4v-80q113 0 160 10q2 0 0 -16q-6 -48 -33 -55t-125 -3q20 -567 273 -567q123 0 169 145q7 -2 21 -5t30 -20
t7 -40q-23 -49 -84 -85t-148 -36q-383 0 -415 610q-160 0 -205 -10q-2 0 2 28t22 40q23 10 179 6v80q-113 0 -160 -10q-2 0 2 29t22 37q18 9 138 9q6 164 39 290t75 197t100 115q95 74 208 74q57 0 107 -15t60 -15q20 -1 46 57q9 9 22 0q14 -8 12 -15q-39 -116 -39 -284z
" />
    <glyph glyph-name="trademark" unicode="&#x2122;" horiz-adv-x="1413" 
d="M1333 760q0 -18 -8 -19l-102 2l-115 -2q-8 1 -8 19t8 18h41q14 0 14 48t-18 161l-33 217l-127 -448q-2 -4 -30 -5t-29 3l-125 444l-29 -213q-19 -155 -15 -182q3 -28 11 -29l37 2q4 0 7 -15t-5 -20l-88 2l-103 -2q-6 -1 -7 17t7 18l50 -2q20 0 51 211l59 418q2 6 29 9
t29 -5l137 -518l143 514q4 10 31 10t29 -10l61 -416q33 -211 51 -211l39 2q8 0 8 -18zM98 1419h502q20 0 21 -10v-192q0 -11 -23 -5t-23 31q0 129 -75 135q-35 2 -62 0t-35 -42t-8 -175v-176q0 -211 25 -211h41q2 0 6 -16t-10 -19l-109 4l-110 -4q-11 1 -7 19t11 18l39 -2
q25 0 24 211v176q0 139 -7 177t-36 40q-86 6 -109 -12q-22 -18 -25 -49t-3 -78q-2 -14 -19 -26t-28 -1l-2 191q0 16 22 16z" />
    <glyph glyph-name="arrowleft" unicode="&#x2190;" horiz-adv-x="1134" 
d="M993 631q4 0 0 -32q-5 -33 -27 -63t-57 -26l-704 41q150 -82 192 -170q27 -77 -31 -123q-24 -18 -26 -12q-56 151 -153 231q-52 43 -121 78q-4 2 -5 16q0 14 5 17q201 100 274 309q2 6 26 -12q62 -46 31 -123q-43 -88 -192 -170z" />
    <glyph glyph-name="arrowup" unicode="&#x2191;" horiz-adv-x="911" 
d="M456 1042q14 0 15 -4q72 -144 172 -205q71 -44 137 -69q6 -2 -12 -26q-45 -60 -123 -31q-88 43 -170 192l41 -704q4 -35 -27 -58t-63 -27t-31 1l39 788q-82 -150 -170 -192q-77 -31 -123 31q-18 24 -12 26q209 74 309 274q4 4 18 4z" />
    <glyph glyph-name="arrowright" unicode="&#x2192;" horiz-adv-x="1130" 
d="M1071 572q0 -14 -4 -17q-143 -71 -206 -172q-40 -64 -68 -137q-2 -6 -26 12q-60 45 -32 123q43 88 193 170l-705 -41q-35 -4 -57 27t-27 63q-4 32 0 31l789 -39q-150 82 -193 170q-30 76 32 123q24 18 26 12q73 -209 274 -309q4 -2 4 -16z" />
    <glyph glyph-name="arrowdown" unicode="&#x2193;" horiz-adv-x="911" 
d="M454 100q-13 0 -16 4q-71 143 -172 206q-64 40 -137 69q-6 1 12 25q45 59 123 32q88 -43 170 -192l-41 704q-4 35 27 58q30 22 62 26t32 0l-39 -788q82 149 170 192q76 30 123 -32q18 -24 12 -25q-209 -74 -309 -275q-4 -4 -17 -4z" />
    <glyph glyph-name="arrowboth" unicode="&#x2194;" horiz-adv-x="1116" 
d="M909 664q84 0 84 -84t-84 -84t-84 84t84 84zM743 572q0 -14 -4 -17q-144 -72 -205 -172q-38 -61 -69 -137q-2 -6 -26 12q-60 45 -31 123q43 88 188 168l-393 -39q-35 -4 -58 27t-27 63t1 31l479 -37q-145 80 -190 168q-31 77 31 123q24 18 26 12q56 -150 152 -231
q52 -43 122 -78q4 -2 4 -16z" />
    <glyph glyph-name="arrowupdn" unicode="&#x2195;" horiz-adv-x="1120" 
d="M182 664q84 0 84 -84t-84 -84t-84 84t84 84zM348 571q0 14 4 17q143 71 206 172q38 61 69 137q1 6 25 -12q62 -47 32 -123q-45 -88 -190 -168l479 37q4 0 0 -32q-4 -33 -27 -63t-57 -26l-393 39q145 -80 188 -168q28 -78 -32 -123q-24 -18 -25 -12q-56 151 -153 231
q-52 43 -122 78q-4 2 -4 16z" />
    <glyph glyph-name="uni2196" unicode="&#x2196;" horiz-adv-x="1181" 
d="M326 305q0 80 -52 155t-145 95q-6 0 -7 15t7 16q98 25 149 95q50 71 50 148q0 6 19 -2t40 -30q19 -23 21 -63t-49 -92t-123 -75q72 -20 120 -72q48 -51 50 -93q0 -42 -20 -64t-40 -31q-20 -8 -20 -2zM975 662q84 0 84 -84t-84 -84q-59 0 -218 14t-239 35
q135 -78 176 -162q27 -77 -31 -123q-24 -18 -26 -12q-56 151 -153 231q-52 43 -122 78q-4 2 -4 16t4 17q143 71 206 172q38 61 69 137q2 6 26 -12q62 -46 31 -123q-43 -86 -182 -164q80 24 245 44t218 20z" />
    <glyph glyph-name="uni2197" unicode="&#x2197;" horiz-adv-x="978" 
d="M868 -227q-110 0 -158 79t-48 166q0 86 28 212t29 199q0 73 -56 141t-124 69q-101 0 -149 -74t-48 -162q0 -5 -19 3t-40 30q-50 57 13 137q34 43 87 72l-188 -37q-35 -4 -55 29q-19 33 -16 63t3 35l248 -45q-111 61 -115 154q2 55 62 82q20 8 18 2q2 -88 50 -162t138 -74
t141 67q50 67 50 141t-29 201q-28 127 -28 213t49 166t157 79q43 -2 43 -13q-57 -24 -92 -94t-35 -148t29 -204t29 -199q0 -75 -54 -141t-139 -94q86 -29 139 -96q54 -66 54 -140t-29 -200t-29 -202t36 -142q36 -68 91 -101q6 -2 -6 -6q-16 -6 -37 -6z" />
    <glyph glyph-name="uni2198" unicode="&#x2198;" horiz-adv-x="978" 
d="M717 494q-1 -36 -21 -58t-40 -30t-19 -3q0 88 -48 162t-149 74q-68 0 -124 -69q-56 -70 -56 -142t29 -198t29 -212t-50 -166q-49 -79 -157 -79q-43 2 -43 12q55 33 91 101t36 143t-29 201t-29 200t53 140t140 96q-86 29 -140 95q-53 67 -53 141t29 199t29 203t-35 148
t-92 94q-6 2 6 6q16 6 37 7q109 0 157 -79q48 -78 49 -166q-1 -88 -29 -214t-28 -200q0 -76 50 -142t140 -66t139 74q48 74 50 162q-2 8 25 -6q53 -29 55 -78q-4 -92 -115 -154l248 45q0 -4 3 -35q3 -32 -16 -64t-55 -28l-188 37q53 -29 87 -72t34 -79z" />
    <glyph glyph-name="uni2199" unicode="&#x2199;" horiz-adv-x="1181" 
d="M856 305q0 -6 -20 2t-40 31q-20 24 -20 64t49 92t121 73q-72 23 -123 75t-49 103q0 29 20 52t40 31t20 1q0 -78 50 -148t149 -95q8 0 7 -16t-7 -15q-93 -20 -145 -95t-52 -155zM823 572q0 -14 -4 -17q-143 -71 -206 -172q-40 -64 -68 -137q-2 -6 -26 12q-60 45 -32 123
q41 84 177 162q-80 -21 -239 -35t-218 -14q-84 0 -84 84t84 84q53 0 218 -20t245 -44q-139 78 -183 164q-30 76 32 123q24 18 26 12q57 -152 152 -231q52 -43 122 -78q4 -2 4 -16z" />
    <glyph glyph-name="minus" unicode="&#x2212;" horiz-adv-x="706" 
d="M563 566q0 -14 -7 -34q-6 -18 -26 -22t-215 -1t-256 -9q-7 7 2 35t17 32q26 10 220 5t263 10q2 -2 2 -16z" />
    <glyph glyph-name="approxequal" unicode="&#x2248;" horiz-adv-x="681" 
d="M604 454q0 -28 -33 -50t-93 -23q-60 0 -158 41t-138 41q-40 1 -60 -17q-22 -18 -22 -47q0 -2 -6 1q-18 9 -18 46t33 60q33 22 89 22t158 -41t142 -41t60 18q22 18 22 46q0 2 6 -1t12 -15t6 -40zM604 601q0 -29 -33 -51t-93 -22t-158 41t-138 41t-60 -17q-22 -17 -22 -46
q0 -2 -6 1q-18 9 -18 46q0 38 33 60t89 22t158 -41t142 -41t60 17q22 17 22 46q0 2 6 -1t12 -15t6 -40z" />
    <glyph glyph-name="notequal" unicode="&#x2260;" horiz-adv-x="704" 
d="M385 547q0 -8 -12 -74q137 -4 198 10q2 -2 2 -16q0 -15 -7 -33t-17 -20q-37 -8 -187 -4q-51 -299 -61 -379q-4 -8 -41 -1q-36 7 -37 11q47 211 80 371q-176 4 -233 -11q-7 7 2 35q8 28 16 33q23 10 227 6l13 72l2 12q-205 4 -260 -8q-6 6 2 35q8 28 16 32q29 12 254 5
q41 250 57 366q0 2 25 2t39 -6t14 -8q-41 -156 -78 -354q133 0 172 10q2 -3 2 -17t-7 -32t-17 -21q-33 -8 -162 -4q-2 -4 -2 -12z" />
    <glyph glyph-name="lessequal" unicode="&#x2264;" horiz-adv-x="770" 
d="M172 286q0 14 2 17q59 -14 265 -9t216 -2t19 -34t2 -37q-59 14 -256 9t-215 0q-17 6 -25 24t-8 32zM76 582q0 23 4 24q451 180 567 240q2 2 6 -4q8 -31 -10 -47l-436 -213l428 -211q20 -10 18 -47l-4 -7q-539 227 -569 240q-4 2 -4 25z" />
    <glyph glyph-name="greaterequal" unicode="&#x2265;" horiz-adv-x="731" 
d="M575 287q0 -14 -7 -33t-17 -21q-29 -6 -223 -3t-256 -9q-7 7 2 35q8 28 16 33q26 10 220 5t263 9q2 -2 2 -16zM672 582q0 -22 -4 -25q-31 -12 -570 -240l-4 15q2 31 19 39l428 211l-437 213q-20 10 -10 43q4 6 6 8q117 -59 568 -240q4 -2 4 -24z" />
    <glyph glyph-name="uni2706" unicode="&#x2706;" horiz-adv-x="1536" 
d="M768 1083q543 0 543 -604q0 -257 -124 -409t-374 -152q-205 0 -290 100t-3 265q-53 51 1 149t143 182q121 130 243 166q68 20 101 -30l51 -70q14 -20 -23 -62t-78 -57q-41 -16 -61 6l-27 35q-10 10 -53 -22q-43 -33 -63 -56q-33 -30 -58 -68t-18 -44l33 -25q25 -23 7 -63
t-58 -77q-40 -36 -62 -22l-23 17q-61 -127 13 -195t225 -67q205 0 315 126t109 387q0 529 -469 529q-227 0 -346 -141t-105 -402q4 -84 31 -174q6 -23 -13 -41t-42 -26t-27 -2q-41 113 -41 243q0 274 136 440q137 164 407 164z" />
    <glyph glyph-name="uni2712" unicode="&#x2712;" horiz-adv-x="974" 
d="M563 554q0 -18 12 -30t29 -12q35 0 39 35q17 -2 89 -2t73 8q0 8 -107 8h-55q-4 35 -39 35q-16 0 -29 -12q-12 -13 -12 -30zM594 383q-43 0 -94 66q-52 65 -70 65t-39 -37t-111 -37t-123 22q-34 22 -34 94t34 94t126 22t108 -36q17 -36 37 -36t72 65t94 65q44 0 108 -43
q64 -42 107 -83t43 -47t-43 -47t-107 -84t-108 -43z" />
    <glyph glyph-name="uni2713" unicode="&#x2713;" horiz-adv-x="1011" 
d="M454 100q-14 0 -16 4q-71 143 -172 206q-64 40 -137 69q-6 1 12 25q45 59 123 32q102 -49 191 -233q49 158 81 247q32 88 90 198t117 149q76 44 133 -24q22 -26 13 -28q-213 -84 -418 -641q-3 -4 -17 -4z" />
    <glyph glyph-name="uni27B8" unicode="&#x27b8;" horiz-adv-x="2582" 
d="M2458 645q4 0 0 -35q-4 -36 -27 -68t-57 -28l-830 41q-24 0 -24 26t24 25zM1057 580q0 -26 -25 -25l-829 -41q-35 -4 -58 29t-27 67t1 35l913 -39q25 0 25 -26zM1292 496q-84 0 -84 84t84 84t84 -84t-84 -84z" />
    <glyph glyph-name="uni27B9" unicode="&#x27b9;" horiz-adv-x="2916" 
d="M1796 483q-112 0 -113 84t105 84t556 -34q450 -33 450 -57t-444 -50q-442 -26 -554 -27zM1120 494q-112 0 -554 26q-443 26 -443 50q-1 24 449 58t555 34t106 -84q-1 -84 -113 -84zM1456 496q-84 0 -84 84t84 84t84 -84t-84 -84z" />
    <glyph glyph-name="A.ss01" horiz-adv-x="1216" 
d="M494 430q76 12 191.5 60.5t143.5 56.5l-149 614h-12q-139 -579 -174 -731zM399 371q-143 0 -255 55q-132 64 -136 212q-2 79 47 131t114 52t88 -23q7 -7 1 -10q-37 -8 -65.5 -50t-28.5 -109q0 -102 67.5 -154.5t174.5 -52.5h18q43 162 242 981q7 25 55 31h14l213 -869
q158 0 197 -112q18 -58 -6 -88l-11 -11q-61 84 -153 101q91 -353 123 -393q14 -18 44 -18.5t50 1.5q8 0 8 -24.5t-8 -24.5l-168 8h-2l-178 -8q-8 0 -8 25.5t8 25.5l39 -2q25 -1 32 19q16 48 -63 389q-43 -6 -168 -38t-203 -40q-70 -330 -24 -332l53 2q8 0 8 -23.5t-8 -23.5
l-154 6q-90 0 -129 -6q-8 0 -11 11t0 23.5t11 12.5l49 -2q45 0 134 328h-11z" />
    <glyph glyph-name="Aacute.ss01" horiz-adv-x="1216" 
d="M494 430q76 12 191.5 60.5t143.5 56.5l-149 614h-12q-139 -579 -174 -731zM399 371q-143 0 -255 55q-132 64 -136 212q-2 79 47 131t114 52t88 -23q7 -7 1 -10q-37 -8 -65.5 -50t-28.5 -109q0 -102 67.5 -154.5t174.5 -52.5h18q43 162 242 981q7 25 55 31h14l213 -869
q158 0 197 -112q18 -58 -6 -88l-11 -11q-61 84 -153 101q91 -353 123 -393q14 -18 44 -18.5t50 1.5q8 0 8 -24.5t-8 -24.5l-168 8h-2l-178 -8q-8 0 -8 25.5t8 25.5l39 -2q25 -1 32 19q16 48 -63 389q-43 -6 -168 -38t-203 -40q-70 -330 -24 -332l53 2q8 0 8 -23.5t-8 -23.5
l-154 6q-90 0 -129 -6q-8 0 -11 11t0 23.5t11 12.5l49 -2q45 0 134 328h-11zM602 1561l-18 14q-10 10 -2 22l196 201q14 16 47 -16q49 -53 9 -105q-16 -18 -46 -32l-172 -86q-8 -4 -14 2z" />
    <glyph glyph-name="Abreve.ss01" horiz-adv-x="1216" 
d="M494 430q76 12 191.5 60.5t143.5 56.5l-149 614h-12q-139 -579 -174 -731zM399 371q-143 0 -255 55q-132 64 -136 212q-2 79 47 131t114 52t88 -23q7 -7 1 -10q-37 -8 -65.5 -50t-28.5 -109q0 -102 67.5 -154.5t174.5 -52.5h18q43 162 242 981q7 25 55 31h14l213 -869
q158 0 197 -112q18 -58 -6 -88l-11 -11q-61 84 -153 101q91 -353 123 -393q14 -18 44 -18.5t50 1.5q8 0 8 -24.5t-8 -24.5l-168 8h-2l-178 -8q-8 0 -8 25.5t8 25.5l39 -2q25 -1 32 19q16 48 -63 389q-43 -6 -168 -38t-203 -40q-70 -330 -24 -332l53 2q8 0 8 -23.5t-8 -23.5
l-154 6q-90 0 -129 -6q-8 0 -11 11t0 23.5t11 12.5l49 -2q45 0 134 328h-11zM713 1532q-92 0 -147.5 51t-55.5 143q0 16 14 17h25q12 0 12 -12q0 -51 45 -84t106.5 -33t106.5 32.5t45 84.5q0 12 13 12h24q14 0 14 -17q0 -92 -55 -143t-147 -51z" />
    <glyph glyph-name="Acircumflex.ss01" horiz-adv-x="1216" 
d="M494 430q76 12 191.5 60.5t143.5 56.5l-149 614h-12q-139 -579 -174 -731zM399 371q-143 0 -255 55q-132 64 -136 212q-2 79 47 131t114 52t88 -23q7 -7 1 -10q-37 -8 -65.5 -50t-28.5 -109q0 -102 67.5 -154.5t174.5 -52.5h18q43 162 242 981q7 25 55 31h14l213 -869
q158 0 197 -112q18 -58 -6 -88l-11 -11q-61 84 -153 101q91 -353 123 -393q14 -18 44 -18.5t50 1.5q8 0 8 -24.5t-8 -24.5l-168 8h-2l-178 -8q-8 0 -8 25.5t8 25.5l39 -2q25 -1 32 19q16 48 -63 389q-43 -6 -168 -38t-203 -40q-70 -330 -24 -332l53 2q8 0 8 -23.5t-8 -23.5
l-154 6q-90 0 -129 -6q-8 0 -11 11t0 23.5t11 12.5l49 -2q45 0 134 328h-11zM711.5 1808q19.5 0 21.5 -2q39 -39 207 -219q2 -2 -6 -7q-22 -14 -47 1l-174 113l-178 -107q-31 -14 -54 2q12 12 91 95t118 122q2 2 21.5 2z" />
    <glyph glyph-name="Adieresis.ss01" horiz-adv-x="1216" 
d="M494 430q76 12 191.5 60.5t143.5 56.5l-149 614h-12q-139 -579 -174 -731zM399 371q-143 0 -255 55q-132 64 -136 212q-2 79 47 131t114 52t88 -23q7 -7 1 -10q-37 -8 -65.5 -50t-28.5 -109q0 -102 67.5 -154.5t174.5 -52.5h18q43 162 242 981q7 25 55 31h14l213 -869
q158 0 197 -112q18 -58 -6 -88l-11 -11q-61 84 -153 101q91 -353 123 -393q14 -18 44 -18.5t50 1.5q8 0 8 -24.5t-8 -24.5l-168 8h-2l-178 -8q-8 0 -8 25.5t8 25.5l39 -2q25 -1 32 19q16 48 -63 389q-43 -6 -168 -38t-203 -40q-70 -330 -24 -332l53 2q8 0 8 -23.5t-8 -23.5
l-154 6q-90 0 -129 -6q-8 0 -11 11t0 23.5t11 12.5l49 -2q45 0 134 328h-11zM840 1548q-84 0 -84 84t84 84t84 -84t-84 -84zM580 1548q-84 0 -84 84t84 84t84 -84t-84 -84z" />
    <glyph glyph-name="Agrave.ss01" horiz-adv-x="1216" 
d="M494 430q76 12 191.5 60.5t143.5 56.5l-149 614h-12q-139 -579 -174 -731zM399 371q-143 0 -255 55q-132 64 -136 212q-2 79 47 131t114 52t88 -23q7 -7 1 -10q-37 -8 -65.5 -50t-28.5 -109q0 -102 67.5 -154.5t174.5 -52.5h18q43 162 242 981q7 25 55 31h14l213 -869
q158 0 197 -112q18 -58 -6 -88l-11 -11q-61 84 -153 101q91 -353 123 -393q14 -18 44 -18.5t50 1.5q8 0 8 -24.5t-8 -24.5l-168 8h-2l-178 -8q-8 0 -8 25.5t8 25.5l39 -2q25 -1 32 19q16 48 -63 389q-43 -6 -168 -38t-203 -40q-70 -330 -24 -332l53 2q8 0 8 -23.5t-8 -23.5
l-154 6q-90 0 -129 -6q-8 0 -11 11t0 23.5t11 12.5l49 -2q45 0 134 328h-11zM576 1644q-84 66 -41 132q23 35 45 28q4 -2 6 -6q72 -123 196 -201q2 -2 -4 -12q-40 -68 -202 59z" />
    <glyph glyph-name="Amacron.ss01" horiz-adv-x="1216" 
d="M494 430q76 12 191.5 60.5t143.5 56.5l-149 614h-12q-139 -579 -174 -731zM399 371q-143 0 -255 55q-132 64 -136 212q-2 79 47 131t114 52t88 -23q7 -7 1 -10q-37 -8 -65.5 -50t-28.5 -109q0 -102 67.5 -154.5t174.5 -52.5h18q43 162 242 981q7 25 55 31h14l213 -869
q158 0 197 -112q18 -58 -6 -88l-11 -11q-61 84 -153 101q91 -353 123 -393q14 -18 44 -18.5t50 1.5q8 0 8 -24.5t-8 -24.5l-168 8h-2l-178 -8q-8 0 -8 25.5t8 25.5l39 -2q25 -1 32 19q16 48 -63 389q-43 -6 -168 -38t-203 -40q-70 -330 -24 -332l53 2q8 0 8 -23.5t-8 -23.5
l-154 6q-90 0 -129 -6q-8 0 -11 11t0 23.5t11 12.5l49 -2q45 0 134 328h-11zM442 1645q0 14 15 14l280 -4h2l260 4q14 0 15 -12v-37q0 -12 -15 -13l-260 5h-2l-280 -5q-14 0 -15 15v33z" />
    <glyph glyph-name="Aogonek.ss01" horiz-adv-x="1216" 
d="M494 430q76 12 191.5 60.5t143.5 56.5l-149 614h-12q-139 -579 -174 -731zM399 371q-143 0 -255 55q-132 64 -136 212q-2 79 47 131t114 52t88 -23q7 -7 1 -10q-37 -8 -65.5 -50t-28.5 -109q0 -102 67.5 -154.5t174.5 -52.5h18q43 162 242 981q7 25 55 31h14l213 -869
q158 0 197 -112q18 -58 -6 -88l-11 -11q-61 84 -153 101q91 -353 123 -393q14 -18 44 -18.5t50 1.5q8 0 8 -24.5t-8 -24.5h-10q-66 -33 -98.5 -83t-32.5 -98t27.5 -82t67.5 -34t64.5 6t26.5 -6q7 -20 -6 -27q-55 -18 -119 -18t-112 45t-48 111q0 123 170 188q-49 6 -98 6h-2
l-178 -8q-8 0 -8 25.5t8 25.5l39 -2q25 -1 32 19q16 48 -63 389q-43 -6 -168 -38t-203 -40q-70 -330 -24 -332l53 2q8 0 8 -23.5t-8 -23.5l-154 6q-90 0 -129 -6q-8 0 -11 11t0 23.5t11 12.5l49 -2q45 0 134 328h-11z" />
    <glyph glyph-name="Aring.ss01" horiz-adv-x="1216" 
d="M494 430q76 12 191.5 60.5t143.5 56.5l-149 614h-12q-139 -579 -174 -731zM399 371q-143 0 -255 55q-132 64 -136 212q-2 79 47 131t114 52t88 -23q7 -7 1 -10q-37 -8 -65.5 -50t-28.5 -109q0 -102 67.5 -154.5t174.5 -52.5h18q43 162 242 981q7 25 55 31h14l213 -869
q158 0 197 -112q18 -58 -6 -88l-11 -11q-61 84 -153 101q91 -353 123 -393q14 -18 44 -18.5t50 1.5q8 0 8 -24.5t-8 -24.5l-168 8h-2l-178 -8q-8 0 -8 25.5t8 25.5l39 -2q25 -1 32 19q16 48 -63 389q-43 -6 -168 -38t-203 -40q-70 -330 -24 -332l53 2q8 0 8 -23.5t-8 -23.5
l-154 6q-90 0 -129 -6q-8 0 -11 11t0 23.5t11 12.5l49 -2q45 0 134 328h-11zM713 1864q-43 0 -71 -39t-28 -115t28 -116t71 -40t70.5 40t27.5 116t-27.5 115t-70.5 39zM713 1518q-80 0 -136.5 56t-56.5 135t56.5 135.5t136.5 56.5t136 -56.5t56 -135.5t-56 -135t-136 -56z
" />
    <glyph glyph-name="Atilde.ss01" horiz-adv-x="1216" 
d="M494 430q76 12 191.5 60.5t143.5 56.5l-149 614h-12q-139 -579 -174 -731zM399 371q-143 0 -255 55q-132 64 -136 212q-2 79 47 131t114 52t88 -23q7 -7 1 -10q-37 -8 -65.5 -50t-28.5 -109q0 -102 67.5 -154.5t174.5 -52.5h18q43 162 242 981q7 25 55 31h14l213 -869
q158 0 197 -112q18 -58 -6 -88l-11 -11q-61 84 -153 101q91 -353 123 -393q14 -18 44 -18.5t50 1.5q8 0 8 -24.5t-8 -24.5l-168 8h-2l-178 -8q-8 0 -8 25.5t8 25.5l39 -2q25 -1 32 19q16 48 -63 389q-43 -6 -168 -38t-203 -40q-70 -330 -24 -332l53 2q8 0 8 -23.5t-8 -23.5
l-154 6q-90 0 -129 -6q-8 0 -11 11t0 23.5t11 12.5l49 -2q45 0 134 328h-11zM481 1593q-2 0 -10 -1t-17.5 13.5t-9.5 54.5t38 70.5t96.5 30.5t168 -51t151.5 -51t65.5 21.5t23.5 60.5q2 0 10.5 1t17.5 -13.5t9 -38.5q0 -53 -41 -83t-99.5 -30t-166 51t-148.5 51t-64.5 -23.5
t-23.5 -62.5z" />
    <glyph glyph-name="B.ss01" horiz-adv-x="1302" 
d="M485 422v430q0 238 -14 500q0 16 38 20t76 -3t38 -19q-14 -162 -15 -498v-430q0 -311 27 -361q10 -20 75.5 -30.5t116.5 -10.5q90 0 138.5 79t48.5 218q0 225 -162 261q-66 14 -129 2q-8 -2 -6 22q2 43 41 43q96 0 162.5 98.5t66.5 253.5q0 205 -114.5 321t-296 116
t-284 -85t-102.5 -235q0 -78 45.5 -142.5t104.5 -64.5q12 0 -17.5 -21.5t-78.5 -21.5q-82 0 -144.5 63.5t-62.5 168t47 181.5t126 120q154 84 347 84q428 0 543 -275q35 -84 35 -194q0 -172 -67 -261t-148 -118v-6q86 -18 163.5 -102.5t77.5 -213.5q0 -176 -91 -253.5
t-230 -77.5q-45 0 -161 12t-134 12l-178 -8q-6 0 -6.5 24.5t6.5 24.5l57 -2q23 1 34 19q27 46 27 360z" />
    <glyph glyph-name="C.ss01" horiz-adv-x="919" 
d="M838 1260q0 -91 -48.5 -140t-113.5 -49q-65 -1 -87 23q-7 8 -1 10q37 8 65.5 47t28.5 107.5t-40 115.5t-96 45q-56 -3 -102 -37q-186 -141 -186 -704q0 -460 136 -606q65 -70 147 -70q135 0 168 145q4 14 38.5 -13.5t20.5 -63.5q-45 -109 -231 -109q-55 0 -104.5 12.5
t-111 56.5t-105.5 117.5t-74.5 211t-30.5 324.5t31.5 332.5t78.5 227.5t111 133q106 84 221.5 84t200 -54.5t84.5 -145.5z" />
    <glyph glyph-name="Cacute.ss01" horiz-adv-x="919" 
d="M838 1260q0 -91 -48.5 -140t-113.5 -49q-65 -1 -87 23q-7 8 -1 10q37 8 65.5 47t28.5 107.5t-40 115.5t-96 45q-56 -3 -102 -37q-186 -141 -186 -704q0 -460 136 -606q65 -70 147 -70q135 0 168 145q4 14 38.5 -13.5t20.5 -63.5q-45 -109 -231 -109q-55 0 -104.5 12.5
t-111 56.5t-105.5 117.5t-74.5 211t-30.5 324.5t31.5 332.5t78.5 227.5t111 133q106 84 221.5 84t200 -54.5t84.5 -145.5zM401 1602q-10 10 -2 22l197 201q14 16 47 -17q49 -53 8 -104q-16 -18 -45 -33l-172 -86q-8 -4 -14 2z" />
    <glyph glyph-name="Ccaron.ss01" horiz-adv-x="919" 
d="M838 1260q0 -91 -48.5 -140t-113.5 -49q-65 -1 -87 23q-7 8 -1 10q37 8 65.5 47t28.5 107.5t-40 115.5t-96 45q-56 -3 -102 -37q-186 -141 -186 -704q0 -460 136 -606q65 -70 147 -70q135 0 168 145q4 14 38.5 -13.5t20.5 -63.5q-45 -109 -231 -109q-55 0 -104.5 12.5
t-111 56.5t-105.5 117.5t-74.5 211t-30.5 324.5t31.5 332.5t78.5 227.5t111 133q106 84 221.5 84t200 -54.5t84.5 -145.5zM527.5 1569q-17.5 0 -21.5 4q-39 45 -124 130t-85 87q-7 7 4.5 21t22.5 8l204 -150l205 150q10 6 19 -2q11 -18 3.5 -25.5t-50.5 -52.5t-86.5 -90
t-69.5 -76q-4 -4 -21.5 -4z" />
    <glyph glyph-name="Ccedilla.ss01" horiz-adv-x="919" 
d="M682 1258.5q0 68.5 -40 115.5t-96 45q-56 -3 -102 -37q-186 -141 -186 -704q0 -460 136 -606q65 -70 147 -70q135 0 168 145q4 14 38.5 -13.5t20.5 -63.5q-45 -109 -231 -109q-53 0 -105 14l-41 -57q162 -12 170 -127q4 -66 -46 -111t-113.5 -45t-118.5 19q-13 6 -7 27
q2 12 27 6t67.5 -6t69.5 27.5t24 71.5t-39 66.5t-62.5 23.5t-28.5 5l-10 14q-8 8 0 17l69 82q-283 115 -282 692q0 190 31.5 335.5t78.5 227.5t111 133q106 84 221.5 84t200 -54t84.5 -145.5t-48.5 -140.5t-113.5 -49q-65 -1 -87 23q-7 8 -1 10q37 8 65.5 47t28.5 107.5z
" />
    <glyph glyph-name="D.ss01" horiz-adv-x="1296" 
d="M485 422v430q0 147 -14 410q0 16 38 20t76 -3t38 -19q-14 -162 -15 -408v-430q0 -231 4 -285.5t23 -75.5q33 -41 176 -41q246 0 246 656q0 758 -500 758q-162 0 -264.5 -85t-102.5 -235q0 -68 29 -109.5t68 -50.5q6 -2 -1 -9q-23 -23 -88 -23t-113 51t-48 139
q0 127 84 214q150 155 436 155q189 -1 342 -97q88 -56 154.5 -142.5t108.5 -232t42 -322.5t-26 -307q-47 -229 -159 -324q-89 -76 -196 -76l-278 24l-178 -8q-6 0 -6.5 24.5t6.5 24.5l57 -2q23 1 34 19q27 46 27 360z" />
    <glyph glyph-name="Eth.ss01" horiz-adv-x="1296" 
d="M485 422v340q-92 0 -141 -10q-6 6 2 31.5t16 29.5q25 10 123 6v33q0 147 -14 410q0 16 38 20t76 -3t38 -19q-14 -162 -15 -408v-37q90 0 135 12q2 -2 2 -15t-7 -29.5t-26.5 -21.5t-103.5 -1v-338q0 -231 4 -285.5t23 -75.5q33 -41 176 -41q246 0 246 656q0 758 -500 758
q-162 0 -264.5 -85t-102.5 -235q0 -68 29 -109.5t68 -50.5q6 -2 -1 -9q-23 -23 -88 -23t-113 51t-48 139q0 127 84 214q150 155 436 155q189 -1 342 -97q88 -56 154.5 -142.5t108.5 -232t42 -322.5t-26 -307q-47 -229 -159 -324q-89 -76 -196 -76l-278 24l-178 -8
q-6 0 -6.5 24.5t6.5 24.5l57 -2q23 1 34 19q27 46 27 360z" />
    <glyph glyph-name="Dcaron.ss01" horiz-adv-x="1296" 
d="M485 422v430q0 147 -14 410q0 16 38 20t76 -3t38 -19q-14 -162 -15 -408v-430q0 -231 4 -285.5t23 -75.5q33 -41 176 -41q246 0 246 656q0 758 -500 758q-162 0 -264.5 -85t-102.5 -235q0 -68 29 -109.5t68 -50.5q6 -2 -1 -9q-23 -23 -88 -23t-113 51t-48 139
q0 127 84 214q150 155 436 155q189 -1 342 -97q88 -56 154.5 -142.5t108.5 -232t42 -322.5t-26 -307q-47 -229 -159 -324q-89 -76 -196 -76l-278 24l-178 -8q-6 0 -6.5 24.5t6.5 24.5l57 -2q23 1 34 19q27 46 27 360zM542.5 1534q-18.5 0 -22.5 4q-39 45 -124 130t-85 87
q-8 8 4 21.5t23 7.5l205 -150l205 150q12 7 21 -5.5t1 -21t-51 -53.5l-86 -90t-70 -76q-2 -4 -20.5 -4z" />
    <glyph glyph-name="Dcroat.ss01" horiz-adv-x="1296" 
d="M485 422v340q-92 0 -141 -10q-6 6 2 31.5t16 29.5q25 10 123 6v33q0 147 -14 410q0 16 38 20t76 -3t38 -19q-14 -162 -15 -408v-37q90 0 135 12q2 -2 2 -15t-7 -29.5t-26.5 -21.5t-103.5 -1v-338q0 -231 4 -285.5t23 -75.5q33 -41 176 -41q246 0 246 656q0 758 -500 758
q-162 0 -264.5 -85t-102.5 -235q0 -68 29 -109.5t68 -50.5q6 -2 -1 -9q-23 -23 -88 -23t-113 51t-48 139q0 127 84 214q150 155 436 155q189 -1 342 -97q88 -56 154.5 -142.5t108.5 -232t42 -322.5t-26 -307q-47 -229 -159 -324q-89 -76 -196 -76l-278 24l-178 -8
q-6 0 -6.5 24.5t6.5 24.5l57 -2q23 1 34 19q27 46 27 360z" />
    <glyph glyph-name="E.ss01" horiz-adv-x="1282" 
d="M590.5 4q-72.5 0 -178.5 -8q-14 0 -15 14v23q0 12 15 12l57 -2q23 1 34 19q27 45 27 360v592q0 152 -14 309q-2 29 76 -5t76 -52q-14 -244 -15 -252v-359h33l260 7q6 0 6 -35t-6 -35l-260 8h-33v-178q0 -196 12.5 -261t36.5 -81q48 -32 178 -32.5t176 37.5t77 151
q34 149 34 151q8 35 39 31l8 -4q-36 -293 -22 -400q0 -24 -31 -21t-264.5 7t-306 4zM45 1161q0 152 120 225.5t265.5 73.5t426.5 -76q79 -22 163 -3.5t143 96.5q13 -13 22 -40.5t-5 -58.5q-23 -63 -80.5 -101t-136 -38t-162.5 42t-175 85t-189.5 43t-168 -65.5t-69.5 -176.5
q0 -70 34.5 -117t73.5 -55q6 -2 -1 -9q-23 -23 -88 -23t-119 55t-54 143z" />
    <glyph glyph-name="Eacute.ss01" horiz-adv-x="1282" 
d="M590.5 4q-72.5 0 -178.5 -8q-14 0 -15 14v23q0 12 15 12l57 -2q23 1 34 19q27 45 27 360v592q0 152 -14 309q-2 29 76 -5t76 -52q-14 -244 -15 -252v-359h33l260 7q6 0 6 -35t-6 -35l-260 8h-33v-178q0 -196 12.5 -261t36.5 -81q48 -32 178 -32.5t176 37.5t77 151
q34 149 34 151q8 35 39 31l8 -4q-36 -293 -22 -400q0 -24 -31 -21t-264.5 7t-306 4zM45 1161q0 152 120 225.5t265.5 73.5t426.5 -76q79 -22 163 -3.5t143 96.5q13 -13 22 -40.5t-5 -58.5q-23 -63 -80.5 -101t-136 -38t-162.5 42t-175 85t-189.5 43t-168 -65.5t-69.5 -176.5
q0 -70 34.5 -117t73.5 -55q6 -2 -1 -9q-23 -23 -88 -23t-119 55t-54 143zM530 1593l-18 15q-10 10 -2 22l197 201q14 16 47 -16q49 -53 8 -105q-16 -18 -45 -33l-172 -86q-9 -4 -15 2z" />
    <glyph glyph-name="Ecaron.ss01" horiz-adv-x="1282" 
d="M590.5 4q-72.5 0 -178.5 -8q-14 0 -15 14v23q0 12 15 12l57 -2q23 1 34 19q27 45 27 360v592q0 152 -14 309q-2 29 76 -5t76 -52q-14 -244 -15 -252v-359h33l260 7q6 0 6 -35t-6 -35l-260 8h-33v-178q0 -196 12.5 -261t36.5 -81q48 -32 178 -32.5t176 37.5t77 151
q34 149 34 151q8 35 39 31l8 -4q-36 -293 -22 -400q0 -24 -31 -21t-264.5 7t-306 4zM45 1161q0 152 120 225.5t265.5 73.5t426.5 -76q79 -22 163 -3.5t143 96.5q13 -13 22 -40.5t-5 -58.5q-23 -63 -80.5 -101t-136 -38t-162.5 42t-175 85t-189.5 43t-168 -65.5t-69.5 -176.5
q0 -70 34.5 -117t73.5 -55q6 -2 -1 -9q-23 -23 -88 -23t-119 55t-54 143zM637.5 1575q-17.5 0 -21.5 4q-39 45 -123.5 130t-88 89.5t11.5 24.5q8 8 18 2l205 -150l205 150q12 7 21 -5.5t1 -21t-51 -53.5l-86 -90t-70 -76q-4 -4 -21.5 -4z" />
    <glyph glyph-name="Ecircumflex.ss01" horiz-adv-x="1282" 
d="M590.5 4q-72.5 0 -178.5 -8q-14 0 -15 14v23q0 12 15 12l57 -2q23 1 34 19q27 45 27 360v592q0 152 -14 309q-2 29 76 -5t76 -52q-14 -244 -15 -252v-359h33l260 7q6 0 6 -35t-6 -35l-260 8h-33v-178q0 -196 12.5 -261t36.5 -81q48 -32 178 -32.5t176 37.5t77 151
q34 149 34 151q8 35 39 31l8 -4q-36 -293 -22 -400q0 -24 -31 -21t-264.5 7t-306 4zM45 1161q0 152 120 225.5t265.5 73.5t426.5 -76q79 -22 163 -3.5t143 96.5q13 -13 22 -40.5t-5 -58.5q-23 -63 -80.5 -101t-136 -38t-162.5 42t-175 85t-189.5 43t-168 -65.5t-69.5 -176.5
q0 -70 34.5 -117t73.5 -55q6 -2 -1 -9q-23 -23 -88 -23t-119 55t-54 143zM639.5 1841q19.5 0 22.5 -2q37 -37 114.5 -121t91.5 -98q2 -2 -6 -7q-22 -14 -47 1l-174 112l-178 -106q-31 -14 -53 2q12 12 91 95t117 122q2 2 21.5 2z" />
    <glyph glyph-name="Edieresis.ss01" horiz-adv-x="1282" 
d="M590.5 4q-72.5 0 -178.5 -8q-14 0 -15 14v23q0 12 15 12l57 -2q23 1 34 19q27 45 27 360v592q0 152 -14 309q-2 29 76 -5t76 -52q-14 -244 -15 -252v-359h33l260 7q6 0 6 -35t-6 -35l-260 8h-33v-178q0 -196 12.5 -261t36.5 -81q48 -32 178 -32.5t176 37.5t77 151
q34 149 34 151q8 35 39 31l8 -4q-36 -293 -22 -400q0 -24 -31 -21t-264.5 7t-306 4zM45 1161q0 152 120 225.5t265.5 73.5t426.5 -76q79 -22 163 -3.5t143 96.5q13 -13 22 -40.5t-5 -58.5q-23 -63 -80.5 -101t-136 -38t-162.5 42t-175 85t-189.5 43t-168 -65.5t-69.5 -176.5
q0 -70 34.5 -117t73.5 -55q6 -2 -1 -9q-23 -23 -88 -23t-119 55t-54 143zM768 1581q-84 0 -84 84t84 84t84 -84t-84 -84zM508 1581q-84 0 -84 84t84 84t84 -84t-84 -84z" />
    <glyph glyph-name="Edotaccent.ss01" horiz-adv-x="1282" 
d="M590.5 4q-72.5 0 -178.5 -8q-14 0 -15 14v23q0 12 15 12l57 -2q23 1 34 19q27 45 27 360v592q0 152 -14 309q-2 29 76 -5t76 -52q-14 -244 -15 -252v-359h33l260 7q6 0 6 -35t-6 -35l-260 8h-33v-178q0 -196 12.5 -261t36.5 -81q48 -32 178 -32.5t176 37.5t77 151
q34 149 34 151q8 35 39 31l8 -4q-36 -293 -22 -400q0 -24 -31 -21t-264.5 7t-306 4zM45 1161q0 152 120 225.5t265.5 73.5t426.5 -76q79 -22 163 -3.5t143 96.5q13 -13 22 -40.5t-5 -58.5q-23 -63 -80.5 -101t-136 -38t-162.5 42t-175 85t-189.5 43t-168 -65.5t-69.5 -176.5
q0 -70 34.5 -117t73.5 -55q6 -2 -1 -9q-23 -23 -88 -23t-119 55t-54 143zM631 1587q-92 0 -92 92.5t92 92.5t92 -92.5t-92 -92.5z" />
    <glyph glyph-name="Egrave.ss01" horiz-adv-x="1282" 
d="M590.5 4q-72.5 0 -178.5 -8q-14 0 -15 14v23q0 12 15 12l57 -2q23 1 34 19q27 45 27 360v592q0 152 -14 309q-2 29 76 -5t76 -52q-14 -244 -15 -252v-359h33l260 7q6 0 6 -35t-6 -35l-260 8h-33v-178q0 -196 12.5 -261t36.5 -81q48 -32 178 -32.5t176 37.5t77 151
q34 149 34 151q8 35 39 31l8 -4q-36 -293 -22 -400q0 -24 -31 -21t-264.5 7t-306 4zM45 1161q0 152 120 225.5t265.5 73.5t426.5 -76q79 -22 163 -3.5t143 96.5q13 -13 22 -40.5t-5 -58.5q-23 -63 -80.5 -101t-136 -38t-162.5 42t-175 85t-189.5 43t-168 -65.5t-69.5 -176.5
q0 -70 34.5 -117t73.5 -55q6 -2 -1 -9q-23 -23 -88 -23t-119 55t-54 143zM504 1677.5q-84 65.5 -41 130.5q23 35 45 29q4 -2 6 -6q72 -123 197 -201q1 -2 -5 -12q-20 -31 -55 -23q-63 17 -147 82.5z" />
    <glyph glyph-name="Emacron.ss01" horiz-adv-x="1282" 
d="M590.5 4q-72.5 0 -178.5 -8q-14 0 -15 14v23q0 12 15 12l57 -2q23 1 34 19q27 45 27 360v592q0 152 -14 309q-2 29 76 -5t76 -52q-14 -244 -15 -252v-359h33l260 7q6 0 6 -35t-6 -35l-260 8h-33v-178q0 -196 12.5 -261t36.5 -81q48 -32 178 -32.5t176 37.5t77 151
q34 149 34 151q8 35 39 31l8 -4q-36 -293 -22 -400q0 -24 -31 -21t-264.5 7t-306 4zM45 1161q0 152 120 225.5t265.5 73.5t426.5 -76q79 -22 163 -3.5t143 96.5q13 -13 22 -40.5t-5 -58.5q-23 -63 -80.5 -101t-136 -38t-162.5 42t-175 85t-189.5 43t-168 -65.5t-69.5 -176.5
q0 -70 34.5 -117t73.5 -55q6 -2 -1 -9q-23 -23 -88 -23t-119 55t-54 143zM371 1645v32q0 14 14 15l281 -4h2l260 4q14 0 14 -13v-37q0 -12 -14 -12l-260 4h-2l-281 -4q-14 0 -14 15z" />
    <glyph glyph-name="Eogonek.ss01" horiz-adv-x="1282" 
d="M1049 -184q0 -47 27.5 -81t67.5 -34t64.5 6t26.5 -6q7 -20 -6 -27q-55 -18 -119 -18t-112 45t-48 111q0 115 158 184l-369 6q-76 2 -148.5 2t-178.5 -8q-14 0 -15 14v23q0 12 15 12l57 -2q23 1 34 19q27 45 27 360v592q0 152 -14 309q-2 29 76 -5t76 -52
q-14 -244 -15 -252v-359h33l260 7q6 0 6 -35t-6 -35l-260 8h-33v-178q0 -196 12.5 -261t36.5 -81q48 -32 178 -32.5t176 37.5t77 151q35 150 34 151q8 35 39 31l8 -4q-36 -293 -22 -400q0 -24 -21 -20q-61 -33 -91.5 -82t-30.5 -96zM45 1161q0 152 120 225.5t265.5 73.5
t426.5 -76q79 -22 163 -3.5t143 96.5q13 -13 22 -40.5t-5 -58.5q-23 -63 -80.5 -101t-136 -38t-162.5 42t-175 85t-189.5 43t-168 -65.5t-69.5 -176.5q0 -70 34.5 -117t73.5 -55q6 -2 -1 -9q-23 -23 -88 -23t-119 55t-54 143z" />
    <glyph glyph-name="F.ss01" horiz-adv-x="1212" 
d="M653 422q0 -312 28 -360q11 -18 34 -19h55q8 0 6 -23.5t-6 -23.5l-180 8q-72 0 -178 -8q-8 0 -6 24.5t6 24.5q36 0 58 -1q22 0 33 18q27 45 27 360v592q0 47 -14 309q-2 29 76 -5t76 -52q-14 -162 -15 -252v-359l260 7q6 0 6.5 -35t-6.5 -35l-260 8v-178zM963.5 1239
q-78.5 0 -162.5 42t-175 85t-189.5 43t-168 -65.5t-69.5 -176.5q0 -70 34.5 -116.5t73.5 -55.5q6 -2 -1 -9q-23 -23 -88 -23t-119 55t-54 143q0 152 120 225.5t265.5 73.5t426.5 -76q79 -22 163 -3.5t143 96.5q13 -13 22 -40.5t-5 -58.5q-23 -63 -80.5 -101t-136 -38z" />
    <glyph glyph-name="G.ss01" horiz-adv-x="927" 
d="M809 8q0 -4 -17.5 -4t-27.5 19l-12 16q-90 -78 -263 -78q-45 0 -89 12.5t-102 56.5t-101 117.5t-74 212t-31 324.5t30 331.5t75 227.5t109 132q108 85 247 81q100 0 189 -54t89 -159q0 -78 -48 -127q-49 -49 -113 -49q-64 -1 -88 23q-8 8 0 10q37 8 65.5 47t28.5 107.5
t-40 115.5t-93.5 46t-92 -21.5t-77.5 -72.5t-68 -133t-47 -212t-18 -299t20 -296q33 -218 111 -311q58 -69 121 -69t106 42t71.5 140t28.5 227t-14 158t-57 29l-215 -4q-6 0 -6 29.5t6 29.5l262 -10l219 8q10 0 8 -28.5t-4 -28.5l-51 2q-27 0 -34 -42t-7 -204z" />
    <glyph glyph-name="Gcommaaccent.ss01" horiz-adv-x="927" 
d="M408 -224q0 38 28.5 62.5t70.5 24.5t68.5 -31t24.5 -93.5t-43 -126.5t-90 -97q-2 -2 -8 2.5t-2 19.5q45 105 -19 171q-30 30 -30 68zM809 8q0 -4 -17.5 -4t-27.5 19l-12 16q-90 -78 -263 -78q-45 0 -89 12.5t-102 56.5t-101 117.5t-74 212t-31 324.5t30 331.5t75 227.5
t109 132q108 85 247 81q100 0 189 -54t89 -159q0 -78 -48 -127q-49 -49 -113 -49q-64 -1 -88 23q-8 8 0 10q37 8 65.5 47t28.5 107.5t-40 115.5t-93.5 46t-92 -21.5t-77.5 -72.5t-68 -133t-47 -212t-18 -299t20 -296q33 -218 111 -311q58 -69 121 -69t106 42t71.5 140
t28.5 227t-14 158t-57 29l-215 -4q-6 0 -6 29.5t6 29.5l262 -10l219 8q10 0 8 -28.5t-4 -28.5l-51 2q-27 0 -34 -42t-7 -204z" />
    <glyph glyph-name="H.ss01" horiz-adv-x="1437" 
d="M1296 1410q0 -26 -6 -26l-53 5q-23 3 -35 -17q-28 -46 -28 -383v-284q114 -19 145 -109q19 -61 -8 -88l-8 -10q-55 63 -129 90v-166q0 -312 27 -358q16 -27 89 -21q8 0 6 -23.5t-6 -23.5l-180 8l-178 -8q-6 0 -6 24.5t6 24.5l57 -2q23 1 34 19q28 47 28 360v182
q-80 -2 -250 -47t-236 -57v-78q0 -310 28 -358q15 -26 89 -21q6 0 6 -23.5t-6 -23.5l-180 8l-178 -8q-6 0 -6.5 24.5t6.5 24.5l57 -2q23 1 34 19q27 45 27 360v65h-24q-226 -1 -342 105q-66 60 -68 150.5t47 143t114.5 52.5t87.5 -24q7 -8 1 -9q-37 -8 -65.5 -50t-28.5 -110
q0 -104 70.5 -155t191.5 -51h16v452q0 337 -28 383q-12 20 -26.5 18.5t-36 -1.5t-29 -1t-5.5 23.5t7 24.5l178 -8l180 6q6 0 6 -26t-6 -26l-53 5q-23 3 -35 -17q-29 -47 -29 -383v-436q82 16 241 77.5t245 74.5v286q0 333 -28 383q-11 20 -26.5 18.5t-37 -1.5t-27.5 -2
q-8 0 -6 24.5t6 24.5l178 -8l180 6q6 0 6 -26z" />
    <glyph glyph-name="Hbar.ss01" horiz-adv-x="1447" 
d="M565 553q82 16 241 77.5t245 74.5v110q-74 -8 -237 -66.5t-249 -70.5v-125zM1296 1410q0 -26 -6 -26l-53 5q-23 3 -35 -17q-28 -46 -28 -383v-284q114 -19 145 -109q19 -61 -8 -88l-8 -10q-55 63 -129 90v-166q0 -312 27 -358q16 -27 89 -21q8 0 6 -23.5t-6 -23.5l-180 8
l-178 -8q-6 0 -6 24.5t6 24.5l57 -2q23 1 34 19q28 47 28 360v182q-80 -2 -250 -47t-236 -57v-78q0 -310 28 -358q15 -26 89 -21q6 0 6 -23.5t-6 -23.5l-180 8l-178 -8q-6 0 -6.5 24.5t6.5 24.5l57 -2q23 1 34 19q27 45 27 360v65h-24q-226 -1 -342 105q-66 60 -68 150.5
t47 143t114.5 52.5t87.5 -24q7 -8 1 -9q-37 -8 -65.5 -50t-28.5 -110q0 -104 70.5 -155t191.5 -51h16v452q0 337 -28 383q-12 20 -26.5 18.5t-36 -1.5t-29 -1t-5.5 23.5t7 24.5l178 -8l180 6q6 0 6 -26t-6 -26l-53 5q-23 3 -35 -17q-29 -47 -29 -383v-248q90 10 249 69.5
t237 74.5v106q0 333 -28 383q-11 20 -26.5 18.5t-37 -1.5t-27.5 -2q-8 0 -6 24.5t6 24.5l178 -8l180 6q6 0 6 -26z" />
    <glyph glyph-name="I.ss01" horiz-adv-x="854" 
d="M707 -70q-57 0 -149.5 47.5t-156 47.5t-86.5 -41q-8 -8 -17 13t5 36q31 31 90 31t77 16q38 33 38 342v592q0 27 -14 289q-2 29 76 -5.5t75 -52.5q-14 -162 -14 -231v-592q0 -266 6 -323.5t39 -74.5t79 -1t60 55q23 -46 6 -76q-29 -72 -114 -72zM176 1204q0 -86 35 -133
t74 -55q7 -2 -1 -10q-24 -24 -88.5 -23.5t-118.5 56t-54 143.5q0 131 101 204.5t247 73.5q68 0 216 -28.5t245.5 -23.5t144.5 73q9 -9 18 -43.5t-8 -63.5q-41 -98 -162 -98q-80 0 -210 66.5t-225 66.5t-154.5 -59.5t-59.5 -145.5z" />
    <glyph glyph-name="Iacute.ss01" horiz-adv-x="854" 
d="M707 -70q-57 0 -149.5 47.5t-156 47.5t-86.5 -41q-8 -8 -17 13t5 36q31 31 90 31t77 16q38 33 38 342v592q0 27 -14 289q-2 29 76 -5.5t75 -52.5q-14 -162 -14 -231v-592q0 -266 6 -323.5t39 -74.5t79 -1t60 55q23 -46 6 -76q-29 -72 -114 -72zM176 1204q0 -86 35 -133
t74 -55q7 -2 -1 -10q-24 -24 -88.5 -23.5t-118.5 56t-54 143.5q0 131 101 204.5t247 73.5q68 0 216 -28.5t245.5 -23.5t144.5 73q9 -9 18 -43.5t-8 -63.5q-41 -98 -162 -98q-80 0 -210 66.5t-225 66.5t-154.5 -59.5t-59.5 -145.5zM438 1571q-10 10 -2 22l197 201
q14 16 47 -16q49 -53 8 -105q-16 -18 -45 -33l-172 -86q-8 -4 -14 2z" />
    <glyph glyph-name="Icircumflex.ss01" horiz-adv-x="854" 
d="M707 -70q-57 0 -149.5 47.5t-156 47.5t-86.5 -41q-8 -8 -17 13t5 36q31 31 90 31t77 16q38 33 38 342v592q0 27 -14 289q-2 29 76 -5.5t75 -52.5q-14 -162 -14 -231v-592q0 -266 6 -323.5t39 -74.5t79 -1t60 55q23 -46 6 -76q-29 -72 -114 -72zM176 1204q0 -86 35 -133
t74 -55q7 -2 -1 -10q-24 -24 -88.5 -23.5t-118.5 56t-54 143.5q0 131 101 204.5t247 73.5q68 0 216 -28.5t245.5 -23.5t144.5 73q9 -9 18 -43.5t-8 -63.5q-41 -98 -162 -98q-80 0 -210 66.5t-225 66.5t-154.5 -59.5t-59.5 -145.5zM566.5 1804q19.5 0 21.5 -2
q37 -37 114.5 -121t92.5 -98q1 -2 -7 -7q-22 -13 -47 1l-174 113l-178 -107q-31 -14 -53 2q12 12 91 95t118 122q2 2 21.5 2z" />
    <glyph glyph-name="Idieresis.ss01" horiz-adv-x="854" 
d="M707 -70q-57 0 -149.5 47.5t-156 47.5t-86.5 -41q-8 -8 -17 13t5 36q31 31 90 31t77 16q38 33 38 342v592q0 27 -14 289q-2 29 76 -5.5t75 -52.5q-14 -162 -14 -231v-592q0 -266 6 -323.5t39 -74.5t79 -1t60 55q23 -46 6 -76q-29 -72 -114 -72zM176 1204q0 -86 35 -133
t74 -55q7 -2 -1 -10q-24 -24 -88.5 -23.5t-118.5 56t-54 143.5q0 131 101 204.5t247 73.5q68 0 216 -28.5t245.5 -23.5t144.5 73q9 -9 18 -43.5t-8 -63.5q-41 -98 -162 -98q-80 0 -210 66.5t-225 66.5t-154.5 -59.5t-59.5 -145.5zM694 1544q-84 0 -84 84t84 84t84 -84
t-84 -84zM434 1544q-84 0 -84 84t84 84t84 -84t-84 -84z" />
    <glyph glyph-name="Idotaccent.ss01" horiz-adv-x="854" 
d="M707 -70q-57 0 -149.5 47.5t-156 47.5t-86.5 -41q-8 -8 -17 13t5 36q31 31 90 31t77 16q38 33 38 342v592q0 27 -14 289q-2 29 76 -5.5t75 -52.5q-14 -162 -14 -231v-592q0 -266 6 -323.5t39 -74.5t79 -1t60 55q23 -46 6 -76q-29 -72 -114 -72zM176 1204q0 -86 35 -133
t74 -55q7 -2 -1 -10q-24 -24 -88.5 -23.5t-118.5 56t-54 143.5q0 131 101 204.5t247 73.5q68 0 216 -28.5t245.5 -23.5t144.5 73q9 -9 18 -43.5t-8 -63.5q-41 -98 -162 -98q-80 0 -210 66.5t-225 66.5t-154.5 -59.5t-59.5 -145.5zM557 1550q-92 0 -92 92.5t92 92.5t92 -92.5
t-92 -92.5z" />
    <glyph glyph-name="Igrave.ss01" horiz-adv-x="854" 
d="M707 -70q-57 0 -149.5 47.5t-156 47.5t-86.5 -41q-8 -8 -17 13t5 36q31 31 90 31t77 16q38 33 38 342v592q0 27 -14 289q-2 29 76 -5.5t75 -52.5q-14 -162 -14 -231v-592q0 -266 6 -323.5t39 -74.5t79 -1t60 55q23 -46 6 -76q-29 -72 -114 -72zM176 1204q0 -86 35 -133
t74 -55q7 -2 -1 -10q-24 -24 -88.5 -23.5t-118.5 56t-54 143.5q0 131 101 204.5t247 73.5q68 0 216 -28.5t245.5 -23.5t144.5 73q9 -9 18 -43.5t-8 -63.5q-41 -98 -162 -98q-80 0 -210 66.5t-225 66.5t-154.5 -59.5t-59.5 -145.5zM633 1581q-41 -67 -203 59q-84 66 -41 132
q23 35 45 28q4 -2 6 -6q72 -123 197 -201q2 -2 -4 -12z" />
    <glyph glyph-name="Imacron.ss01" horiz-adv-x="854" 
d="M707 -70q-57 0 -149.5 47.5t-156 47.5t-86.5 -41q-8 -8 -17 13t5 36q31 31 90 31t77 16q38 33 38 342v592q0 27 -14 289q-2 29 76 -5.5t75 -52.5q-14 -162 -14 -231v-592q0 -266 6 -323.5t39 -74.5t79 -1t60 55q23 -46 6 -76q-29 -72 -114 -72zM176 1204q0 -86 35 -133
t74 -55q7 -2 -1 -10q-24 -24 -88.5 -23.5t-118.5 56t-54 143.5q0 131 101 204.5t247 73.5q68 0 216 -28.5t245.5 -23.5t144.5 73q9 -9 18 -43.5t-8 -63.5q-41 -98 -162 -98q-80 0 -210 66.5t-225 66.5t-154.5 -59.5t-59.5 -145.5zM297 1608v32q0 14 14 15l281 -4h2l260 4
q14 0 14 -13v-36q0 -12 -14 -13l-260 4h-2l-281 -4q-14 0 -14 15z" />
    </font>
</defs>
</svg>
